<?xml version="1.0" encoding="UTF-8"?>
<svg id="_圖層_1" data-name="圖層 1" xmlns="http://www.w3.org/2000/svg" xmlns:xlink="http://www.w3.org/1999/xlink" version="1.1" viewBox="0 0 16 16">
  <defs>
    <style>
      .cls-1 {
        fill: url(#_未命名漸層_12);
      }

      .cls-1, .cls-2 {
        stroke-width: 0px;
      }

      .cls-2 {
        fill: #fff;
      }
    </style>
    <linearGradient id="_未命名漸層_12" data-name="未命名漸層 12" x1=".1" y1="8" x2="15.9" y2="8" gradientUnits="userSpaceOnUse">
      <stop offset="0" stop-color="#6a47af"/>
      <stop offset="1" stop-color="#f485d5"/>
    </linearGradient>
  </defs>
  <circle class="cls-1" cx="8" cy="8" r="7.9"/>
  <path class="cls-2" d="M11.6,6c.4.4.6.9.6,1.6v2.8c0,0,0,.2-.2.2h-1c0,0-.2,0-.2-.2v-2.5c0-.4-.1-.7-.3-.9s-.5-.3-.8-.3-.6.1-.8.3c-.2.2-.3.5-.3.9v2.5c0,0,0,.2-.2.2h-.9c0,0-.2,0-.2-.2v-2.5c0-.4-.1-.7-.3-.9-.2-.2-.5-.3-.8-.3s-.6.1-.8.3-.3.5-.3.9v2.5c0,0,0,.2-.2.2h-1c0,0-.2,0-.2-.2v-4.7c0,0,0-.2.2-.2h1c0,0,.2,0,.2.2v.5c.2-.2.4-.4.6-.5.3-.1.5-.2.8-.2s.8,0,1.1.3c.3.2.5.3.6.5,0,0,.2,0,.2,0,.2-.2.3-.4.6-.5.3-.2.6-.3,1-.3.6,0,1.1.2,1.5.6Z"/>
</svg>