<?xml version="1.0" encoding="UTF-8"?>
<svg xmlns="http://www.w3.org/2000/svg" version="1.1" viewBox="0 0 400 32">
  <defs>
    <style>
      .cls-1 {
        fill: #fff;
      }
    </style>
  </defs>
  <!-- Generator: Adobe Illustrator 28.7.3, SVG Export Plug-In . SVG Version: 1.2.0 Build 164)  -->
  <g>
    <g id="_レイヤー_1" data-name="レイヤー_1">
      <g>
        <path class="cls-1" d="M10.9-59.9l-.6-3.5c1.2.3,2.8.5,4,.5s1.1-.2,1.1-1.1v-6.8H3.3v-2.9h12.1v-3.4h-6v-1.9c-2.1,1.5-4.2,2.7-6.4,3.7l-2.2-2.8c5.9-2.2,10.5-6,13.6-11.2h4.2c3.3,4.4,8.2,8,14.3,10.5l-2.3,2.9c-2.4-1.2-4.6-2.4-6.2-3.5v2.5h-5.4v3.4h11.3v2.9h-11.4v8.3c0,2.1-.9,2.9-3.3,2.9-1.4-.2-3.3-.3-4.7-.5ZM1.8-63c2.6-1.5,5.3-3.9,6.9-6.4l3.1,1.6c-1.9,2.9-4.6,5.6-7.2,7.2l-2.8-2.4ZM23.7-79.9c-2.6-1.8-5-4-7.2-6.6-1.5,2.6-3.5,4.8-5.8,6.6h13ZM21.2-68l2.8-1.9c2.5,1.6,5.1,3.8,7.8,6.3l-3.1,2.5c-2.8-3-5.2-5.2-7.5-6.9Z"/>
        <path class="cls-1" d="M40.8-83.9h14.9v2.7h-14.9v-2.7ZM42.1-70.5h12.3v10.9h-3.2v-1.2h-5.8v1.5h-3.2v-11.2h0ZM42.8-88.3h10.8v2.6h-10.8v-2.6ZM42.8-79.3h10.8v2.5h-10.8v-2.5ZM42.8-75h10.8v2.5h-10.8v-2.5ZM51.2-63.4v-4.6h-5.8v4.6h5.8ZM62-75.8h-6.7v-3.2h6.7v-10h3.5v9.9h6.7v3.2h-6.7v16.6h-3.5v-16.5Z"/>
        <path class="cls-1" d="M81.3-68.3c3.2-4.7,5.3-8.3,6.7-12.1-2.4.2-4.6.3-6.4.4l-.5-3.2c2.4,0,5.3-.2,8.1-.4.5-1.7,1.1-3.6,1.6-5.5l3.7.9c-.5,1.3-.9,2.7-1.4,4.1,2.1-.3,4.1-.6,5.8-1l.6,3.2c-1.9.4-4.7.8-7.6,1.2-1.8,4.7-3.9,8.9-7.3,14.3l-3.3-1.9ZM88.7-65.3c0-2.6,2.6-4.7,6.4-4.7s1.8.1,2.7.2c0-1.1,0-2.5,0-3.1,0-1,0-2.6,1.2-4.4l3.2,1.7c-.7,1.3-.8,2.3-.8,3.2s0,2.1,0,3.2c2.6.8,5.2,2,7.6,3.4l-1.7,3c-1.9-1.3-3.8-2.3-5.7-3.1v.5c0,3.2-2.4,5.1-6.2,5.1-3.3.1-6.7-1.5-6.7-5ZM95.4-63.4c1.7,0,2.7-.7,2.7-2.2v-1.1c-.8-.2-1.7-.3-2.4-.3-1.9,0-3.2.6-3.2,1.7,0,1.3,1.2,1.9,2.9,1.9ZM100.8-79.9l1.6-2.7c3.3,1.2,5.9,2.6,8.4,4.9l-2,2.7c-2.8-2.5-4.9-3.7-8-4.9Z"/>
        <path class="cls-1" d="M120-74.4c0-1.2.9-2.9,2.4-4.4l2.5,1.2c-1,.8-1.5,1.5-1.5,2,0,.8,1,1.1,3.6,1.1h.5c0-.8.3-1.7.4-2.6,0-1,.3-2.1.5-3.2-2.4,0-4.8-.2-6.9-.4l-.2-3.4c2.5.3,5.1.5,7.6.5.3-2.1.6-4.1.7-5.5l3.7.5c-.3,1.2-.6,3-.9,5,2.2,0,4.4-.3,6.6-.7l.2,3.2c-2.1.3-4.9.6-7.3.6-.2,1.2-.3,2.3-.5,3.4-.1.9-.2,1.6-.3,2.4,2.6-.2,5.2-.7,7.3-1.3l.8,3.2c-2.7.5-5.7.9-8.4,1.1-.1,1.3-.2,2.2-.2,2.8,0,3.1,1.5,4.9,5,4.9s7-2.5,7-6.6-.8-3.8-2.2-6.1h3.7c1.6,2.4,2.1,4.9,2.1,6.6,0,6.1-4.4,9.6-10.7,9.6s-8.5-2.8-8.5-7.6,0-1.9.2-3.3h-.9c-4.7-.2-6.3-1.5-6.3-3Z"/>
        <path class="cls-1" d="M170.9-63.8c6.6-1.6,10.5-5.4,10.5-10.3s-3.5-8-8.6-8.3c-.3,3.9-.9,7.2-2,10.5-1.7,5.1-4.8,7.9-8.1,7.9s-6-3.2-6-7.6c0-7.9,6.9-14.2,15.4-14.2s13.2,4.5,13.2,11.6-4,10.7-11.4,13.1l-3-2.7ZM162.8-67.6c1.8,0,3.4-2.1,4.5-5.4,1-3,1.5-5.7,1.8-9-5,1.2-8.7,5.5-8.7,10.6-.1,2,1.1,3.8,2.4,3.8Z"/>
        <path class="cls-1" d="M196.8-71.9c0-3,.7-9,2-15.5l3.7.6c-1.5,6.7-2.3,12.7-2.3,15.2s.1,2.2.2,3.3c.6-1.7,1.3-3.4,2.1-5l2.2,2.1c-1.1,2.1-1.5,3.4-1.9,4.6-.5,1.9-.7,2.9-.7,4.4l-2.8,1.1c-1.6-3-2.5-6.1-2.5-10.8ZM205.8-66.3c0-2.4,2.1-4.7,6.1-4.7s2.1.1,3.2.3v-2.7c-.2-1.5-.3-3.1-.3-4.7-2.8.2-5.7.2-8.1.2l-.3-3.4c2.6,0,5.4,0,8.3-.2,0-1.9,0-3.6.1-6.4h3.8c-.2,2.4-.3,4.3-.3,6,1.9-.2,3.7-.4,5.4-.7l.4,3.5c-1.7.3-3.7.5-5.7.7,0,1.8.1,3.4.1,4.9s.1,2.6.1,3.6c2.1.7,4.1,1.8,6.1,3.2l-2.1,3.1c-1.3-1.2-2.7-2.1-4-2.7-.3,3.3-2.6,5-6.5,5-3.6.1-6.3-1.8-6.3-5ZM212-64.3c1.9,0,3.2-.9,3.2-2.8v-.4c-1.1-.3-2.1-.5-3-.5-2.1,0-3,.8-3,1.8s1,1.9,2.8,1.9Z"/>
        <path class="cls-1" d="M232.7-62.8c8.7-3.4,13.5-10.9,13.9-21.7h-8v-3.3h12v1.3c.1,10.9,4,17.5,13.4,22.8l-2.6,3.2c-6.8-4.3-11.2-9.7-12.7-16-1.7,7.6-6.8,13.8-13.6,16.7l-2.4-3Z"/>
        <path class="cls-1" d="M279.8-69.7c-1.3,1.4-2.8,3.1-4.6,5.4l-3-2.1c3-2.9,5.5-6.2,6.5-8.1.4-.7.8-1.7,1.2-2.7v-2.2c-2.1.4-4.5.8-6.4,1l-.6-3.2c2-.1,4.7-.4,7-1,0-2.4,0-4.2-.1-6.1h3.8c-.1,2.1-.1,3.9-.2,6l1.5,1c-.4,1.2-.9,2.4-1.5,4v.4c4.1-4.1,7.6-7.1,10.8-7.1s3.9,1.3,3.9,3.8-.3,3-.5,4.7c-.6,3.6-.9,6.3-.9,7.7s.6,2.4,1.7,2.4,3.2-1,5-3.7l1.6,3.5c-1.8,2.5-4.2,3.7-7.1,3.7s-4.8-2-4.8-5.2.3-5,.9-9c.2-1.1.4-2.4.4-3.3s-.3-1.2-.9-1.2c-1.7,0-6.2,4-9.9,7.6,0,4.5,0,7.8.1,13h-3.8c-.2-3.5-.2-6.4-.1-9.3Z"/>
        <path class="cls-1" d="M312.6-68.3c3.2-4.7,5.3-8.3,6.7-12.1-2.4.2-4.6.3-6.4.4l-.5-3.2c2.4,0,5.3-.2,8.1-.4.5-1.7,1.1-3.6,1.6-5.5l3.7.9c-.5,1.5-.9,2.9-1.4,4.2,2.1-.3,4.1-.6,5.8-1l.6,3.2c-1.9.4-4.7.8-7.6,1.2-1.8,4.7-3.9,8.9-7.3,14.3l-3.3-2ZM320-65.3c0-2.6,2.6-4.7,6.4-4.7s1.8.1,2.7.2c-.1-1.1-.1-2.5-.1-3.1,0-1,.1-2.6,1.2-4.4l3.2,1.7c-.7,1.3-.8,2.3-.8,3.2s.1,2.1.1,3.2c2.6.8,5.2,2,7.6,3.4l-1.7,3c-1.9-1.3-3.8-2.3-5.7-3.1v.5c0,3.2-2.4,5.1-6.2,5.1-3.3.1-6.7-1.5-6.7-5ZM326.7-63.4c1.7,0,2.7-.7,2.7-2.2v-1.1c-.8-.2-1.7-.3-2.4-.3-1.9,0-3.2.6-3.2,1.7-.1,1.3,1.2,1.9,2.9,1.9ZM332.1-79.9l1.6-2.7c3.3,1.2,5.9,2.6,8.4,4.9l-2,2.7c-2.7-2.5-4.9-3.7-8-4.9Z"/>
        <path class="cls-1" d="M354.7-68.4c-.8-2.4-1.3-6.8-1.3-10.7s.1-4.1.2-6.3l3.8.8c-.2,2.3-.3,4.4-.3,6.6,0,3.7.4,6.4,1,8.4.8,2.3,1.8,3.7,2.9,3.7s2.7-2.4,3.6-6.7l3.2,2.5c-1.5,5.4-4.1,8-6.7,8s-5.2-2.4-6.4-6.3ZM371.1-81.3l2.7-2.3c4.3,3.8,5.6,8.4,6.5,14.9l-3.7,1.1c-.8-6.1-2.1-10.9-5.5-13.7Z"/>
        <path class="cls-1" d="M388.8-63.8c0-2.7,2.3-4.9,5.2-4.9s5.1,2.3,5.1,4.9-2.3,4.9-5.2,4.9c-2.7,0-5.1-2.2-5.1-4.9ZM396.8-63.8c0-1.5-1.2-2.6-2.8-2.6s-2.8,1.2-2.8,2.6,1.2,2.6,2.8,2.6,2.8-1.2,2.8-2.6Z"/>
      </g>
      <g>
        <path class="cls-1" d="M5.2,28.5c1.2-1.2,1.7-3.3,1.9-5.3l1.4.4c-.3,2.1-.7,4.4-2,5.6l-1.3-.7ZM5.6,20.2c1.5,0,3.4-.2,5.4-.3v-2.4h-4.8v-1.6h4.8v-2.1h-4.6V3.9h11.2v9.9h-4.9v2.1h5.1v1.6h-5.1v2.3l5.5-.3v1.6c-4.6.3-9.3.7-12.6.8v-1.7ZM8,12.4h3.3v-7.1h-3.3v7.1ZM9.5,6.6c.5,1.4.9,3.2,1,4.4l-1.1.3c0-1.2-.4-3-.9-4.5l1-.3ZM10.8,23.1c.5,1.6.8,3.6.8,5l-1.4.2c0-1.4-.3-3.4-.8-5h1.3ZM13.5,22.8c.7,1.4,1.3,3.4,1.5,4.6l-1.3.3c-.1-1.3-.8-3.2-1.4-4.6l1.3-.3ZM16.1,5.4h-3.5v7.1h3.5v-7.1ZM13.1,11.1c.4-1.2,1-3.3,1.3-4.7l1.2.4c-.5,1.5-1.1,3.4-1.6,4.6l-.9-.3ZM16.2,22.2c1.1,1.3,2.1,3.1,2.6,4.2l-1.3.6c-.4-1.2-1.4-3-2.4-4.4l1.2-.5ZM25.5,11v5.5h5.1v12.5h-1.8v-1.3h-7.6v1.4h-1.8v-12.6h4.2V2.9h1.9v6.3h6.3v1.8h-6.3ZM28.8,18.3h-7.6v7.7h7.6v-7.7Z"/>
        <path class="cls-1" d="M48.7,21.6c-.3,2.5-.9,5.2-1.5,7-.3-.2-1.1-.4-1.5-.5.7-1.8,1.2-4.4,1.4-6.8l1.5.3ZM53.7,20.3c0-.5-.2-1-.3-1.6-5.6.8-6.4,1-6.8,1.3-.1-.4-.4-1.2-.6-1.7.5-.1,1.2-.9,2-1.9.4-.5,1.4-1.8,2.4-3.5-2.9.3-3.6.5-3.9.7,0-.4-.4-1.2-.6-1.7.5-.1.9-.7,1.4-1.6.6-.9,2.4-4.2,3.4-7.3l1.7.7c-1.2,2.8-2.6,5.7-4.1,7.9l3-.3c.7-1.2,1.4-2.5,2-3.8l1.6.9c-1.8,3.4-3.9,6.8-6.1,9.5l4.2-.5c-.3-1.1-.5-2.1-.9-3.1l1.4-.3c.7,2,1.4,4.6,1.7,6.1l-1.5.4ZM51.2,21.2c.3,2,.7,4.6.8,6.3l-1.5.3c0-1.7-.4-4.4-.7-6.3l1.4-.3ZM53.5,20.5c.6,1.6,1.3,3.7,1.6,5.1l-1.4.4c-.2-1.4-.9-3.5-1.5-5.1l1.3-.4ZM62.1,26.5c-.5-.6-1.2-1.2-2-1.9-1.3,2.1-2.9,3.6-4.8,4.7-.2-.4-.9-1-1.3-1.3,1.9-1,3.5-2.5,4.7-4.5-1-.8-2.1-1.6-3-2.2l1.1-1.1c.9.5,1.8,1.2,2.8,1.9.5-1.2,1-2.4,1.4-3.8h-5v-1.7h6s1.1.3,1.1.3c-.4,2.4-1.1,4.5-2,6.2.9.7,1.7,1.4,2.3,2.1l-1.2,1.3ZM62.3,13.1c-.5-.5-1.1-1-1.8-1.5-1.1,1.7-2.4,3-3.9,4-.2-.4-.8-1-1.2-1.3,1.5-.9,2.7-2.1,3.8-3.7-1-.7-2.1-1.4-3.1-1.9l1-1.2c.9.5,1.9,1.1,2.9,1.7.5-1.1,1-2.3,1.3-3.6h-5.2v-1.7h6.2c0,0,1,.3,1,.3-.4,2.2-1,4.2-1.8,5.8.8.6,1.5,1.1,2,1.6l-1,1.4ZM71.7,16.8c-.6,3.2-1.7,5.8-3.1,7.7,1.1,1.4,2.4,2.4,3.9,3.1-.4.3-1,1-1.2,1.5-1.5-.8-2.7-1.8-3.8-3.2-1.3,1.4-2.8,2.5-4.5,3.3-.2-.4-.8-1-1.3-1.4,1.8-.8,3.4-1.9,4.8-3.4-1-1.7-1.8-3.8-2.3-6l1.4-.3h-1.8v-1.7h6.9s1.1.3,1.1.3ZM65.1,7.5c.9.6,1.8,1.3,2.7,2,.7-1.1,1.3-2.4,1.7-3.8h-5.4v-1.7h6.4c0,0,1.1.3,1.1.3-.5,2.5-1.4,4.5-2.4,6.2,1.1.9,2.1,1.8,2.8,2.6l-1.1,1.3c-.6-.7-1.6-1.7-2.6-2.6-1.2,1.5-2.7,2.7-4.4,3.5-.2-.4-.9-1.1-1.2-1.3,1.6-.8,3.1-1.8,4.3-3.3-1-.8-2-1.5-2.9-2.2l1.1-1.1ZM65.6,18.2c.4,1.8,1.1,3.5,1.9,4.9.9-1.4,1.6-3,2.1-4.9h-4.1Z"/>
        <path class="cls-1" d="M92.6,7.6c-1.4,2.3-3,4.4-4.6,6-.4-.3-1.2-.9-1.7-1.2,2.7-2.3,5.1-6,6.6-9.7l1.9.5c-.4.9-.8,1.7-1.3,2.6h18.1v1.8h-19.1ZM108.5,18.8c-.1,2-.2,3.6-.4,4.9h3.5v1.7h-3.7c-.2,1.5-.5,2.3-.8,2.8-.5.7-1.1.9-2,1-.8,0-2.3,0-3.7,0,0-.5-.2-1.1-.5-1.6,1.5.1,2.9.1,3.4.1.5,0,.8,0,1-.4.2-.3.4-.8.6-1.8h-16.7c.3-1.8.8-4.1,1.1-6.6h-4.1v-1.8h4.4c.3-2.3.6-4.5.8-6.5h17.3s0,.7,0,1c0,2.1-.1,3.9-.2,5.5h4v1.8h-4.1ZM106.2,23.7c.1-1.2.3-2.9.4-4.9h-14.2c-.3,1.8-.5,3.4-.8,4.9h9.3c-1.2-1.2-3.5-2.7-5.4-3.7l1.1-1.1c2.1,1,4.5,2.5,5.7,3.7l-1,1.1h4.9ZM93.3,12.3c-.2,1.5-.4,3.2-.7,4.8h14.1c0-1.4.1-3,.2-4.8h-13.6ZM101.6,17c-1.1-1.1-3.4-2.5-5.3-3.4l1.1-1.1c1.9.8,4.2,2.2,5.3,3.2l-1.2,1.2Z"/>
        <path class="cls-1" d="M153.1,14.7v2.1h-26.2v-2.1h26.2Z"/>
        <path class="cls-1" d="M181.8,15.9c2,5.6,6,9.8,11.9,11.5-.5.4-1,1.2-1.3,1.7-5.8-1.9-9.7-6.1-12-11.8-1.2,4.3-4.4,8.7-11.8,11.9-.3-.5-.9-1.2-1.3-1.6,7.6-3.1,10.4-7.5,11.4-11.6h-10.7v-1.9h11.1c.2-1.2.2-2.3.2-3.4v-3.5h-10.3v-1.9h22.8v1.9h-10.5v3.5c0,1.1,0,2.2-.2,3.4h11.9v1.9h-11.1Z"/>
        <path class="cls-1" d="M215.6,3.2c-.5,1.4-1,3-1.5,4.3h4.9v18.7h-8.1v2.3h-1.8V7.5h3.2c.5-1.4,1-3.3,1.2-4.7l2.1.4ZM217.2,9.2h-6.3v6.3h6.3v-6.3ZM217.2,24.4v-7.2h-6.3v7.2h6.3ZM233.1,8.4c-.5,13.3-.9,17.7-2,19.1-.6.8-1.2,1-2.2,1.1-1,0-2.6,0-4.2,0,0-.6-.3-1.4-.6-1.9,1.9.2,3.6.2,4.2.2s.9,0,1.2-.4c1-1,1.4-5.5,1.8-17.2h-7.6c-.8,2-1.7,3.8-2.7,5.1-.3-.3-1.2-.8-1.6-1.1,2-2.6,3.5-6.6,4.4-10.5l1.8.4c-.4,1.4-.8,2.9-1.3,4.3h8.8v1ZM226.9,21.4c-.9-1.8-2.9-4.6-4.5-6.7l1.5-.9c1.7,2.1,3.7,4.8,4.6,6.6l-1.6,1Z"/>
        <path class="cls-1" d="M274.2,15.5v1.7h-12.1c0,.8-.2,1.6-.4,2.3h12.1v1.7h-12.6c-1.4,4-4.5,6.5-12.1,7.8-.1-.5-.6-1.3-1-1.7,6.8-1,9.7-2.9,11-6.1h-9.9v-1.7h10.4c.2-.7.3-1.5.4-2.3h-11.5v-1.7h11.7v-2.6h-9.1v-1.7h9.1v-2.5h-10.6v-1.8h6.2c-.5-1-1.4-2.4-2.3-3.5l1.7-.7c1,1.1,2.1,2.7,2.5,3.7l-1,.5h7.8c.9-1.2,2-2.9,2.6-4.2l1.9.7c-.7,1.2-1.6,2.5-2.4,3.5h6.3v1.8h-10.7v2.5h9.3v1.7h-9.3v2.6h12ZM262.3,21.7c4,1.6,9.2,4.1,11.8,5.9l-.9,1.6c-2.5-1.9-7.7-4.5-11.8-6.2l.9-1.4Z"/>
        <path class="cls-1" d="M299,10.8c0,3.3-.5,7.3-2.5,11.2,1.5,1.2,2.8,2.5,3.6,3.5l-1.2,1.6c-.8-1-2-2.2-3.4-3.4-1.3,1.9-3.1,3.8-5.5,5.6-.3-.4-1-1-1.4-1.3,2.4-1.7,4.2-3.6,5.4-5.6-1.6-1.3-3.2-2.7-4.7-3.8.6-1.9,1.2-4.5,1.8-7.3h-2.4c0,.1-.2-1.7-.2-1.7.9,0,1.8,0,3-.1.4-2.2.7-4.5.9-6.5h1.9c-.2,2.1-.6,4.2-1,6.4l3.8-.2v-2.2h1.8v2.1h1.7c0,0,0,1.6,0,1.6h-1.7ZM293,11.2c-.5,2.4-1,4.8-1.6,6.8,1.2.9,2.4,1.8,3.6,2.8,1.7-3.4,2.1-6.9,2.1-9.8l-4.2.3ZM314.9,17h-6.5v9.9c0,1.2-.3,1.7-1.2,2.1-.9.3-2.2.3-4.4.3-.1-.5-.5-1.3-.7-1.8,1.7,0,3.3,0,3.8,0,.5,0,.6-.2.6-.6v-9.9h-6.8v-1.8h6.8v-3.4c1.5-1.2,3.2-3.2,4.4-4.9h-9.8v-1.8h11.6c0-.1,1.3.8,1.3.8-1.4,2.1-3.5,4.6-5.5,6.3v2.9h6.5v1.8Z"/>
        <path class="cls-1" d="M338.2,23.5h-6.3v2.3h-1.8V4.8h8.1v18.8ZM331.9,6.5v6.6h4.5v-6.6h-4.5ZM336.4,21.8v-6.9h-4.5v6.9h4.5ZM347.9,8.1v3.9h6.4v1.7h-2.6v3.3h3.5v1.7h-3.5v8c0,1.2-.3,1.7-1.1,2-.9.3-2.3.3-4.7.3,0-.5-.4-1.3-.6-1.8,1.8,0,3.5,0,3.9,0,.5,0,.6-.1.6-.6v-8h-11v-1.7h11v-3.3h-9.8v-1.7h6v-3.9h-7.3v-1.7h7.3v-3.6h1.9v3.6h7.4v1.7h-7.4ZM342.3,19.9c1.4,1.5,3.1,3.6,3.8,5l-1.6,1c-.7-1.4-2.3-3.6-3.7-5.1l1.6-.9Z"/>
        <path class="cls-1" d="M383.4,11c-2.7,5.1-7.1,9.1-11.9,11.6-.2-.4-.8-1.2-1.2-1.6,3.1-1.4,6-3.6,8.3-6.2-5.8.3-6.6.5-7.1.7,0-.4-.4-1.3-.6-1.8.5,0,1-.5,1.6-1.2.5-.5,2-2.3,3.3-4.3h-5.8v-1.8h7.5c-.3-1-1-2.3-1.6-3.3l1.7-.5c.8,1.1,1.6,2.7,1.9,3.7h-.2c0,0,6.2,0,6.2,0v1.8h-7.6c-1.3,1.9-2.7,3.7-4.2,5.2l6.2-.3c.6-.9,1.2-1.8,1.7-2.8l1.7.6ZM385.3,16.6c-1.2,2-2.6,3.8-4.2,5.5,1.6,1.4,3.6,3.3,4.7,4.5l-1.4,1.2c-1-1.2-2.9-3-4.5-4.5-2.6,2.4-5.5,4.4-8.5,5.9-.3-.4-.9-1.2-1.3-1.6,5.5-2.4,10.6-6.5,13.4-11.6l1.8.7ZM389.6,22.2h-1.8V6.2h1.8v16ZM394.8,3.3v23.4c0,1.3-.3,1.8-1.2,2.2-.9.3-2.3.3-4.7.3,0-.5-.3-1.3-.6-1.8,1.8,0,3.4,0,3.9,0,.5,0,.7-.2.7-.7V3.3h1.9Z"/>
      </g>
    </g>
  </g>
</svg>