<?xml version="1.0" encoding="UTF-8"?>
<svg xmlns="http://www.w3.org/2000/svg" version="1.1" viewBox="0 0 188 76">
  <defs>
    <style>
      .cls-1 {
        fill: #fff;
      }
    </style>
  </defs>
  <!-- Generator: Adobe Illustrator 28.7.3, SVG Export Plug-In . SVG Version: 1.2.0 Build 164)  -->
  <g>
    <g id="_レイヤー_1" data-name="レイヤー_1">
      <g>
        <path class="cls-1" d="M6.3,26.4c1-1,1.4-2.7,1.6-4.4l1.2.3c-.2,1.8-.6,3.6-1.6,4.7l-1.1-.6ZM6.7,19.6c1.3,0,2.8-.1,4.5-.2v-2h-4v-1.3h4v-1.8h-3.8V6h9.3v8.3h-4.1v1.8h4.3v1.3h-4.3v1.9l4.6-.3v1.3c-3.9.3-7.8.6-10.5.7v-1.4ZM8.6,13.1h2.7v-5.9h-2.7v5.9ZM9.9,8.2c.4,1.2.7,2.7.8,3.7l-.9.3c0-1-.3-2.5-.7-3.7l.8-.2ZM11,22c.4,1.3.7,3,.7,4.1l-1.1.2c0-1.1-.3-2.8-.6-4.2h1.1ZM13.2,21.7c.6,1.2,1.1,2.8,1.3,3.9l-1.1.2c-.1-1.1-.7-2.6-1.2-3.9l1.1-.2ZM15.4,7.2h-2.9v5.9h2.9v-5.9ZM12.9,12c.4-1,.8-2.8,1.1-3.9l1,.4c-.4,1.3-.9,2.8-1.3,3.8l-.7-.3ZM15.4,21.2c.9,1.1,1.8,2.6,2.1,3.5l-1.1.5c-.3-1-1.2-2.5-2-3.6l1-.4ZM23.2,11.9v4.6h4.2v10.4h-1.5v-1.1h-6.3v1.2h-1.5v-10.5h3.5V5.2h1.6v5.2h5.2v1.5h-5.2ZM25.9,18h-6.3v6.4h6.3v-6.4Z"/>
        <path class="cls-1" d="M39.6,20.7c-.3,2-.7,4.3-1.2,5.8-.3-.1-.9-.3-1.2-.4.6-1.5,1-3.7,1.2-5.6l1.3.2ZM43.8,19.7c0-.4-.1-.9-.3-1.4-4.6.7-5.3.8-5.7,1.1,0-.3-.3-1-.5-1.4.5,0,1-.7,1.6-1.6.4-.5,1.1-1.5,2-2.9-2.5.3-3,.4-3.3.6,0-.3-.3-1-.5-1.4.4,0,.8-.6,1.2-1.3.5-.7,2-3.5,2.9-6.1l1.4.6c-1,2.3-2.2,4.7-3.4,6.6l2.5-.3c.6-1,1.2-2.1,1.6-3.1l1.3.7c-1.5,2.8-3.2,5.7-5.1,7.9l3.5-.5c-.2-.9-.5-1.8-.7-2.6l1.2-.3c.6,1.6,1.2,3.8,1.4,5.1l-1.3.4ZM41.7,20.4c.3,1.7.6,3.8.6,5.2l-1.2.2c0-1.4-.3-3.6-.6-5.3l1.2-.2ZM43.6,19.8c.5,1.3,1.1,3.1,1.3,4.2l-1.2.4c-.2-1.2-.7-2.9-1.2-4.2l1.1-.3ZM50.8,24.8c-.4-.5-1-1-1.6-1.6-1.1,1.7-2.5,3-4,3.9-.2-.3-.7-.9-1.1-1.1,1.6-.8,2.9-2,3.9-3.7-.8-.6-1.7-1.3-2.5-1.8l.9-.9c.7.4,1.5,1,2.3,1.6.5-1,.8-2,1.1-3.2h-4.2v-1.4h5s.9.3.9.3c-.4,2-.9,3.7-1.7,5.2.8.6,1.4,1.2,1.9,1.8l-1,1.1ZM51,13.6c-.4-.4-.9-.8-1.5-1.3-.9,1.4-2,2.5-3.3,3.3-.2-.3-.7-.9-1-1.1,1.2-.7,2.3-1.7,3.2-3.1-.8-.6-1.7-1.1-2.6-1.6l.8-1c.7.4,1.6.9,2.4,1.4.4-.9.8-1.9,1.1-3h-4.4v-1.4h5.1s.9.3.9.3c-.3,1.9-.9,3.5-1.5,4.8.7.5,1.3.9,1.7,1.3l-.8,1.1ZM58.8,16.8c-.5,2.7-1.4,4.8-2.6,6.5.9,1.1,2,2,3.3,2.6-.4.3-.8.8-1,1.3-1.2-.6-2.3-1.5-3.2-2.7-1.1,1.2-2.4,2.1-3.8,2.7-.2-.3-.7-.9-1.1-1.1,1.5-.6,2.9-1.6,4-2.8-.9-1.4-1.5-3.2-2-5l1.1-.3h-1.5v-1.4h5.8s.9.3.9.3ZM53.3,8.9c.7.5,1.5,1.1,2.3,1.7.6-.9,1.1-2,1.4-3.2h-4.5v-1.4h5.3s.9.3.9.3c-.4,2.1-1.1,3.8-2,5.2.9.8,1.8,1.5,2.3,2.2l-.9,1.1c-.5-.6-1.3-1.4-2.2-2.2-1,1.3-2.3,2.2-3.6,2.9-.2-.3-.7-.9-1-1.1,1.4-.6,2.6-1.5,3.6-2.7-.8-.7-1.7-1.3-2.4-1.8l.9-.9ZM53.7,17.9c.4,1.5.9,2.9,1.6,4.1.8-1.2,1.4-2.5,1.8-4.1h-3.4Z"/>
        <path class="cls-1" d="M73.3,9c-1.2,1.9-2.5,3.7-3.8,5-.3-.3-1-.7-1.4-1,2.2-2,4.3-5,5.5-8.1l1.6.5c-.3.7-.7,1.4-1.1,2.1h15v1.5h-15.9ZM86.6,18.4c0,1.7-.2,3-.3,4h2.9v1.4h-3.1c-.2,1.2-.4,1.9-.7,2.3-.5.6-.9.7-1.7.8-.7,0-1.9,0-3.1,0,0-.4-.2-.9-.4-1.3,1.3,0,2.4.1,2.9,0,.4,0,.7,0,.9-.3.2-.2.4-.7.5-1.5h-13.9c.3-1.5.6-3.4.9-5.5h-3.4v-1.5h3.6c.3-1.9.5-3.8.7-5.4h14.4s0,.6,0,.8c0,1.7-.1,3.2-.2,4.6h3.3v1.5h-3.4ZM84.7,22.5c.1-1,.2-2.4.3-4.1h-11.8c-.2,1.5-.4,2.9-.6,4.1h7.8c-1-1-2.9-2.3-4.5-3.1l.9-.9c1.7.8,3.7,2.1,4.7,3.1l-.8.9h4.1ZM73.9,13c-.2,1.3-.4,2.6-.6,4h11.8c0-1.2.1-2.5.2-4h-11.4ZM80.9,16.9c-.9-.9-2.8-2.1-4.4-2.8l.9-.9c1.6.7,3.5,1.8,4.5,2.7l-1,1Z"/>
        <path class="cls-1" d="M120.9,15v1.7h-21.9v-1.7h21.9Z"/>
        <path class="cls-1" d="M141.9,16c1.7,4.7,5,8.2,9.9,9.6-.4.3-.8,1-1.1,1.4-4.8-1.6-8.1-5.1-10-9.9-1,3.6-3.6,7.2-9.9,9.9-.2-.4-.7-1-1.1-1.3,6.3-2.6,8.6-6.2,9.5-9.7h-8.9v-1.6h9.2c.1-1,.2-2,.2-2.9v-2.9h-8.6v-1.6h19v1.6h-8.7v2.9c0,.9,0,1.9-.1,2.8h9.9v1.6h-9.3Z"/>
        <path class="cls-1" d="M167.1,5.4c-.4,1.2-.8,2.5-1.3,3.6h4.1v15.6h-6.7v1.9h-1.5V8.9h2.7c.4-1.1.8-2.8,1-3.9l1.7.3ZM168.5,10.4h-5.3v5.2h5.3v-5.2ZM168.5,23.1v-6h-5.3v6h5.3ZM181.7,9.7c-.4,11.1-.7,14.7-1.7,15.9-.5.7-1,.8-1.8.9-.8,0-2.2,0-3.5,0,0-.5-.2-1.1-.5-1.6,1.6.1,3,.1,3.5.1s.8,0,1-.4c.8-.8,1.2-4.6,1.5-14.3h-6.3c-.7,1.6-1.4,3.1-2.3,4.3-.3-.2-1-.7-1.3-.9,1.6-2.1,2.9-5.5,3.7-8.8l1.5.3c-.3,1.2-.7,2.4-1.1,3.6h7.3v.8ZM176.6,20.6c-.7-1.5-2.4-3.9-3.7-5.6l1.2-.7c1.4,1.7,3.1,4,3.9,5.5l-1.3.8Z"/>
        <path class="cls-1" d="M28.2,59.5v1.4h-10.1c0,.7-.2,1.3-.3,2h10.1v1.4h-10.5c-1.1,3.4-3.7,5.4-10,6.5-.1-.4-.5-1.1-.8-1.4,5.7-.8,8-2.5,9.1-5.1H7.4v-1.4h8.7c.1-.6.3-1.3.3-2H6.8v-1.4h9.8v-2.2h-7.6v-1.4h7.6v-2.1H7.7v-1.5h5.1c-.4-.9-1.2-2-1.9-2.9l1.4-.6c.9.9,1.7,2.2,2.1,3.1l-.8.4h6.5c.7-1,1.6-2.5,2.2-3.5l1.6.6c-.6,1-1.3,2.1-2,2.9h5.2v1.5h-8.9v2.1h7.8v1.4h-7.8v2.2h10ZM18.3,64.7c3.3,1.3,7.7,3.4,9.9,4.9l-.8,1.4c-2.1-1.6-6.4-3.8-9.8-5.2l.7-1.2Z"/>
        <path class="cls-1" d="M45.9,55.6c0,2.7-.4,6.1-2.1,9.3,1.2,1,2.3,2.1,3,2.9l-1,1.3c-.7-.8-1.7-1.8-2.8-2.8-1.1,1.6-2.6,3.2-4.6,4.6-.3-.4-.8-.8-1.2-1.1,2-1.4,3.5-3,4.5-4.6-1.3-1.1-2.7-2.2-3.9-3.2.5-1.6,1-3.8,1.5-6.1h-2c0,.1-.2-1.4-.2-1.4.7,0,1.5,0,2.5,0,.3-1.9.6-3.8.8-5.4h1.6c-.2,1.7-.5,3.5-.8,5.4l3.2-.2v-1.8h1.5v1.7h1.4c0,0,0,1.4,0,1.4h-1.4ZM40.9,56c-.4,2-.9,4-1.3,5.6,1,.7,2,1.5,3,2.3,1.4-2.8,1.7-5.8,1.8-8.2l-3.5.2ZM59.2,60.7h-5.4v8.2c0,1-.3,1.4-1,1.7-.7.2-1.8.3-3.7.3,0-.4-.4-1.1-.6-1.5,1.4,0,2.7,0,3.1,0,.4,0,.5-.1.5-.5v-8.2h-5.7v-1.5h5.7v-2.8c1.3-1,2.7-2.6,3.6-4.1h-8.2v-1.5h9.7c0,0,1.1.7,1.1.7-1.2,1.8-2.9,3.8-4.6,5.2v2.4h5.4v1.5Z"/>
        <path class="cls-1" d="M75.7,66.2h-5.2v1.9h-1.5v-17.5h6.7v15.6ZM70.5,52.1v5.5h3.7v-5.5h-3.7ZM74.2,64.8v-5.7h-3.7v5.7h3.7ZM83.8,53.4v3.3h5.3v1.4h-2.2v2.8h2.9v1.4h-2.9v6.7c0,1-.2,1.4-.9,1.7-.7.3-1.9.3-3.9.3,0-.4-.3-1.1-.5-1.5,1.5,0,2.9,0,3.3,0,.4,0,.5-.1.5-.5v-6.7h-9.2v-1.4h9.2v-2.8h-8.2v-1.4h5v-3.3h-6.1v-1.4h6.1v-3h1.6v3h6.1v1.4h-6.1ZM79.1,63.2c1.2,1.2,2.6,3,3.2,4.1l-1.4.9c-.6-1.2-1.9-3-3.1-4.2l1.3-.8Z"/>
        <path class="cls-1" d="M110.5,55.8c-2.2,4.2-5.9,7.6-9.9,9.7-.2-.3-.7-1-1-1.3,2.6-1.2,5-3,6.9-5.2-4.8.3-5.5.4-5.9.6,0-.3-.3-1.1-.5-1.5.4,0,.8-.5,1.4-1,.4-.5,1.7-2,2.7-3.6h-4.8v-1.5h6.3c-.3-.8-.8-1.9-1.3-2.7l1.4-.4c.7.9,1.3,2.2,1.6,3.1h-.1s5.2,0,5.2,0v1.5h-6.3c-1.1,1.6-2.3,3.1-3.5,4.4l5.1-.2c.5-.7,1-1.5,1.4-2.4l1.4.5ZM112.1,60.4c-1,1.7-2.1,3.2-3.5,4.6,1.4,1.2,3,2.7,3.9,3.7l-1.2,1c-.8-1-2.4-2.5-3.7-3.8-2.1,2-4.6,3.6-7.1,4.9-.2-.4-.7-1-1.1-1.3,4.6-2,8.8-5.4,11.2-9.7l1.5.6ZM115.6,65.1h-1.5v-13.3h1.5v13.3ZM120,49.3v19.5c0,1.1-.3,1.5-1,1.8-.7.3-1.9.3-3.9.3,0-.4-.3-1.1-.5-1.5,1.5,0,2.9,0,3.3,0,.4,0,.6-.1.6-.6v-19.5h1.6Z"/>
      </g>
    </g>
  </g>
</svg>