<svg xmlns="http://www.w3.org/2000/svg" xml:space="preserve" id="レイヤー_1" x="0" y="0" style="enable-background:new 0 0 142 36" version="1.1" viewBox="0 0 142 36"><style>.st0{fill:#fff}.st1{fill:#ef5a24}</style><path d="M0 31h142v5H0z" class="st0"/><path d="M142 32c-8-18-31.8-32-71-32S8 14 0 32" class="st0"/><path d="M43.8 15.5c.5 2.3-.8 4-3.5 4.6l-2.3.5.7 3-2 .4-2.3-10.2 4.2-1c2.7-.6 4.7.4 5.2 2.7zm-1.9.4c-.3-1.3-1.3-1.8-3-1.5l-2.2.5.9 4.1 2.2-.5c1.7-.4 2.4-1.3 2.1-2.6zM47 11.2l1.9-.3 1.5 10.4-1.9.3L47 11.2zM53.4 15.6c-.2-3.1 2-5.6 5.2-5.8 1.7-.1 3.2.4 4.3 1.4l-1.2 1.3c-.8-.8-1.8-1.1-2.9-1-2.2.2-3.6 1.8-3.4 4s1.9 3.6 4 3.4c1.1-.1 2-.6 2.7-1.5l1.3 1.1c-.9 1.2-2.3 1.9-4 2.1-3.2.2-5.8-1.9-6-5zM70.3 15.6l-1.7 1.7V20h-1.9V9.5h2v5.4l5.2-5.4h2.2l-4.4 4.7 4.7 5.8H74l-3.7-4.4zM84.9 15.9l.7-5.9 1.9.2-.7 5.8c-.3 2.1.6 3.2 2.3 3.4s2.7-.6 3-2.8l.7-5.8 1.9.2-.6 6c-.4 3-2.3 4.5-5.1 4.2-2.9-.4-4.4-2.2-4.1-5.3zM107.5 17.6c-.5 2.3-2.5 3.3-5.2 2.7l-2.3-.5-.7 3-1.9-.4L99.8 12l4.2 1c2.7.5 4 2.3 3.5 4.6zm-1.9-.5c.3-1.3-.4-2.2-2.1-2.6l-2.2-.5-.9 4.1 2.2.5c1.7.4 2.7-.2 3-1.5zM30.5 25l-6.6-7.2 1.9-1.6zM27.4 25.3 22 22.4l1.3-1.4zM111 25l6.6-7.2-1.9-1.6zM114.1 25.3l5.4-2.9-1.3-1.4zM71 26l1.2 3.8h4.1L73 32.2l1.3 3.8-3.3-2.4-3.3 2.4 1.3-3.8-3.3-2.4h4.1zM57 25.8l1.2 3.8h4.1L59 32l1.3 3.8-3.3-2.4-3.3 2.4L55 32l-3.3-2.4h4.1zM85 25.8l1.2 3.8h4.1L87 32l1.3 3.8-3.3-2.4-3.3 2.4L83 32l-3.3-2.4h4.1z" class="st1"/></svg>