<svg xmlns="http://www.w3.org/2000/svg" xml:space="preserve" style="enable-background:new 0 0 116 18" viewBox="0 0 116 18"><path d="M6.2 17.1c8.8-2.3 17.7-4.2 26.6-5.7 1.1-.2 2.2-.3 3.4-.5.5-.1 1-.1 1.4-.2.3 0 .6-.1 1-.1-.4.1-.3 0 .3 0 2.1-.3 4.2-.6 6.3-.7 1.9-.2 3.9-.2 5.8 0-.8-.1.1 0 .4.1.5.1.9.2 1.4.3s.9.3 1.3.5c-.9-.4.6.4.7.5l-2.1-5.1c-.3 1.5-.6 3-.9 4.6-.5 2.5 1.2 6.1 4.3 5.7 18.3-2.2 36.6-4.4 54.8-6.6 2.3-.3 4.6-1.9 4.5-4.5-.1-2.2-2-4.8-4.5-4.5-18.1 2-36.4 4.2-54.7 6.4 1.4 1.9 2.9 3.8 4.3 5.7.3-1.5.6-3 .9-4.6.4-2-.3-4-2.1-5.1C55.3 1 50.6.5 46 .8c-4.7.3-9.5 1.1-14.1 1.8C22.4 4 13 6 3.8 8.5 1.5 9.1-.1 11.7.6 14c.8 2.3 3.1 3.8 5.6 3.1z" style="fill:#fff"/></svg>