<svg xmlns="http://www.w3.org/2000/svg" xml:space="preserve" style="enable-background:new 0 0 410 12" viewBox="0 0 410 12"><path d="M2.9 11.7c27.8-1.5 55.6-2.3 83.3-3 29.8-.8 59.6-1.6 89.4-1.7 8.4 0 17.1-.4 25.4.5l-2.1-5.1c-1.2 1.1-2.3 2.3-3.5 3.4-1.8 1.8-.5 5.2 2.1 5.1 27.1-.6 54.2-1.3 81.3-1.9 27.1-.6 54.2-1.3 81.3-1.9 15.3-.4 30.6-.7 45.9-1.1 3.9-.1 3.9-6.1 0-6-27.1.6-54.2 1.3-81.3 1.9-27.1.6-54.2 1.3-81.3 1.9-15.3.4-30.6.7-45.9 1.1l2.1 5.1c1.2-1.1 2.3-2.3 3.5-3.4 2-2 .3-4.8-2.1-5.1-7.1-.8-14.5-.5-21.7-.5-13.2 0-26.3.2-39.4.4C108 2 76.1 2.9 44.2 4c-13.8.5-27.5 1-41.3 1.7-3.9.2-3.9 6.2 0 6z" style="fill:#fff"/></svg>