<svg xmlns="http://www.w3.org/2000/svg" xml:space="preserve" style="enable-background:new 0 0 184 12" viewBox="0 0 184 12"><path d="M3 12c12.2-1.4 24.4-2.2 36.6-3C52.7 8.2 65.8 7.4 79 7.3c2.4 0 4.9 0 7.3.1.8 0 1.7.1 2.5.2.2 0 .3 0 .5.1.6.1-.8-.2-.3 0 .2.1.5.1.7.1-.6-1.5-1.2-2.9-1.8-4.4l-1.5 3.3c-.9 1.9.1 4.6 2.6 4.5 23.9-1.3 47.7-2.6 71.6-3.9 6.8-.4 13.6-.7 20.4-1.1 1.6-.1 3-1.3 3-3 0-1.6-1.4-3.1-3-3-23.9 1.3-47.7 2.6-71.6 3.9-6.8.2-13.6.6-20.4 1 .9 1.5 1.7 3 2.6 4.5l1.5-3.3c.8-1.7.2-3.9-1.8-4.4-3.2-.8-6.9-.6-10.2-.6-5.8 0-11.6.2-17.3.4-14.1.6-28.3 1.5-42.4 2.6C15.3 4.8 9.1 5.3 3 6c-1.6.2-3 1.2-3 3 0 1.5 1.4 3.2 3 3z" style="fill:#fff"/></svg>