<svg xmlns="http://www.w3.org/2000/svg" xml:space="preserve" style="enable-background:new 0 0 246 12" viewBox="0 0 246 12"><path d="M3 11.7c16.4-1.4 32.8-2.2 49.2-3 17.7-.8 35.3-1.6 53-1.7 3.2 0 6.4 0 9.6.1 1.1 0 2.2.1 3.3.2.4 0 .8.1 1.3.1.8.1-.6-.2-.2 0 .1.1.3.1.5.1-.6-1.5-1.2-2.9-1.8-4.4-.7 1.1-1.4 2.3-2.1 3.4-1.1 1.9.3 4.6 2.6 4.5 32.1-1.3 64.1-2.6 96.2-3.9 9.1-.4 18.3-.7 27.4-1.1 1.6-.1 3-1.3 3-3 0-1.6-1.4-3.1-3-3-32.1 1.3-64.1 2.6-96.2 3.9-9.1.4-18.3.7-27.4 1.1.9 1.5 1.7 3 2.6 4.5.7-1.1 1.4-2.3 2.1-3.4.9-1.6.1-4-1.8-4.4-4.4-.9-9.1-.6-13.5-.6-7.8-.1-15.6.1-23.4.3C65.5 2 46.6 2.9 27.7 4 19.4 4.5 11.2 5 3 5.7c-1.6.1-3 1.3-3 3 0 1.5 1.4 3.1 3 3z" style="fill:#fff"/></svg>