<svg xmlns="http://www.w3.org/2000/svg" xml:space="preserve" style="enable-background:new 0 0 112 12" viewBox="0 0 112 12"><path d="M3.8 11.6c3.1-.6 6.2-1.1 9.2-1.5.2 0 1.4-.2.8-.1.5-.1.9-.1 1.4-.2 1.1-.1 2.1-.3 3.2-.4 2-.2 4.1-.5 6.1-.7C32.2 7.9 40 7.1 47.7 7c1.4 0 2.8 0 4.3.1.2 0 .5 0 .7.1.9.1-.6-.1.1 0 .4.1 1.6.5.4 0-.5-1.1-.9-2.3-1.4-3.4-.3 1.1-.6 2.3-.9 3.4-.5 1.7.9 4 2.9 3.8 18-1.7 36.1-3.3 54.2-5 1.6-.1 3-1.3 3-3 0-1.5-1.4-3.1-3-3-18.1 1.7-36.2 3.3-54.3 5 1 1.3 1.9 2.5 2.9 3.8.3-1.1.6-2.3.9-3.4.3-1.2-.2-2.9-1.4-3.4-2.1-.9-4.5-1-6.8-1-3.4 0-6.8.2-10.3.4C30.6 2 22.1 2.9 13.7 4 9.9 4.5 6 5 2.2 5.8.6 6.1-.3 8 .1 9.5c.5 1.7 2.1 2.4 3.7 2.1z" style="fill:#fff"/></svg>