<svg xmlns="http://www.w3.org/2000/svg" xml:space="preserve" style="enable-background:new 0 0 296 12" viewBox="0 0 296 12"><path d="M3 11.7c19.9-1.5 39.9-2.2 59.8-3 21.4-.8 42.8-1.6 64.3-1.7 3.9 0 7.8 0 11.7.1 1.3 0 2.7.1 4 .2.5 0 1 .1 1.6.1.2 0 .4.1.6.1.6 0-1-.1-.2 0L143 3c-.8 1.1-1.7 2.3-2.5 3.4-1.4 1.8.5 4.6 2.6 4.5 19.5-.6 38.9-1.3 58.4-1.9 19.4-.6 38.8-1.3 58.3-1.9 11-.4 22.1-.7 33.2-1.1 3.9-.1 3.9-6.1 0-6-19.6.6-39.1 1.3-58.7 1.9-19.4.6-38.8 1.3-58.2 1.9-11 .4-22.1.7-33.1 1.1.9 1.5 1.7 3 2.6 4.5.8-1.1 1.7-2.3 2.5-3.4 1.1-1.5 0-4.1-1.8-4.4-5.2-.8-10.7-.6-16.1-.6-9.4 0-18.8.2-28.2.4C79 2 56 2.9 33 4 23 4.5 13 5 3 5.7c-1.6.1-3 1.3-3 3 0 1.5 1.4 3.1 3 3z" style="fill:#fff"/></svg>