<?xml version="1.0" encoding="UTF-8"?>
<svg xmlns="http://www.w3.org/2000/svg" version="1.1" viewBox="0 0 73.2 9.2">
  <defs>
    <style>
      .cls-1 {
        fill: #607f7d;
      }
    </style>
  </defs>
  <!-- Generator: Adobe Illustrator 28.7.3, SVG Export Plug-In . SVG Version: 1.2.0 Build 164)  -->
  <g>
    <g id="_レイヤー_2">
      <g>
        <path class="cls-1" d="M5.5,2.6l-.7,2.5c0,.3-.1.5-.1.6s0,.1,0,.2c0,0,.1.1.2.1.4,0,.8-.3,1.2-.8s.6-1.1.6-1.8-.2-1.3-.7-1.8c-.5-.5-1.1-.7-1.9-.7s-1.8.4-2.5,1.1c-.7.8-1,1.7-1,2.7s.3,1.7.9,2.3c.6.6,1.3.9,2.3.9s1.3-.2,1.9-.6c.6-.4,1-.9,1.3-1.7h.2c-.3.8-.7,1.4-1.4,1.8-.6.4-1.4.6-2.1.6s-1.8-.3-2.5-1c-.7-.7-1-1.5-1-2.5s.4-2,1.1-2.8c.7-.8,1.6-1.1,2.7-1.1s1.6.3,2.1.8.8,1.2.8,2-.2,1.4-.6,2c-.4.6-.9.9-1.6.9s-.6-.2-.6-.6,0-.4,0-.6h0c-.6.7-1.1,1.1-1.6,1.1s-.4,0-.5-.3c-.1-.2-.2-.4-.2-.6,0-.6.3-1.2.8-1.9.5-.6,1-.9,1.5-.9s.6.2.7.6h0v-.4c.1,0,.8,0,.8,0ZM4.6,3.3c0-.2,0-.3-.1-.4,0-.1-.2-.2-.4-.2-.4,0-.7.3-1.1.9-.4.6-.6,1.2-.6,1.6s0,.3.1.4c0,.1.2.2.3.2.3,0,.5-.2.8-.5s.5-.7.6-1.1c.1-.4.2-.7.2-.9Z"/>
        <path class="cls-1" d="M8.9,1h1.9l1.2,3.8h0l1.2-3.8h1.9v.2h-.8v5h.8v.2h-2.5v-.2h.8V1.1h0l-1.6,5.3h-.2l-1.6-5.3h0v5.1h.8v.2h-1.8v-.2h.8V1.2h-.8v-.2Z"/>
        <path class="cls-1" d="M16,1h4.6v1.8c.1,0,0,0,0,0-.1-.6-.3-1-.5-1.3-.2-.2-.5-.4-.8-.4h-.4v5h1v.2h-2.9v-.2h1V1.2h-.4c-.3,0-.6.1-.8.4-.2.2-.4.7-.5,1.3h-.2v-1.8Z"/>
        <path class="cls-1" d="M25.3,7.4h-4.2v-.4h4.2v.4Z"/>
        <path class="cls-1" d="M26.7,6.2V1.2h-.8v-.2h2.5c.6,0,1,0,1.4.2.4.2.7.5,1,.9.3.5.4,1,.4,1.5s-.1,1.1-.4,1.5-.6.8-1,.9c-.4.2-.9.2-1.4.2h-2.5v-.2h.8ZM27.6,1.2v5h.7c.4,0,.7,0,.9-.1.2,0,.4-.2.6-.4.2-.2.3-.5.3-.9,0-.3,0-.8,0-1.4s0-1.2-.3-1.5c-.2-.3-.4-.5-.6-.6-.2,0-.6-.1-1-.1h-.7Z"/>
        <path class="cls-1" d="M34.3,4.6v-.4c0-.3,0-.6,0-.7,0-.1-.2-.2-.4-.2-.4,0-.7,0-.7.2s0,.1,0,.2c0,0,0,.1,0,.2s0,.2-.1.3c0,0-.2,0-.2,0s-.2,0-.3-.1,0-.2,0-.3c0-.2.1-.4.4-.5s.6-.2,1-.2.6,0,.8.1c.2,0,.3.2.3.3,0,.1,0,.3,0,.5v1.5c0,.2,0,.4,0,.4,0,0,0,0,.1,0,0,0,.2,0,.3-.2h0c0,.4-.3.6-.7.6s-.6-.2-.7-.6c-.3.4-.7.6-1.1.6s-.5,0-.7-.2-.2-.3-.2-.6c0-.7.7-1.1,2-1.1ZM34.3,5.2v-.4c-.5,0-.8,0-1,.2-.2.1-.2.3-.2.6s0,.3.1.4.2.1.3.1.3,0,.4-.2c.1-.1.2-.2.3-.3,0-.1,0-.3,0-.4Z"/>
        <path class="cls-1" d="M36.8,6.2V1.2h-.6v-.2h.6c.4,0,.6,0,.8,0v5.2h.6v.2h-1.9v-.2h.6Z"/>
        <path class="cls-1" d="M40,3.2v3h.5v.2h-1.9v-.2h.6v-2.7h-.6v-.2h.6c.3,0,.5,0,.8,0ZM39.2,1.6c0-.1,0-.2.1-.3,0,0,.2-.1.3-.1s.2,0,.3.1c0,0,.1.2.1.3s0,.2-.1.3c0,0-.2.1-.3.1s-.2,0-.3-.1c0,0-.1-.2-.1-.3Z"/>
        <path class="cls-1" d="M41.6,6.2V1.2h-.6v-.2h.6c.4,0,.6,0,.8,0v5.2h.6v.2h-1.9v-.2h.6Z"/>
        <path class="cls-1" d="M44.7,3.5l1.1,2.2,1-2.2h-.7v-.2h1.4v.2h-.5l-1.6,3.7c-.2.5-.4.9-.6,1.1-.2.2-.4.3-.6.3s-.3,0-.3-.1c0,0-.1-.2-.1-.3s0-.2.1-.3c0,0,.1-.1.2-.1s.2,0,.3.2.1.2.2.2c0,0,.1,0,.2-.2,0-.1.2-.4.4-.8l.3-.6-1.6-3.1h-.5v-.2h1.9v.2h-.6Z"/>
        <path class="cls-1" d="M47.2,6c0-.1,0-.3.1-.4s.2-.1.4-.1.3,0,.4.1c0,0,.1.2.1.4s0,.3-.1.4c0,.1-.2.2-.4.2s-.3,0-.4-.2c0-.1-.1-.2-.1-.4Z"/>
        <path class="cls-1" d="M53.3,1v1.6h-.2c-.2-1-.7-1.5-1.5-1.5s-.7.2-.9.5c-.2.3-.3,1-.3,2.1s0,1.5.1,1.8c0,.3.2.5.4.7.2.1.4.2.7.2s.6-.1.9-.4.5-.6.7-1.2h.2v1.6h-.2c0-.2-.2-.3-.3-.4-.4.4-.9.5-1.3.5s-1.1-.3-1.6-.8c-.5-.5-.7-1.2-.7-2s.2-1.5.7-2c.5-.6,1-.8,1.6-.8s.9.2,1.2.5c.1-.2.2-.3.2-.4h.2Z"/>
        <path class="cls-1" d="M54.4,4.8c0-.5.2-.9.5-1.2.3-.3.7-.5,1.2-.5s.9.2,1.2.5c.3.3.5.7.5,1.2s-.2.9-.5,1.2-.7.5-1.2.5-.8-.2-1.2-.5c-.3-.3-.5-.7-.5-1.2ZM56.8,4.8c0-.5,0-.8,0-1,0-.2-.1-.3-.2-.4-.1,0-.3-.1-.5-.1s-.4,0-.5.1-.2.2-.2.4c0,.2,0,.5,0,1s0,.8,0,1c0,.2.1.3.2.4.1,0,.3.1.5.1s.3,0,.5-.1c.1,0,.2-.2.2-.4,0-.2,0-.5,0-1Z"/>
        <path class="cls-1" d="M59,6.2v-2.7h-.7v-.2h.7c.3,0,.6,0,.8,0v.8h0c.2-.5.5-.8.8-.8s.3,0,.4.1c0,0,.1.2.1.4s0,.2-.1.3-.2.1-.3.1c-.2,0-.3-.1-.3-.3v-.2c0,0,0,0,0,0,0,0-.2.1-.3.4s-.2.6-.2,1.1v1.2h.7v.2h-2.1v-.2h.7Z"/>
        <path class="cls-1" d="M62.5,6.2v-2.7h-.6v-.2h.4c.4,0,.7,0,1,0v.8h0c.3-.5.7-.8,1.2-.8s.4,0,.6.2.3.3.3.4,0,.4,0,.8v1.7h.6v.2h-1.9v-.2h.5v-2c0-.3,0-.5,0-.6,0-.1-.1-.2-.3-.2-.3,0-.5.1-.7.4-.2.3-.3.6-.3,1.1v1.3h.5v.2h-1.9v-.2h.6Z"/>
        <path class="cls-1" d="M69.5,4.6h-2c0,.8,0,1.3.1,1.5.1.2.3.3.6.3.6,0,1-.3,1.2-1h.2c0,.4-.3.7-.5.9-.2.2-.5.3-.8.3-.4,0-.8-.2-1.1-.5-.3-.3-.5-.7-.5-1.2s.2-.9.5-1.2c.3-.3.7-.5,1.1-.5s.7.1.9.4c.3.3.4.6.4,1.1ZM67.5,4.4h1.2c0-.2,0-.3,0-.4,0-.4-.2-.6-.6-.6s-.3,0-.5.2c-.1.1-.2.2-.2.4v.5Z"/>
        <path class="cls-1" d="M70.8,6.2v-2.7h-.7v-.2h.7c.3,0,.6,0,.8,0v.8h0c.2-.5.5-.8.8-.8s.3,0,.4.1c0,0,.1.2.1.4s0,.2-.1.3-.2.1-.3.1c-.2,0-.3-.1-.3-.3v-.2c0,0,0,0,0,0,0,0-.2.1-.3.4s-.2.6-.2,1.1v1.2h.7v.2h-2.1v-.2h.7Z"/>
      </g>
    </g>
  </g>
</svg>