<?xml version="1.0" encoding="UTF-8"?>
<svg xmlns="http://www.w3.org/2000/svg" version="1.1" viewBox="0 0 165.1 39.7">
  <defs>
    <style>
      .cls-1 {
        fill: #607f7d;
      }
    </style>
  </defs>
  <!-- Generator: Adobe Illustrator 28.7.3, SVG Export Plug-In . SVG Version: 1.2.0 Build 164)  -->
  <g>
    <g id="_レイヤー_2">
      <g>
        <path class="cls-1" d="M12.2,8.3c0,.4,0,.8,0,1.2.3,1.6.9,3.1,2,3.8-.3.2-.6.7-.8,1-.8-.6-1.3-1.5-1.7-2.7-.3.9-.8,1.8-1.6,2.7-.1-.2-.4-.5-.7-.7v.2h-3.3v.4h-.9v-3.2c-.1.2-.3.3-.4.5,0-.2-.4-.6-.5-.8.5-.5,1-1.3,1.3-2h-.9v-2h2.1v2h-.9l.5.2c0,.2-.2.3-.2.5h.9c0-.2-.1-.3-.2-.5l.7-.2h-.3v-2h2.1v1.8c.5-1,.8-2.4.9-3.9l1.1.2c0,.4-.1.9-.2,1.3h2s.8.2.8.2c-.2,1-.4,2.2-.7,2.9l-.9-.3c.1-.4.3-1.1.4-1.7h-1.8c-.2.9-.5,1.8-.9,2.4-.2-.2-.7-.6-.9-.8,0,0,0-.1.1-.2h-1.6c.1.2.3.5.4.7h1.4v.8h-1.4v.4h1.2v.8h-1.2v.4h1.3v.8h-1.3v.5h1.3v.4c1.5-1.6,1.7-3.7,1.7-5.1v-.6h1.1v.7ZM5.7,6.1h-1.3v-.9h1.3v-.5h1v1.9h-1v-.5ZM5.5,8.1h.7v-.7h-.7v.7ZM7.2,10.3h-1v.4h1v-.4ZM7.2,11.4h-1v.4h1v-.4ZM6.2,13.1h1v-.5h-1v.5ZM8.6,6.6h-1.1v-1.9h1.1v.5h1.2v.9h-1.2v.5ZM8.1,8.1h.7v-.7h-.7v.7Z"/>
        <path class="cls-1" d="M21,9.5c-.2.9-.5,1.9-.8,2.7.2.1.4.2.6.4.7.4,1.7.5,2.9.5s3-.1,4.2-.3c-.1.3-.3.9-.4,1.3-.8,0-2.7.1-3.9.1s-2.2-.1-3-.5c-.4-.2-.8-.6-1-.6s-.6.7-.9,1.3l-.8-1.2c.4-.4.7-.8,1.1-1,.2-.5.4-1.2.6-1.8h-1.3c.2-.6.5-1.4.7-2.2h-.9v-1.1h2.4c-.2.7-.5,1.5-.7,2.3h.6s.5.1.5.1ZM19.2,6.8c-.1-.5-.4-1.2-.6-1.8l1.1-.3c.2.5.5,1.2.6,1.7l-1.1.4ZM23.6,10c0,.3,0,.8,0,1.1-1.7.5-2.1.6-2.3.8,0-.3-.3-.7-.5-.9.2-.1.4-.4.4-.8v-4.4c.7-.3,1.5-.7,2-1l.7.8h0c0-.1,3.3-.1,3.3-.1v5.2c0,.5,0,.8-.4,1-.3.2-.7.2-1.3.2,0-.3-.2-.8-.3-1,.4,0,.7,0,.8,0s.2,0,.2-.2v-4.2h-1.1v6.4h-1.1v-7c-.5.2-1,.5-1.5.6v3.9l1.2-.3Z"/>
        <path class="cls-1" d="M34.8,9.5c-.2,1-.6,2-1,2.8.1,0,.3.2.5.3.7.4,1.7.5,2.9.5s3-.1,4.2-.3c-.1.3-.3.9-.4,1.3-.9,0-2.7.1-3.9.1s-2.2-.1-3-.5c-.4-.2-.8-.6-1-.6s-.6.7-.8,1.3l-.8-1.2c.4-.5.9-.9,1.3-1.1.2-.5.5-1.1.6-1.7h-1.4c.2-.6.5-1.4.8-2.2h-1.1v-1.1h2.5c-.2.7-.5,1.5-.7,2.2h.8c0,0,.5.2.5.2ZM32.9,6.9c-.1-.5-.4-1.2-.6-1.7l1.1-.3c.2.5.4,1.2.6,1.7l-1.2.4ZM35.3,5.7h1.6c.1-.4.2-.7.2-1l1.5.2c-.1.3-.2.6-.4.8h2v2.9h-3.8v.6h4.2v3.2h-5.3v-6.7ZM36.5,6.7v.9h2.6v-.9h-2.6ZM36.5,10.2v1.2h3v-1.2h-3Z"/>
        <path class="cls-1" d="M46.6,11.6c0,1-.2,2-.4,2.6-.2-.1-.6-.2-.8-.3.2-.6.4-1.6.4-2.5h.9ZM55,13.1c-.1.2-.3.8-.3,1.1h-.6c-1,0-2-.3-2.7-1.3-.2.5-.4,1.1-.6,1.5-.2-.2-.5-.4-.8-.6v.6h-1v-4c-.1.1-.2.3-.3.4,0-.2-.2-.4-.4-.6,0,.3.1.6.2.9l-.8.2c0-.1,0-.3,0-.4-1.6.2-1.9.3-2.1.4,0-.2-.2-.7-.3-.9.2,0,.4-.3.7-.7.1-.2.3-.5.5-.9-.6,0-.9.1-1,.2,0-.2-.2-.7-.3-.9.2,0,.3-.3.5-.6.2-.3.7-1.5.9-2.6l1,.4c-.3.9-.7,1.9-1.1,2.6h.5c.2-.5.4-1,.6-1.5l.9.5c-.3.8-.7,1.6-1.2,2.3l.6-.2c.1.3.2.7.3,1.1.5-.7,1-1.8,1.3-2.7-.2.3-.4.6-.6.9-.1-.2-.4-.6-.6-.7.6-.7,1.1-1.8,1.3-2.6l1,.3c-.2.6-.5,1.3-.9,1.9l.8.2c-.2.5-.4,1-.6,1.5v5c.6-1.1.8-3.1.8-4.4h1.1c0,.8-.1,1.6-.3,2.4.2.4.4.7.6.9v-3.8h1.1v1.3h1.3v1h-1.3v2.1c.3,0,.5,0,.8,0h.8ZM47.4,11.5c.1.8.2,1.8.2,2.4h-.8c0-.5,0-1.5-.2-2.3h.7ZM47.6,9.9c0-.3-.1-.6-.2-.8-.2.3-.4.6-.6.9h.8ZM48.3,11.2c.2.6.4,1.5.5,2.1l-.7.2c0-.6-.3-1.4-.5-2.1l.7-.2ZM54.2,8.5c0-.3-.3-.7-.5-1.1-.2.5-.4.9-.6,1.2-.2-.1-.6-.3-.8-.4.2-.3.3-.6.5-.9l-.5.5c0-.2-.2-.4-.4-.6-.2.6-.4,1.2-.7,1.6-.2-.2-.6-.4-.8-.5.6-.9.9-2.4,1.1-3.5l1,.2c0,.4-.2.8-.3,1.3.2.3.5.6.7.9.3-.8.4-1.6.5-2.3h1c0,.6-.2,1-.3,1.5.3.6.7,1.3.9,1.8l-.8.6Z"/>
        <path class="cls-1" d="M68.1,9.6c-.5.8-1,1.6-1.7,2.3.3.8.6,1.3.9,1.3s.3-.5.4-1.7c.3.3.7.6,1,.7-.2,1.8-.6,2.3-1.5,2.3s-1.3-.6-1.8-1.6c-.6.5-1.2.9-1.9,1.3-.2-.3-.5-.7-.8-1,.8-.4,1.6-.9,2.3-1.5-.2-.8-.4-1.8-.5-2.8h-2.1v1.2c.5,0,1.1-.2,1.6-.3v1.1c0,0-1.6.3-1.6.3v1.8c0,.7-.1,1-.6,1.2-.4.2-1,.2-1.9.2,0-.3-.3-.9-.4-1.2.6,0,1.2,0,1.4,0,.2,0,.2,0,.2-.2v-1.5c-.7.1-1.3.3-1.8.4l-.3-1.2c.6,0,1.3-.2,2.1-.4v-1.4h-1.9v-1.2h1.9v-1.2c-.6,0-1.1.2-1.7.2,0-.3-.2-.8-.4-1,1.4-.2,3-.5,4.1-.9l.8,1c-.5.2-1.1.3-1.7.4v1.4h2c0-.9-.1-1.9-.1-2.8h1.3c0,1,0,1.9.1,2.8h2.8v1.2h-2.7c0,.6.2,1.2.3,1.7.4-.4.7-.9,1-1.4l1.1.5ZM67.3,7.3c-.3-.5-.9-1.2-1.5-1.7l.9-.6c.5.5,1.2,1.2,1.5,1.6l-1,.7Z"/>
        <path class="cls-1" d="M78.4,9.2h-1.8v5.1h-1.1V5.3c-.2.6-.4,1.2-.7,1.8v7.3h-1.2v-5.2c-.2.3-.4.6-.6.8,0-.3-.4-1-.6-1.3.8-1,1.6-2.5,2-4l1.1.3v.2c0,0,2.8,0,2.8,0v3.9ZM76.6,6.2v.6h.8v-.6h-.8ZM77.4,8.2v-.6h-.8v.6h.8ZM81.9,12.9c0,.7-.1,1-.6,1.2-.4.2-1.1.2-2,.2,0-.3-.2-.9-.4-1.2.6,0,1.3,0,1.5,0,.2,0,.3,0,.3-.3v-3.7h-1.9v-3.9h3.1v7.7ZM79.8,6.2v.6h.9v-.6h-.9ZM80.7,8.2v-.6h-.9v.6h.9Z"/>
        <path class="cls-1" d="M95.6,6.3s0,.4,0,.6c-.1,4.6-.2,6.3-.7,6.8-.3.4-.6.5-1,.6-.4,0-1,0-1.6,0,0-.3-.2-.9-.4-1.2.7,0,1.3,0,1.5,0s.3,0,.5-.2c.3-.3.4-1.9.5-5.5h-2.2c-.3.6-.6,1.2-.9,1.6-.2-.2-.5-.4-.8-.6v4.8h-2.8v.8h-1.1v-7.7h1.2c.1-.5.3-1.2.3-1.7l1.3.2c-.2.5-.4,1-.5,1.5h1.6v1.7c.6-.9,1.1-2.1,1.4-3.3l1.2.3c-.1.4-.2.9-.4,1.3h2.9ZM89.4,7.4h-1.6v1.7h1.6v-1.7ZM89.4,12.2v-2h-1.6v2h1.6ZM92.8,11.6c-.3-.6-.9-1.6-1.4-2.4l1-.5c.5.7,1.2,1.7,1.5,2.3l-1,.6Z"/>
        <path class="cls-1" d="M100.4,5.8h1.5v7.6h-1.5v-7.6Z"/>
        <path class="cls-1" d="M104.5,7.7h1.2v.8h.1c.5-.5,1.1-.9,1.9-.9,1.2,0,1.8.9,1.8,2.3v3.6h-1.5v-3.4c0-.9-.2-1.2-.8-1.2s-.8.2-1.2.6v4h-1.5v-5.8Z"/>
        <path class="cls-1" d="M111.4,12.8l.7-.9c.5.4,1,.6,1.5.6s.8-.2.8-.6-.6-.6-1.2-.9c-.7-.3-1.6-.7-1.6-1.7s.8-1.8,2.1-1.8,1.5.4,2,.7l-.7.9c-.4-.3-.8-.5-1.2-.5s-.8.2-.8.6.6.6,1.2.8c.8.3,1.6.7,1.6,1.7s-.8,1.8-2.3,1.8-1.6-.3-2.2-.8Z"/>
        <path class="cls-1" d="M117.9,11.4v-2.6h-.8v-1.1h.9c0,0,.2-1.6.2-1.6h1.3v1.5h1.4v1.2h-1.4v2.6c0,.7.3,1,.8,1s.4,0,.6-.1l.2,1.1c-.3.1-.7.2-1.2.2-1.4,0-1.9-.9-1.9-2.2Z"/>
        <path class="cls-1" d="M122.3,11.9c0-1.2,1-1.9,3.3-2.1,0-.6-.3-1-1-1s-1.1.2-1.6.5l-.5-1c.7-.4,1.5-.8,2.4-.8,1.5,0,2.2.9,2.2,2.5v3.4h-1.2v-.6h-.1c-.5.4-1.1.8-1.7.8-1,0-1.7-.7-1.7-1.7ZM125.6,11.8v-1.2c-1.4.2-1.9.6-1.9,1.1s.3.6.8.6.8-.2,1.1-.6Z"/>
        <path class="cls-1" d="M129.1,14.5c0-.5.3-.9.8-1.2h0c-.3-.2-.5-.5-.5-1s.3-.8.6-1.1h0c-.4-.3-.8-.9-.8-1.5,0-1.4,1.1-2.1,2.3-2.1s.6,0,.9.1h2.1v1.1h-1c.2.2.3.5.3.9,0,1.3-1,2-2.2,2s-.5,0-.7-.1c-.2.1-.2.3-.2.5s.2.5.9.5h1c1.4,0,2.1.4,2.1,1.4s-1.2,2.1-3.1,2.1-2.4-.5-2.4-1.5ZM133.2,14.1c0-.4-.3-.5-1-.5h-.7c-.4,0-.6,0-.8,0-.3.2-.4.4-.4.7,0,.5.5.8,1.4.8s1.5-.4,1.5-.8ZM132.5,9.6c0-.7-.4-1.1-.9-1.1s-.9.4-.9,1.1.4,1.1.9,1.1.9-.4.9-1.1Z"/>
        <path class="cls-1" d="M136.5,7.7h1.2v1h.1c.4-.8,1-1.2,1.6-1.2s.5,0,.7.1l-.3,1.3c-.2,0-.4,0-.6,0-.5,0-1,.3-1.3,1.1v3.4h-1.5v-5.8Z"/>
        <path class="cls-1" d="M141.2,11.9c0-1.2,1-1.9,3.3-2.1,0-.6-.3-1-1-1s-1.1.2-1.6.5l-.5-1c.7-.4,1.5-.8,2.4-.8,1.5,0,2.2.9,2.2,2.5v3.4h-1.2v-.6h-.1c-.5.4-1.1.8-1.7.8-1,0-1.7-.7-1.7-1.7ZM144.5,11.8v-1.2c-1.4.2-1.9.6-1.9,1.1s.3.6.8.6.8-.2,1.1-.6Z"/>
        <path class="cls-1" d="M148.4,7.7h1.2v.8h.1c.5-.5,1-.9,1.8-.9s1.3.4,1.6,1c.5-.6,1.1-1,1.8-1,1.2,0,1.8.9,1.8,2.3v3.6h-1.5v-3.4c0-.9-.3-1.2-.8-1.2s-.7.2-1.1.6v4h-1.5v-3.4c0-.9-.3-1.2-.8-1.2s-.7.2-1.1.6v4h-1.5v-5.8Z"/>
        <path class="cls-1" d="M159.3,12.6c0-.6.4-1,.9-1s.9.4.9,1-.4,1-.9,1-.9-.4-.9-1ZM159.6,7v-1.4c0,0,1.5,0,1.5,0v1.4c0,0-.3,3.8-.3,3.8h-1l-.2-3.8Z"/>
      </g>
      <g id="_レイヤー_2-2" data-name="_レイヤー_2">
        <g>
          <path class="cls-1" d="M13.6,26.4l-1.5,5.5c0,.7-.2,1.1-.2,1.3v.4s.2.2.4.2c.9,0,1.7-.7,2.6-1.7s1.3-2.4,1.3-3.9-.4-2.8-1.5-3.9-2.4-1.5-4.1-1.5-3.9.9-5.5,2.4c-1.5,1.7-2.2,3.7-2.2,5.9s.7,3.7,2,5c1.3,1.3,2.8,2,5,2s2.8-.4,4.1-1.3,2.2-2,2.8-3.7h.4c-.7,1.7-1.5,3.1-3.1,3.9-1.3.9-3.1,1.3-4.6,1.3s-3.9-.7-5.5-2.2c-1.5-1.5-2.2-3.3-2.2-5.5s.9-4.4,2.4-6.1c1.5-1.7,3.5-2.4,5.9-2.4s3.5.7,4.6,1.7c1.1,1.1,1.7,2.6,1.7,4.4s-.4,3.1-1.3,4.4-2,2-3.5,2-1.3-.4-1.3-1.3v-1.3h0c-1.3,1.5-2.4,2.4-3.5,2.4s-.9,0-1.1-.7c-.2-.4-.4-.9-.4-1.3,0-1.3.7-2.6,1.7-4.1,1.1-1.3,2.2-2,3.3-2s1.3.4,1.5,1.3h0v-.9h1.7l-.2-.2ZM11.6,27.9c0-.4,0-.7-.2-.9,0-.2-.4-.4-.9-.4-.9,0-1.5.7-2.4,2-.9,1.3-1.3,2.6-1.3,3.5s0,.7.2.9c0,.2.4.4.7.4.7,0,1.1-.4,1.7-1.1s1.1-1.5,1.3-2.4.4-1.5.4-2h.4Z"/>
          <path class="cls-1" d="M21,22.9h4.1l2.6,8.3h0l2.6-8.3h4.1v.4h-1.7v10.9h1.7v.4h-5.5v-.4h1.7v-11.1h0l-3.5,11.6h-.4l-3.5-11.6h0v11.1h1.7v.4h-3.9v-.4h1.7v-10.9h-1.7v-.4h-.2Z"/>
          <path class="cls-1" d="M36.5,22.9h10v3.9c.2,0,0,0,0,0-.2-1.3-.7-2.2-1.1-2.8-.4-.4-1.1-.9-1.7-.9h-.9v10.9h2.2v.4h-6.3v-.4h2.2v-10.7h-.9c-.7,0-1.3.2-1.7.9-.4.4-.9,1.5-1.1,2.8h-.4v-3.9l-.2-.2Z"/>
          <path class="cls-1" d="M56.8,36.9h-9.2v-.9h9.2v.9Z"/>
          <path class="cls-1" d="M59.9,34.3v-10.9h-1.7v-.4h5.5c1.3,0,2.2,0,3.1.4s1.5,1.1,2.2,2c.7,1.1.9,2.2.9,3.3s-.2,2.4-.9,3.3-1.3,1.7-2.2,2c-.9.4-2,.4-3.1.4h-5.5v-.4h1.7v.4ZM61.8,23.4v10.9h1.5c.9,0,1.5,0,2-.2.4,0,.9-.4,1.3-.9.4-.4.7-1.1.7-2v-3.1c0-1.3,0-2.6-.7-3.3-.4-.7-.9-1.1-1.3-1.3-.4,0-1.3-.2-2.2-.2h-1.5.2Z"/>
          <path class="cls-1" d="M76.5,30.8v-2.4c0-.2-.4-.4-.9-.4-.9,0-1.5,0-1.5.4v.9c0,.2,0,.4-.2.7h-.4s-.4,0-.7-.2,0-.4,0-.7c0-.4.2-.9.9-1.1s1.3-.4,2.2-.4,1.3,0,1.7.2c.4,0,.7.4.7.7v5.2h.2s.4,0,.7-.4h0c0,.9-.7,1.3-1.5,1.3s-1.3-.4-1.5-1.3c-.7.9-1.5,1.3-2.4,1.3s-1.1,0-1.5-.4-.4-.7-.4-1.3c0-1.5,1.5-2.4,4.4-2.4l.4.4ZM76.5,32.1v-.9c-1.1,0-1.7,0-2.2.4-.4.2-.4.7-.4,1.3s0,.7.2.9.4.2.7.2.7,0,.9-.4c.2-.2.4-.4.7-.7v-.9h.2Z"/>
          <path class="cls-1" d="M81.9,34.3v-10.9h-1.3v-.4h3.1v11.4h1.3v.4h-4.1v-.4h1.3-.2Z"/>
          <path class="cls-1" d="M88.9,27.7v6.6h1.1v.4h-4.1v-.4h1.3v-5.9h-1.3v-.4h3.1v-.2ZM87.2,24.2c0-.2,0-.4.2-.7,0,0,.4-.2.7-.2s.4,0,.7.2c0,0,.2.4.2.7s0,.4-.2.7c0,0-.4.2-.7.2s-.4,0-.7-.2c0,0-.2-.4-.2-.7Z"/>
          <path class="cls-1" d="M92.4,34.3v-10.9h-1.3v-.4h3.1v11.4h1.3v.4h-4.1v-.4h1.3-.2Z"/>
          <path class="cls-1" d="M99.2,28.4l2.4,4.8,2.2-4.8h-1.5v-.4h3.1v.4h-1.1l-3.5,8.1c-.4,1.1-.9,2-1.3,2.4-.4.4-.9.7-1.3.7s-.7,0-.7-.2c0,0-.2-.4-.2-.7s0-.4.2-.7c0,0,.2-.2.4-.2s.4,0,.7.4q.2.4.4.4s.2,0,.4-.4c0-.2.4-.9.9-1.7l.7-1.3-3.5-6.8h-1.1v-.4h4.1v.4h-1.3Z"/>
          <path class="cls-1" d="M104.6,33.8c0-.2,0-.7.2-.9s.4-.2.9-.2.7,0,.9.2c0,0,.2.4.2.9s0,.7-.2.9c0,.2-.4.4-.9.4s-.7,0-.9-.4c0-.2-.2-.4-.2-.9Z"/>
          <path class="cls-1" d="M118,22.9v3.5h-.4c-.4-2.2-1.5-3.3-3.3-3.3s-1.5.4-2,1.1-.7,2.2-.7,4.6,0,3.3.2,3.9c0,.7.4,1.1.9,1.5.4.2.9.4,1.5.4s1.3-.2,2-.9,1.1-1.3,1.5-2.6h.4v3.5h-.4c0-.4-.4-.7-.7-.9-.9.9-2,1.1-2.8,1.1s-2.4-.7-3.5-1.7-1.5-2.6-1.5-4.4.4-3.3,1.5-4.4c1.1-1.3,2.2-1.7,3.5-1.7s2,.4,2.6,1.1c.2-.4.4-.7.4-.9h.7Z"/>
          <path class="cls-1" d="M120.4,31.2c0-1.1.4-2,1.1-2.6s1.5-1.1,2.6-1.1,2,.4,2.6,1.1,1.1,1.5,1.1,2.6-.4,2-1.1,2.6-1.5,1.1-2.6,1.1-1.7-.4-2.6-1.1c-.7-.7-1.1-1.5-1.1-2.6ZM125.6,31.2v-2.2c0-.4-.2-.7-.4-.9-.2,0-.7-.2-1.1-.2s-.9,0-1.1.2-.4.4-.4.9v4.4c0,.4.2.7.4.9.2,0,.7.2,1.1.2s.7,0,1.1-.2c.2,0,.4-.4.4-.9v-2.2Z"/>
          <path class="cls-1" d="M130.4,34.3v-5.9h-1.5v-.4h3.3v1.7h0c.4-1.1,1.1-1.7,1.7-1.7s.7,0,.9.2c0,0,.2.4.2.9s0,.4-.2.7-.4.2-.7.2c-.4,0-.7-.2-.7-.7v-.4h0s-.4.2-.7.9-.4,1.3-.4,2.4v2.6h1.5v.4h-4.6v-.4h1.5l-.4-.4Z"/>
          <path class="cls-1" d="M138.1,34.3v-5.9h-1.3v-.4h3.1v1.7h0c.7-1.1,1.5-1.7,2.6-1.7s.9,0,1.3.4.7.7.7.9v5.5h1.3v.4h-4.1v-.4h1.1v-5.7c0-.2-.2-.4-.7-.4-.7,0-1.1.2-1.5.9-.4.7-.7,1.3-.7,2.4v2.8h1.1v.4h-4.1v-.4h1.3v-.4Z"/>
          <path class="cls-1" d="M153.3,30.8h-4.4c0,1.7,0,2.8.2,3.3.2.4.7.7,1.3.7,1.3,0,2.2-.7,2.6-2.2h.4c0,.9-.7,1.5-1.1,2-.4.4-1.1.7-1.7.7s-1.7-.4-2.4-1.1c-.7-.7-1.1-1.5-1.1-2.6s.4-2,1.1-2.6,1.5-1.1,2.4-1.1,1.5.2,2,.9c.7.7.9,1.3.9,2.4l-.2-.2ZM149,30.3h2.6v-.9c0-.9-.4-1.3-1.3-1.3s-.7,0-1.1.4c-.2.2-.4.4-.4.9v1.1l.2-.2Z"/>
          <path class="cls-1" d="M156.2,34.3v-5.9h-1.5v-.4h3.3v1.7h0c.4-1.1,1.1-1.7,1.7-1.7s.7,0,.9.2c0,0,.2.4.2.9s0,.4-.2.7-.4.2-.7.2c-.4,0-.7-.2-.7-.7v-.4h0s-.4.2-.7.9-.4,1.3-.4,2.4v2.6h1.5v.4h-4.6v-.4h1.5l-.4-.4Z"/>
        </g>
      </g>
    </g>
  </g>
</svg>