<?xml version="1.0" encoding="UTF-8"?>
<svg id="_レイヤー_2" data-name="レイヤー 2" xmlns="http://www.w3.org/2000/svg" width="27.52" height="27.52" viewBox="0 0 27.52 27.52">
  <defs>
    <style>
      .cls-1 {
        fill: #000;
        stroke-width: 0px;
      }
    </style>
  </defs>
  <g id="txt">
    <g>
      <path class="cls-1" d="M13.76,2.48c3.67,0,4.11.01,5.56.08,1.34.06,2.07.29,2.55.47.64.25,1.1.55,1.58,1.03.48.48.78.94,1.03,1.58.19.48.41,1.21.47,2.55.07,1.45.08,1.89.08,5.56s-.01,4.11-.08,5.56c-.06,1.34-.29,2.07-.47,2.55-.25.64-.55,1.1-1.03,1.58-.48.48-.94.78-1.58,1.03-.48.19-1.21.41-2.55.47-1.45.07-1.89.08-5.56.08s-4.11-.01-5.56-.08c-1.34-.06-2.07-.29-2.55-.47-.64-.25-1.1-.55-1.58-1.03-.48-.48-.78-.94-1.03-1.58-.19-.48-.41-1.21-.47-2.55-.07-1.45-.08-1.89-.08-5.56s.01-4.11.08-5.56c.06-1.34.29-2.07.47-2.55.25-.64.55-1.1,1.03-1.58.48-.48.94-.78,1.58-1.03.48-.19,1.21-.41,2.55-.47,1.45-.07,1.89-.08,5.56-.08M13.76,0c-3.74,0-4.21.02-5.67.08-1.46.07-2.46.3-3.34.64-.9.35-1.67.82-2.44,1.59-.76.76-1.24,1.53-1.59,2.44-.34.88-.57,1.88-.64,3.34-.07,1.47-.08,1.94-.08,5.67s.02,4.21.08,5.67c.07,1.46.3,2.46.64,3.34.35.9.82,1.67,1.59,2.44.76.76,1.53,1.24,2.44,1.59.88.34,1.88.57,3.34.64,1.47.07,1.94.08,5.67.08s4.21-.02,5.67-.08c1.46-.07,2.46-.3,3.34-.64.9-.35,1.67-.82,2.44-1.59.76-.76,1.24-1.53,1.59-2.44.34-.88.57-1.88.64-3.34.07-1.47.08-1.94.08-5.67s-.02-4.21-.08-5.67c-.07-1.46-.3-2.46-.64-3.34-.35-.9-.82-1.67-1.59-2.44-.76-.76-1.53-1.24-2.44-1.59-.88-.34-1.88-.57-3.34-.64-1.47-.07-1.94-.08-5.67-.08h0Z"/>
      <path class="cls-1" d="M13.76,6.69c-3.9,0-7.07,3.16-7.07,7.07s3.16,7.07,7.07,7.07,7.07-3.16,7.07-7.07-3.16-7.07-7.07-7.07ZM13.76,18.35c-2.53,0-4.59-2.05-4.59-4.59s2.05-4.59,4.59-4.59,4.59,2.05,4.59,4.59-2.05,4.59-4.59,4.59Z"/>
      <circle class="cls-1" cx="21.1" cy="6.41" r="1.65"/>
    </g>
  </g>
</svg>