<?xml version="1.0" encoding="UTF-8"?>
<svg id="_編集モード" data-name="編集モード" xmlns="http://www.w3.org/2000/svg" width="69.12" height="69.12" viewBox="0 0 69.12 69.12">
  <defs>
    <style>
      .cls-1 {
        fill: #fff;
        stroke-width: 0px;
      }
    </style>
  </defs>
  <path class="cls-1" d="M34.56,0C15.47,0,0,15.47,0,34.56s15.47,34.56,34.56,34.56,34.56-15.47,34.56-34.56S53.65,0,34.56,0ZM52.66,44.07c-4.84,5.57-15.66,12.36-18.13,13.4-2.46,1.04-2.1-.66-2-1.24.06-.35.33-1.98.33-1.98.08-.59.16-1.5-.08-2.09-.26-.64-1.28-.98-2.03-1.14-11.09-1.47-19.3-9.22-19.3-18.47,0-10.32,10.35-18.72,23.07-18.72s23.07,8.4,23.07,18.72c0,4.13-1.6,7.85-4.95,11.52h0Z"/>
  <g>
    <path class="cls-1" d="M49.93,38.51c.24,0,.44-.2.44-.44v-1.64c0-.24-.2-.44-.44-.44h-4.41v-1.7h4.41c.24,0,.44-.2.44-.44v-1.64c0-.24-.2-.44-.44-.44h-4.41v-1.7h4.41c.24,0,.44-.2.44-.44v-1.64c0-.24-.2-.44-.44-.44h-6.48c-.24,0-.44.2-.44.44h0v10.06h0c0,.25.2.45.44.45h6.48Z"/>
    <path class="cls-1" d="M25.96,38.51c.24,0,.44-.2.44-.44v-1.64c0-.24-.2-.44-.44-.44h-4.41v-7.99c0-.24-.2-.44-.44-.44h-1.64c-.24,0-.44.2-.44.44v10.06h0c0,.25.2.45.44.45h6.48Z"/>
    <rect class="cls-1" x="27.78" y="27.56" width="2.52" height="10.95" rx=".44" ry=".44"/>
    <path class="cls-1" d="M41,27.56h-1.64c-.24,0-.44.2-.44.44v5.98l-4.61-6.22s-.02-.03-.04-.05c0,0,0,0,0,0,0,0-.02-.02-.03-.03,0,0,0,0,0,0,0,0-.02-.01-.02-.02,0,0,0,0-.01,0,0,0-.02-.01-.02-.02,0,0,0,0-.01,0,0,0-.02,0-.02-.01,0,0,0,0-.01,0,0,0-.02,0-.03-.01,0,0,0,0-.01,0,0,0-.02,0-.03,0,0,0-.01,0-.02,0,0,0-.02,0-.03,0,0,0-.01,0-.02,0,0,0-.02,0-.02,0,0,0-.02,0-.02,0,0,0,0,0-.02,0h-1.63c-.24,0-.44.2-.44.44v10.07c0,.24.2.44.44.44h1.64c.24,0,.44-.2.44-.44v-5.98l4.61,6.23s.07.08.11.11c0,0,0,0,0,0,0,0,.02.01.03.02,0,0,0,0,.01,0,0,0,.01,0,.02.01,0,0,.01,0,.02,0,0,0,0,0,.01,0,0,0,.02,0,.03,0,0,0,0,0,0,0,.04,0,.08.02.12.02h1.63c.24,0,.44-.2.44-.44v-10.07c0-.24-.2-.44-.44-.44Z"/>
  </g>
</svg>