<?xml version="1.0" encoding="UTF-8"?>
<svg id="_レイヤー_2" data-name="レイヤー 2" xmlns="http://www.w3.org/2000/svg" width="30" height="30" viewBox="0 0 30 30">
  <defs>
    <style>
      .cls-1 {
        fill: #000;
      }

      .cls-1, .cls-2 {
        stroke-width: 0px;
      }

      .cls-2 {
        fill: #fff;
      }
    </style>
  </defs>
  <g id="txt">
    <g>
      <circle class="cls-1" cx="15" cy="15" r="15"/>
      <g>
        <path class="cls-2" d="M25,14.13c0-4.48-4.49-8.13-10.01-8.13s-10.01,3.65-10.01,8.13c0,4.02,3.56,7.38,8.37,8.02.33.07.77.22.88.49.1.25.07.65.03.91,0,0-.12.71-.14.86-.04.25-.2.99.87.54,1.07-.45,5.77-3.4,7.87-5.81h0c1.45-1.59,2.15-3.21,2.15-5Z"/>
        <g>
          <path class="cls-1" d="M21.67,16.71c.11,0,.19-.09.19-.19v-.71c0-.11-.09-.19-.19-.19h-1.91v-.74h1.91c.11,0,.19-.09.19-.19v-.71c0-.11-.09-.19-.19-.19h-1.91v-.74h1.91c.11,0,.19-.09.19-.19v-.71c0-.11-.09-.19-.19-.19h-2.81c-.11,0-.19.09-.19.19h0v4.37h0c0,.11.09.19.19.19h2.81Z"/>
          <path class="cls-1" d="M11.27,16.71c.11,0,.19-.09.19-.19v-.71c0-.11-.09-.19-.19-.19h-1.91v-3.47c0-.11-.09-.19-.19-.19h-.71c-.11,0-.19.09-.19.19v4.37h0c0,.11.09.19.19.19h2.81Z"/>
          <rect class="cls-1" x="12.06" y="11.96" width="1.09" height="4.75" rx=".19" ry=".19"/>
          <path class="cls-1" d="M17.79,11.96h-.71c-.11,0-.19.09-.19.19v2.6l-2-2.7s0-.01-.02-.02c0,0,0,0,0,0,0,0,0,0-.01-.01,0,0,0,0,0,0,0,0,0,0-.01,0,0,0,0,0,0,0,0,0,0,0-.01,0,0,0,0,0,0,0,0,0,0,0-.01,0,0,0,0,0,0,0,0,0,0,0-.01,0,0,0,0,0,0,0,0,0,0,0-.01,0,0,0,0,0,0,0,0,0,0,0-.01,0,0,0,0,0,0,0,0,0,0,0-.01,0,0,0,0,0-.01,0,0,0,0,0,0,0h-.71c-.11,0-.19.09-.19.19v4.37c0,.11.09.19.19.19h.71c.11,0,.19-.09.19-.19v-2.59l2,2.7s.03.04.05.05c0,0,0,0,0,0,0,0,0,0,.01,0,0,0,0,0,0,0,0,0,0,0,0,0,0,0,0,0,0,0,0,0,0,0,0,0,0,0,0,0,.01,0,0,0,0,0,0,0,.02,0,.03,0,.05,0h.71c.11,0,.19-.09.19-.19v-4.37c0-.11-.09-.19-.19-.19Z"/>
        </g>
      </g>
    </g>
  </g>
</svg>