<?xml version="1.0" encoding="UTF-8"?>
<svg xmlns="http://www.w3.org/2000/svg" version="1.1" viewBox="0 0 40 40">
  <defs>
    <style>
      .cls-1 {
        fill: #607f7d;
      }
    </style>
  </defs>
  <!-- Generator: Adobe Illustrator 28.7.3, SVG Export Plug-In . SVG Version: 1.2.0 Build 164)  -->
  <g>
    <g id="_レイヤー_2">
      <g id="btn">
        <g>
          <path class="cls-1" d="M20,3.6c5.3,0,6,0,8.1.1,2,0,3,.4,3.7.7.9.4,1.6.8,2.3,1.5s1.1,1.4,1.5,2.3c.3.7.6,1.8.7,3.7,0,2.1.1,2.7.1,8.1s0,6-.1,8.1c0,2-.4,3-.7,3.7-.4.9-.8,1.6-1.5,2.3s-1.4,1.1-2.3,1.5c-.7.3-1.8.6-3.7.7-2.1,0-2.7.1-8.1.1s-6,0-8.1-.1c-1.9,0-3-.4-3.7-.7-.9-.4-1.6-.8-2.3-1.5-.7-.7-1.1-1.4-1.5-2.3-.3-.7-.6-1.8-.7-3.7,0-2.1-.1-2.7-.1-8.1s0-6,.1-8.1c0-1.9.4-3,.7-3.7.4-.9.8-1.6,1.5-2.3.7-.7,1.4-1.1,2.3-1.5.7-.3,1.8-.6,3.7-.7,2.1,0,2.7-.1,8.1-.1M20,0c-5.4,0-6.1,0-8.2.1-2.1.1-3.6.4-4.8.9-1.3.5-2.4,1.2-3.5,2.3-1.1,1.1-1.8,2.2-2.3,3.5-.5,1.3-.8,2.7-.9,4.9C0,13.9,0,14.6,0,20s0,6.1.1,8.2c0,2.1.4,3.6.9,4.8.5,1.3,1.2,2.4,2.3,3.5,1.1,1.1,2.2,1.8,3.5,2.3,1.3.5,2.7.8,4.8.9,2.1,0,2.8.1,8.2.1s6.1,0,8.2-.1c2.1,0,3.6-.4,4.8-.9,1.3-.5,2.4-1.2,3.5-2.3,1.1-1.1,1.8-2.2,2.3-3.5.5-1.3.8-2.7.9-4.9,0-2.1.1-2.8.1-8.2s0-6.1-.1-8.2c0-2.1-.4-3.6-.9-4.8-.5-1.3-1.2-2.4-2.3-3.5-1.1-1.1-2.2-1.8-3.5-2.3-1.3-.5-2.7-.8-4.9-.9C26.1,0,25.4,0,20,0h0Z"/>
          <path class="cls-1" d="M20,9.7c-5.7,0-10.3,4.6-10.3,10.3s4.6,10.3,10.3,10.3,10.3-4.6,10.3-10.3-4.6-10.3-10.3-10.3ZM20,26.7c-3.7,0-6.7-3-6.7-6.7s3-6.7,6.7-6.7,6.7,3,6.7,6.7-3,6.7-6.7,6.7Z"/>
          <circle class="cls-1" cx="30.7" cy="9.3" r="2.4"/>
        </g>
      </g>
    </g>
  </g>
</svg>