<?xml version="1.0" encoding="UTF-8"?>
<svg xmlns="http://www.w3.org/2000/svg" version="1.1" viewBox="0 0 180.7 180.7">
  <defs>
    <style>
      .cls-1 {
        fill: #607f7d;
      }

      .cls-2 {
        fill: none;
        stroke: #607f7d;
        stroke-miterlimit: 10;
        stroke-width: .7px;
      }
    </style>
  </defs>
  <!-- Generator: Adobe Illustrator 28.7.3, SVG Export Plug-In . SVG Version: 1.2.0 Build 164)  -->
  <g>
    <g id="_レイヤー_2">
      <g id="txt">
        <path class="cls-2" d="M40,15.7c4.8-3.2,9.9-6,15.3-8.3s11-4.1,16.9-5.2c5.9-1.2,11.9-1.8,18.1-1.8s12.3.6,18.1,1.8,11.5,3,16.9,5.2c5.4,2.3,10.5,5.1,15.3,8.3s9.2,6.9,13.3,11c4.1,4.1,7.8,8.5,11,13.3,3.2,4.8,6,9.9,8.3,15.3,2.3,5.4,4.1,11,5.2,16.9,1.2,5.9,1.8,11.9,1.8,18.1s-.6,12.3-1.8,18.1-3,11.5-5.2,16.9c-2.3,5.4-5.1,10.5-8.3,15.3-3.2,4.8-6.9,9.2-11,13.3-4.1,4.1-8.5,7.8-13.3,11-4.8,3.2-9.9,6-15.3,8.3-5.4,2.3-11,4.1-16.9,5.2-5.9,1.2-11.9,1.8-18.1,1.8s-12.3-.6-18.1-1.8-11.5-3-16.9-5.2c-5.4-2.3-10.5-5.1-15.3-8.3-4.8-3.2-9.2-6.9-13.3-11s-7.8-8.5-11-13.3c-3.2-4.8-6-9.9-8.3-15.3-2.3-5.4-4.1-11-5.2-16.9s-1.8-11.9-1.8-18.1.6-12.3,1.8-18.1,3-11.5,5.2-16.9c2.3-5.4,5.1-10.5,8.3-15.3,3.2-4.8,6.9-9.2,11-13.3"/>
      </g>
      <g>
        <path class="cls-1" d="M65.6,138.3c-2.1,0-4.1-.7-5.6-2-2-1.7-3.2-4.2-3.2-6.8s1.2-4.3,2.3-5.9c1.1-1.7,3-4.5,3.3-7.8,0-.6,0-1.9-.1-3.5-.5-9.7-1.6-32.4,11.2-47.7.1-.1.3-.2.4-.2s.3,0,.4.1c.2.2.3.6,0,.8-12.5,14.9-11.4,37.3-10.9,46.8,0,1.7.1,2.9.1,3.6-.2,3.6-2.3,6.7-3.4,8.4-1.1,1.6-2.1,3.3-2.1,5.3s1,4.5,2.8,5.9c1.4,1.1,3.1,1.7,4.9,1.7s1,0,1.5-.1c3-.6,5.4-3,6-6.1.5-2.7-1-4.7-2.6-6.8-.3-.4-.6-.8-.8-1.1-3.1-4.5-3.6-10.7-3.2-20.7,0-.3.3-.6.6-.6.2,0,.3,0,.4.2.1.1.2.3.2.4-.3,9.7,0,15.8,3,20,.3.4.5.7.8,1.1,1.6,2.1,3.4,4.5,2.8,7.7-.6,3.5-3.4,6.3-6.9,7-.6.1-1.2.2-1.8.2Z"/>
        <path class="cls-1" d="M114.3,143.6c-3.7,0-7.2-1.4-9.8-4-2.8-2.7-4.3-6.3-4.3-10.2s1.4-7.2,4-9.9c.9-.9,1.4-2,1.4-3.2v-.2c0-2.4-2-4.4-4.4-4.4h-22.4c-2.4,0-4.4,2-4.4,4.4v.2c0,1.2.4,2.2,1.2,3,2.7,2.7,4.2,6.3,4.2,10.1,0,7.5-6.1,13.9-13.6,14.1-.2,0-.4,0-.6,0-3.7,0-7.2-1.4-9.8-4-2.8-2.7-4.3-6.3-4.3-10.2s1.4-7.2,4-9.9c.9-.9,1.4-2,1.4-3.2v-.2c0-2.4-2-4.4-4.4-4.4h-20.5c-.3,0-.6-.3-.6-.6s.3-.6.6-.6h20.5c3,0,5.5,2.5,5.5,5.5v.2c0,1.4-.6,2.9-1.7,4-2.4,2.4-3.7,5.7-3.7,9.1s1.4,6.9,4,9.4c2.4,2.3,5.7,3.6,9,3.6s.3,0,.5,0c6.9-.3,12.5-6.1,12.5-13,0-3.5-1.4-6.8-3.9-9.3-1-1-1.5-2.4-1.5-3.8v-.2c0-3,2.5-5.5,5.5-5.5h22.4c3,0,5.5,2.5,5.5,5.5v.2c0,1.4-.6,2.9-1.7,4-2.4,2.4-3.7,5.7-3.7,9.1s1.4,6.9,4,9.4c2.4,2.3,5.6,3.6,9,3.6s.3,0,.5,0c6.9-.3,12.5-6.1,12.5-13,0-3.5-1.4-6.8-3.9-9.3-1-1-1.5-2.4-1.5-3.8v-.2c0-3,2.5-5.5,5.5-5.5h21.3c.3,0,.6.3.6.6s-.3.6-.6.6h-21.3c-2.4,0-4.4,2-4.4,4.4v.2c0,1.2.4,2.3,1.2,3,2.7,2.7,4.2,6.3,4.2,10.1,0,7.5-6.1,13.9-13.6,14.1-.2,0-.4,0-.6,0Z"/>
        <path class="cls-1" d="M113.8,107.6c-2.7,0-5.2-1.3-6.8-3.4-1.6-2.1-2.2-4.8-1.7-7.4.5-2.3,2.1-3.9,3.5-5.3,1.5-1.4,4-3.7,4.9-6.9.2-.6.4-1.8.7-3.4,1.6-9.6,5.5-32,21.3-44.1.1,0,.2-.1.4-.1.2,0,.3,0,.5.2.2.3.1.6-.1.8-15.5,11.9-19.2,33.9-20.9,43.3-.3,1.7-.5,2.9-.7,3.5-1,3.5-3.7,6.1-5.2,7.5-1.4,1.3-2.8,2.7-3.2,4.7-.5,2.2,0,4.6,1.4,6.4,1.4,1.8,3.6,2.9,5.9,3h.2c3,0,5.8-1.9,7-4.6,1.1-2.5,0-4.8-1-7.2-.2-.5-.4-.9-.6-1.3-2.1-5-1.1-11.2,1.4-20.9,0-.3.3-.4.6-.4s0,0,.1,0c.3,0,.5.4.4.7-2.4,9.4-3.4,15.4-1.4,20.1.2.4.3.7.5,1.1h0c1.1,2.5,2.3,5.3,1,8.3-1.3,3.2-4.6,5.3-8,5.3h-.2Z"/>
      </g>
    </g>
  </g>
</svg>