<?xml version="1.0" encoding="UTF-8"?>
<svg xmlns="http://www.w3.org/2000/svg" version="1.1" viewBox="0 0 180.7 180.7">
  <defs>
    <style>
      .cls-1 {
        fill: #607f7d;
      }

      .cls-2 {
        fill: none;
        stroke: #607f7d;
        stroke-miterlimit: 10;
        stroke-width: .7px;
      }
    </style>
  </defs>
  <!-- Generator: Adobe Illustrator 28.7.3, SVG Export Plug-In . SVG Version: 1.2.0 Build 164)  -->
  <g>
    <g id="_レイヤー_2">
      <g id="txt">
        <path class="cls-2" d="M40,15.7c4.8-3.2,9.9-6,15.3-8.3s11-4.1,16.9-5.2c5.9-1.2,11.9-1.8,18.1-1.8s12.3.6,18.1,1.8,11.5,3,16.9,5.2c5.4,2.3,10.5,5.1,15.3,8.3s9.2,6.9,13.3,11c4.1,4.1,7.8,8.5,11,13.3,3.2,4.8,6,9.9,8.3,15.3,2.3,5.4,4.1,11,5.2,16.9,1.2,5.9,1.8,11.9,1.8,18.1s-.6,12.3-1.8,18.1-3,11.5-5.2,16.9c-2.3,5.4-5.1,10.5-8.3,15.3-3.2,4.8-6.9,9.2-11,13.3s-8.5,7.8-13.3,11c-4.8,3.2-9.9,6-15.3,8.3-5.4,2.3-11,4.1-16.9,5.2-5.9,1.2-11.9,1.8-18.1,1.8s-12.3-.6-18.1-1.8-11.5-3-16.9-5.2c-5.4-2.3-10.5-5.1-15.3-8.3-4.8-3.2-9.2-6.9-13.3-11s-7.8-8.5-11-13.3c-3.2-4.8-6-9.9-8.3-15.3-2.3-5.4-4.1-11-5.2-16.9-1.2-5.9-1.8-11.9-1.8-18.1s.6-12.3,1.8-18.1,3-11.5,5.2-16.9c2.3-5.4,5.1-10.5,8.3-15.3,3.2-4.8,6.9-9.2,11-13.3"/>
      </g>
      <g>
        <path class="cls-1" d="M111.2,88.4c-2.1,0-4.1-.5-5.7-1.5-.2-.1-.3-.4-.2-.6,0-.1.2-.2.4-.2s.2,0,.2,0c1.5.9,3.2,1.4,5.2,1.4s.7,0,1.1,0c2.3-.2,4.4-1.1,5.9-2.4,1-.9,2.2-1.3,3.5-1.3s1.7.2,2.5.6l.8.4c.1,0,.2.2.2.3,0,.1,0,.2,0,.4,0,.2-.2.3-.4.3s-.1,0-.2,0l-.8-.4c-.7-.3-1.4-.5-2.1-.5-1.1,0-2.1.4-2.9,1.1-1.7,1.5-4,2.5-6.5,2.7-.4,0-.8,0-1.1,0Z"/>
        <path class="cls-1" d="M121.1,88.7c-.1,0-.3,0-.4-.2-.7-1-1.9-1.5-3.2-1.5s-.4,0-.6,0h0c-.3,0-.5-.2-.5-.4,0-.3.1-.5.4-.5.3,0,.5,0,.8,0,1.6,0,3,.7,3.9,1.9.2.2.1.5,0,.7,0,0-.2,0-.3,0Z"/>
        <path class="cls-1" d="M105.3,76.5c0,0-.1,0-.2,0-.1,0-.2-.1-.2-.3,0-.1,0-.2,0-.4,1.4-3.2,5.4-5.1,10.9-5.1s5.5.4,8.5,1.2c.2,0,.4.3.3.6,0,.2-.2.3-.5.3s0,0-.1,0c-2.9-.8-5.6-1.2-8.2-1.2-5.2,0-8.8,1.6-10.1,4.5,0,.2-.2.3-.4.3Z"/>
        <path class="cls-1" d="M82.2,88.4c-.4,0-.8,0-1.1,0-2.5-.2-4.8-1.2-6.5-2.7-.8-.7-1.8-1.1-2.9-1.1s-1.5.2-2.1.5l-.8.4c0,0-.1,0-.2,0-.2,0-.3,0-.4-.3-.1-.2,0-.5.2-.6l.8-.4c.8-.4,1.6-.6,2.5-.6,1.3,0,2.6.5,3.5,1.3,1.5,1.4,3.6,2.3,6,2.5.4,0,.7,0,1.1,0,1.9,0,3.7-.5,5.2-1.4,0,0,.2,0,.2,0,.2,0,.3,0,.4.2.1.2,0,.5-.2.6-1.6,1-3.6,1.5-5.7,1.5Z"/>
        <path class="cls-1" d="M72.3,88.7c-.1,0-.2,0-.3,0-.2-.2-.2-.4,0-.7.9-1.2,2.4-1.9,3.9-1.9s.5,0,.8,0c.1,0,.2,0,.3.2,0,.1.1.2,0,.3,0,.2-.2.4-.5.4-.3,0-.5,0-.7,0-1.3,0-2.5.6-3.2,1.5,0,.1-.2.2-.4.2Z"/>
        <path class="cls-1" d="M88.1,76.5c-.2,0-.4-.1-.4-.3-1.3-2.9-5-4.5-10.1-4.5s-5.3.4-8.2,1.2c0,0,0,0-.1,0-.2,0-.4-.1-.4-.3,0-.1,0-.2,0-.4,0-.1.2-.2.3-.2,3-.8,5.8-1.2,8.5-1.2,5.5,0,9.5,1.8,10.9,5.1,0,.1,0,.2,0,.4,0,.1-.1.2-.2.3,0,0-.1,0-.2,0Z"/>
        <path class="cls-1" d="M96.7,120.7c-3.9,0-7.6-2.1-9.5-5.5,0-.1,0-.3,0-.5,1.3-2.2,3.3-4,5.8-4.8.4-.1.7-.2,1.1-.2.6,0,1.2.2,1.7.5.3.2.6.2.9.2s.7,0,.9-.2c.5-.3,1.1-.5,1.7-.5s.8,0,1.1.2c2.4.9,4.5,2.6,5.8,4.8,0,.1,0,.3,0,.5-2,3.4-5.6,5.5-9.5,5.5ZM94.1,110.7c-.3,0-.5,0-.8.1-2.1.8-3.9,2.2-5.1,4.1h0c0,.1,0,.3,0,.3,1.8,2.9,5.1,4.7,8.5,4.7s6.7-1.8,8.5-4.7h0c0-.1,0-.3,0-.3-1.2-1.9-3-3.3-5.1-4.1-.3,0-.5-.1-.8-.1-.4,0-.9.1-1.3.4-.4.2-.9.4-1.4.4s-1-.1-1.4-.4c-.4-.2-.8-.3-1.3-.3Z"/>
        <path class="cls-1" d="M96.7,105.5c-1.5,0-2.9-.6-4-1.7,0,0-.1-.2-.1-.3s0-.2.1-.3.2-.1.3-.1.2,0,.3.1c.9.9,2.1,1.4,3.4,1.4s2.5-.5,3.4-1.4.2-.1.3-.1.2,0,.3.1c0,0,.1.2.1.3s0,.2-.1.3c-1.1,1.1-2.5,1.7-4,1.7Z"/>
        <path class="cls-1" d="M95.1,133.4c-2.7,0-5.2-1-7.1-2.8l-16.3-15.2c-5.2-4.9-8.2-11.7-8.2-18.9v-28.1c0-.3.2-.5.5-.5s.5.2.5.5v28.1c0,6.9,2.9,13.5,7.9,18.2l16.3,15.2c1.8,1.6,4.1,2.6,6.5,2.6h3.3c2.4,0,4.7-.9,6.5-2.6l16.3-15.2c0,0,.2-.1.3-.1s.3,0,.3.1c.2.2.2.5,0,.7l-16.3,15.2c-1.9,1.8-4.5,2.8-7.1,2.8h-3.3Z"/>
        <path class="cls-1" d="M129.5,97c-.3,0-.5-.2-.5-.5v-26.9c0-.3.2-.5.5-.5s.5.2.5.5v26.9c0,.3-.2.5-.5.5Z"/>
        <path class="cls-1" d="M133.7,107.4c0,0-.1,0-.2,0-.1,0-.2-.1-.2-.3,0-.1,0-.2,0-.4,3.5-7.1,4.5-15.2,2.8-22.9-1.7-7.7-6-14.7-12.1-19.5-3.3-2.6-15.4-11.8-15.9-12.2,0,0-.2-.2-.2-.3s0-.2,0-.3c0-.1.2-.2.4-.2s.2,0,.3,0h.1c3,2.4,12.8,9.9,15.7,12.2,6.3,5,10.7,12.1,12.4,20.1,1.7,7.9.7,16.2-2.9,23.5,0,.2-.2.3-.4.3Z"/>
        <path class="cls-1" d="M61.7,144c-.2,0-.4,0-.5,0-.1,0-.2,0-.3-.2,0,0-.1-.2-.1-.3,0-.2.2-.4.5-.4.2,0,.4,0,.5,0,4,0,7.1-2.9,8-4.2,4.9-7.9-3.4-17.3-12.3-27.3-1.7-1.9-3.4-3.9-5.1-5.8h0c-5.3-6.7-6.7-15.5-3.7-23.5,2.9-8,9.6-13.8,18-15.5l19.5-4c10.5-1.9,18.5-6.4,23.7-13.2,1.9-2.5,3.9-7.8,3.9-7.8,0-.2.2-.3.4-.3s.1,0,.2,0c.1,0,.2.1.3.2,0,.1,0,.2,0,.4,0,.2-2,5.5-4,8.1-5.4,7-13.6,11.6-24.3,13.6l-19.5,4c-8,1.7-14.5,7.2-17.3,14.9-2.8,7.7-1.5,16.1,3.6,22.5,1.7,2,3.4,3.9,5,5.8,9.1,10.3,17.7,20,12.4,28.5-.9,1.5-4.4,4.6-8.7,4.6Z"/>
        <path class="cls-1" d="M122.9,144.8c-.2,0-.3,0-.4-.2-4-5.7-6.2-12.4-6.2-19.3v-5.1c0-.3.2-.5.5-.5s.5.2.5.5v5.1c0,6.8,2.1,13.3,6,18.8,0,.1.1.2,0,.3,0,.1,0,.2-.2.3,0,0-.2,0-.3,0Z"/>
        <path class="cls-1" d="M47.6,71.3c-.2,0-.4-.2-.5-.4-1.6-8.9.5-17.8,5.6-24.3,0-.1.2-.2.4-.2s.2,0,.3,0c0,0,.2.2.2.3,0,.1,0,.2,0,.3-5,6.4-7,15-5.4,23.6,0,.3-.1.5-.4.5,0,0,0,0,0,0Z"/>
        <path class="cls-1" d="M51,72.1s0,0,0,0c-.1,0-.2,0-.3-.2,0-.1,0-.2,0-.3.4-2.2,1.1-4.4,1.9-6.4,0-.2.2-.3.4-.3s.1,0,.2,0c.1,0,.2.1.3.3,0,.1,0,.2,0,.4-.8,2-1.5,4.1-1.9,6.3,0,.2-.2.4-.5.4Z"/>
        <path class="cls-1" d="M84.2,56.8c-.2,0-.4-.2-.5-.4,0-.1,0-.2,0-.3,0-.1.2-.2.3-.2,4.8-.9,8.9-2.9,12.2-5.8,0,0,.2-.1.3-.1s.3,0,.3.2c0,0,.1.2.1.3,0,.1,0,.2-.2.3-3.4,3.1-7.6,5.1-12.6,6,0,0,0,0,0,0Z"/>
        <path class="cls-1" d="M99.6,47.6c-.1,0-.2,0-.3,0,0,0-.2-.2-.2-.3,0-.1,0-.2,0-.3.6-.8,1.2-1.7,1.7-2.6,0-.1.2-.2.4-.2s.2,0,.2,0c.2.1.3.4.2.6-.5.9-1.1,1.8-1.8,2.7,0,.1-.2.2-.4.2Z"/>
        <path class="cls-1" d="M63.7,138.2c-.3,0-.4-.3-.4-.5.7-5.4-3.6-10.1-12.9-14.2l-8.5-3.7c-6.3-2.8-8.5-7.2-9.2-10.4,0-.3,0-.5.3-.6,0,0,0,0,.1,0,.2,0,.4.1.5.4,1,4.3,4,7.7,8.7,9.8l8.5,3.7c9.7,4.2,14.3,9.3,13.5,15.2,0,.2-.2.4-.5.4s0,0,0,0Z"/>
        <path class="cls-1" d="M130.5,117.5c-.1,0-.2,0-.3,0l-5.9-4.5c-.1,0-.2-.2-.2-.3,0-.1,0-.3.1-.4l4.6-4.9c0,0,.2-.1.3-.1.1,0,.3,0,.4.2l5,5.6c0,0,.1.2.1.3,0,.1,0,.2-.2.3,0,0-.2.1-.3.1s-.3,0-.3-.2l-4.6-5.2-3.9,4.2,5.5,4.2c.2.2.2.5,0,.7,0,.1-.2.2-.4.2Z"/>
        <path class="cls-1" d="M124.6,113s0,0-.1,0l-14.6-3.6c-.2,0-.4-.2-.4-.5,0-4.1,1.6-8,4.3-11,2.7-3,6.5-4.8,10.5-5.1h0c.2,0,.4.1.5.3l4.7,14.3c0,.1,0,.2,0,.4,0,.1-.2.2-.3.2,0,0,0,0-.1,0-.2,0-.4-.1-.4-.3l-4.6-14h-.2c-3.6.5-6.9,2.2-9.3,4.8-2.5,2.7-3.9,6.1-4.1,9.8v.2s14.2,3.5,14.2,3.5c.3,0,.4.3.3.6,0,.2-.2.4-.5.4Z"/>
        <path class="cls-1" d="M113.6,110.2c-.1,0-.2,0-.3-.2,0,0-.1-.2-.1-.3.3-3.4,1.6-6.5,3.8-9.1,0-.1.2-.2.4-.2s.2,0,.3.1c.2.2.2.5,0,.7-2.1,2.4-3.3,5.4-3.6,8.5,0,.2-.2.4-.5.4h0Z"/>
        <path class="cls-1" d="M119.8,99.1c-.1,0-.3,0-.4-.2,0,0-.1-.2,0-.3,0-.1,0-.2.2-.3.2-.2.5-.4.8-.5,0,0,.2,0,.3,0,.2,0,.3,0,.4.2.1.2,0,.5-.1.6-.2.2-.5.3-.7.5,0,0-.2,0-.3,0Z"/>
        <path class="cls-1" d="M126.8,110.5c-.2,0-.4-.1-.4-.3l-2.1-6.2c0-.2,0-.5.3-.6,0,0,0,0,.1,0,.2,0,.4.1.4.3l2.1,6.2c0,.1,0,.2,0,.4,0,.1-.2.2-.3.2,0,0,0,0-.1,0Z"/>
        <path class="cls-1" d="M140.9,127.2c-.1,0-.2,0-.3-.1l-10.8-10c-.2-.2-.2-.5,0-.7l3.6-3.9c0,0,.2-.1.3-.1h0c.1,0,.2,0,.3.1l7.1,6.6c0,0,.1.2.1.3,0,.1,0,.2-.1.3,0,0-.2.1-.3.1s-.2,0-.3-.1l-6.8-6.3-3,3.2,10.4,9.7c0,0,.1.2.1.3,0,.1,0,.2-.1.3,0,0-.2.1-.3.1Z"/>
      </g>
    </g>
  </g>
</svg>