<?xml version="1.0" encoding="UTF-8"?>
<svg xmlns="http://www.w3.org/2000/svg" version="1.1" viewBox="0 0 354 310.4">
  <defs>
    <style>
      .cls-1 {
        fill: #fff;
      }
    </style>
  </defs>
  <!-- Generator: Adobe Illustrator 28.7.3, SVG Export Plug-In . SVG Version: 1.2.0 Build 164)  -->
  <g>
    <g id="_レイヤー_2">
      <g>
        <path class="cls-1" d="M125.7,163.7s-5.4,6.1-11.4,9.1c-6,3-5.4-5.1-5.4-5.4,0,0,0-.2,0-.2,0-.9-.1-1.8-.4-2.7,0-.2-.2-.3-.5-.2,0,0,0,0,0,0-2.2.7-3.9,2-5.4,3.6-1.5,1.5-2.8,3.1-3.9,4.9-1.7,3-3.1,6.2-4.4,9.4-.3.6-.5,1.2-.7,2-.1.5-.3,1-.5,1.5-1,2.7-2.3,6.2-3.7,9.7-.3.8-.9,1.5-1.5,2-.2.1-.4.2-.6.3-.6.1-1.4.1-2-.2-.8-.5-1.1-1.6-1.1-2.2,0-.7.3-1.4.5-2h0c.2-.5.3-.9.5-1.3.5-1.4,1.1-2.7,1.7-4.1,2-4.1,2.9-8.6,3.6-12.8v-.4c.4-2,.7-3.9-.3-5.7-.3-.6-.7-1.6-.3-2.5.6-1.5,1.6-1.6,2.4-1.9.8-.2,1.7-.2,2.7.1,1.8.6,2.2,3.3,1.9,4.8,0,.1,0,.3,0,.4.5-.7,1-1.3,1.5-2,1.6-1.9,3.3-3.7,5-5.4.7-.7,1.7-1.4,2.9-1.9.2,0,.5-.2.7-.2,1.2-.3,2.4-.2,3.3.4,1,.6,1.7,1.6,2,2.9.2.9.3,1.8.4,2.6h0c0,.4,0,.7,0,1.1h0c0,.9.4,1.9,1.5,2.4,1.3.6,10-5.4,11-6.4,1-1,.5.3.5.3Z"/>
        <path class="cls-1" d="M163.7,149.2c.3.1.6.4.6.8,0,.1,0,.3,0,.4,0,.3,0,.7,0,1.1-.5,6.1-2,10.2-5.4,17.3-1.3,2.7-2.8,5.5-5.2,7.7-1.1,1-2.7,2.3-4.4,2.8,0,0-.1,0-.2,0-3.7,1-6.8-.9-8.2-4.9-1-2.9-1.4-6.1-1.1-9.7,0,0,0,0,0-.1-1.9,4.2-3.9,8.2-6.6,12-1.4,2-2.8,3.5-4.6,4.7-.6.3-1.2.6-1.8.8-2.7.7-5.2-.6-6.4-3.4-.8-2-1.1-4.1-.7-6.4,1-6.3,3.8-11.6,8.4-15.9,1.9-1.7,4-2.9,6.3-3.5,1.8-.5,3.7-.6,5.7-.4,1.5.2,3.2.5,4.6,2,.2.2.3.5.2.8,0,.2-.1.5-.2.7-.1.5-.3,1.1-.4,1.6-1.1,4.9-1.3,9.3-.7,13.6.3,1.8.9,3.3,1.9,4.5.9,1.1,1.9,1.5,2.9,1.2.3,0,.7-.3,1.1-.5,1.4-1,2.7-2.1,3.7-3.2,3.3-4,5.7-9,7.5-15.7.5-1.8.8-3.7,1.1-5.6.1-.9,0,.2.1-.6,0-.5.2-1.2.8-1.8.1-.1.3-.2.4-.3.2,0,.3,0,.5,0h0ZM139,157.6c-.8-.5-1.6-.6-2.4-.4l-.7.2c-1.5.4-3,.8-4.2,1.6-4.2,2.6-7.2,6.6-8.7,11.9-.5,1.7-.5,3.4-.1,5.1.3,1.3.9,2.2,1.6,2.6.4.3,1,.3,1.5.2h0c.6-.2,1.2-.5,1.9-1.1,1.1-.9,2.1-2.1,3.1-3.6,1-1.4,1.9-3,2.7-4.7,1.4-2.9,2.7-5.8,4-8.8.4-1,.9-2,1.3-3Z"/>
        <path class="cls-1" d="M200.9,92.1c1,1.4.6,2.4.3,3.1,0,0,0,.1,0,.2-.5,1.6-1.1,3.1-1.6,4.7-1.6,4.6-3.2,9.4-5,14.1-.4.9-.7,1.9-1.1,2.8-5.4,14.1-10.9,28.7-8.9,44.1.3,2.3,1.2,4.2,2.5,6.1.9,1.2,1.5,2.1.8,3.6-2.1,3.8-5.4.6-6.4-4.5-1.9-10.2.9-22.9.9-23.2l-2,3.8c-.5.9-.9,1.8-1.4,2.7-1.2,2.3-2.4,4.7-3.7,7.1-2.2,4.1-4.3,7.7-6.3,10.9-1,1.6-2.3,3.2-3.9,4.6-.6.6-1.3,1-1.9,1.1-1.7.5-3.3-.5-4-2.6-.4-1.2-.6-2.6-.5-4,.8-8.8,4.4-16.3,10.6-22.1,1.9-1.8,3.9-2.9,6.1-3.5,1.6-.4,3.2-.5,4.9-.3l3.8-8.5,2.8-7.1c3.6-9.9,7.4-20.3,11.3-30.9.2-.5.4-.9.7-1.4.1-.2.3-.5.4-.7.1-.2.3-.4.5-.4,0,0,.1,0,.2,0,.3,0,.6.1.8.4h0ZM177.9,145.7s0,0-.3,0c-.3,0-.6,0-.8,0,0,0-.2,0-.2,0-.3.2-.7.3-1,.5-1.1.5-2.1,1-2.9,1.6-6.1,5.2-9.5,11.9-10,19.8,0,.6,0,1.2.2,1.9,0,0,0,.2,0,.3,0,0,0,0,0,0,.5-.3.9-.5,1.2-.8,1.1-1.2,2.4-2.6,3.5-4.2,3.4-4.9,6.1-10.3,8.7-15.6l.5-1.1c.4-.7.7-1.4,1-2.2,0-.2,0-.4,0-.4Z"/>
        <path class="cls-1" d="M246,127.6c.4.2.6.6.5,1,0,.1,0,.3-.1.4,0,.3-.2.7-.3,1-3,8.1-6.4,13.8-12.1,21-1.4,1.8-3.4,4.1-6.2,5.5-.6.3-1.2.6-1.8.7-3.3.9-6.4-.6-8-3.9-1-1.9-1.4-3.9-1.2-5.9.1-1.5.3-3,.5-4.5-2.5,4.4-5.3,8.9-8.6,13-1.8,2.2-3.9,4.5-6.8,5.8-.5.2-1,.4-1.5.5-4,1.1-7.5-1-8.7-5.1-.6-2-.8-4.2-.5-6.6.5-3.7,1.7-7.3,3.8-10.7.8-1.3,1.8-2.1,3-2.4.5-.1,1-.2,1.5-.1.8,0,1.9.5,2.4,1.2.9,1.2,0,2.2-.5,2.8l-.2.2c-3.4,4-4.9,8.2-4.7,12.9,0,.9.2,1.7.5,2.4.4.9,1.2,2,2.6,1.6.2,0,.5-.2.8-.3,1.6-.8,2.8-1.8,3.7-2.7,2.1-2.3,3.8-4.5,5.3-6.7,1.6-2.5,3.2-5.1,4.7-7.6.9-1.4,1.8-2.9,2.6-4.3.7-1,1.3-2,2.1-3.1.3-.5.7-1,1-1.5.1-.2.3-.3.5-.4,0,0,0,0,.1,0,.2,0,.5,0,.7.2,1.2,1.1.9,2.2.7,2.9s0,.2,0,.3c-.2.9-.4,1.7-.6,2.6-.4,1.5-.7,3-1,4.5-.3,1.3-.4,2.8-.4,4.4,0,1.1.1,2.2.4,3.2.5,2,1.3,3.4,2.4,4,.8.5,1.7.6,2.8.3.8-.2,1.7-.6,2.6-1.3,1.3-.9,2.7-2.1,3.8-3.4,5.3-6,8.4-11.2,12.2-20.7.1-.3.2-.5.4-.8,0-.1.1-.2.2-.3.1-.2.3-.4.5-.4,0,0,0,0,0,0,.2,0,.4,0,.6,0l.4.2h0Z"/>
        <path class="cls-1" d="M275.5,120.9c0,1.2-7.7,18-14.2,25.1-2,2.2-4.2,4.4-7.1,5.7-.5.2-1,.4-1.5.5-4.7,1.2-9.4-1.2-11-5.8-.6-1.6-.9-3.5-.9-5.3-.2-5.9,1.7-11.3,5.6-15.9,1-1.2,2.3-2.1,3.8-2.5,2-.5,4.1-.1,5.9,1.1.6.4,1.2.9,1.7,1.6,0,.2.9,1.5.4,2.6-.4.8-1.4,1.1-1.8,1.2-.2,0-.3,0-.4,0-1.6.2-3-.3-3.9-1.6-.3-.5-.5-.4-.6-.4,0,0-.3.1-.5.3h-.2c-.7.7-1.3,1.2-1.7,1.8-3,3.8-4.3,8.2-3.9,13.1,0,.6.2,1.3.4,1.9,1.2,3.6,3.8,5.2,7,4.3.6-.2,1.2-.4,1.8-.7,2.5-1.3,4.8-3.3,6.7-5.8,4.7-6.1,8.6-12.7,11.5-19.7.2-.5.8-2,.8-2,0-.2.2-.4.4-.5,0,0,.1,0,.2,0,.2,0,.3,0,.5,0h.4c.4.2.6.6.6,1Z"/>
        <path class="cls-1" d="M329.9,73.8c-.5.4-1.2.5-1.8.7-9.7,2-19.5,3.8-29.1,6.1-2.6.6-5.3,1.3-7.9,1.8,0,0-.1,0-.2,0-.9.2-1.4.7-1.8,1.7-5.1,12-9.4,23.2-12.1,34.4-2.4,10-5.6,24.6-2.5,28.1,1,1.2,1.2.5,2.1,0,.8-.4,2.1,0,2.7.7.6.6.5,1.8.3,2.4-.7,2.3-3.4,3.5-5.6,3-.8-.2-1.5-.6-2-1.3-.7-1-1-2.3-1.1-3.5-.6-4.3,0-12.5,1.9-21.7.8-3.7,1.6-7.4,2.6-11.1,1.9-7.2,4.1-14.3,6.6-21.4.7-1.9,1.4-3.9,2-5.8.4-1.2.8-2.3,1.2-3.5,0-.2.1-.4.2-.7-3.6.8-7.3,1.6-11,2.6-6.3,1.7-11.5,3.5-16.3,5.6.3.5.7,1.1.8,1.7,2.1,7.1-11.1,2.6-7.6-1.5,1.9-2.1,13.4-6,16.4-7.1,5.6-2.1,11.4-3.9,17.2-5.3,0,0,1-.2,1-.2.9-.2,1.4-.7,1.7-1.6.3-.9.7-1.9,1-2.8.4-.9.7-1.9,1.1-2.9.2-.6.3-1.4.2-1.9-.2-1.4.4-2.5,1.7-2.9.1,0,.2,0,.3,0,.8-.2,1.7-.3,2.4,0,.8.2,1.8.9,2.1,1.8.3.9-.3,2-.8,2.6-1.5,1.6-2.4,3.6-3.4,5.6-.1.2-.2.5-.3.7h0c.3,0,.5-.2.8-.2,2-.5,3.9-.9,5.9-1.4,9.5-2.2,18.9-4.4,28.4-6.5.7-.1,1.4-.3,2.1-.1.2,0,.4.2.6.3,1.1.8,1.4,2.8.2,3.6Z"/>
        <path class="cls-1" d="M320.4,112.4c0,.2-.3.4-.5.5-4.9,1.9-11.2,4.8-16.7,9.5.2,0,.3.2.4.3,2.5,1.5,3.6,3.8,3.3,6.9-.4,4.7-4.2,9.2-8.9,10.4-.4.1-.8.2-1.2.2-2.4.3-3.7-.4-4.4-1.1-.6-.7-1.3-2-.9-4.3.3-1.7,1-3.5,1.9-5.1.8-1.4,1.7-2.6,2.8-3.9.2-.2.3-.5.5-.7-.4,0-.7-.1-1.1-.2-3.4-.7-4.7-2.3-5.2-3.5-.5-1.2-.6-3.3,1.4-6.1,2.2-3,5.1-5,8.8-6,.5-.1,1-.2,1.4-.3,1.7-.3,3.2,0,4.4,1.1.8.7,1.1,1.5.9,2.3-.2.8-.9,1.5-1.8,1.8h0c-.5.2-1.1.2-1.5.1-.9,0-1.7,0-2.4.2-1.9.5-3.6,1.8-5.2,3.9-.7,1-.7,1.3-.7,1.4,0,0,.2.4,1.5.8,1.4.4,2.4.5,3.3.3.8-.2,1.6-.7,2.4-1.4,3.9-3.5,8.8-6.3,15-8.5.1,0,.2,0,.4-.1,0,0,.2,0,.3,0,0,0,.2,0,.2,0,.4-.1.8,0,1,.4l.3.5c.1.2.1.5,0,.7ZM303.7,129.2c0-1.7-.8-2.9-4.1-3.5-.3.4-.6.8-.9,1.2-1,1.3-2,2.6-2.9,4-.7,1.2-1.3,2.6-1.7,4.3-.2.8-.1,1.4.2,1.6.3.3.9.4,1.7.2.3,0,.6-.1.9-.2,2.8-.7,4.9-2.3,6.1-4.7.5-.9.8-2.1.7-3h0Z"/>
      </g>
      <path class="cls-1" d="M38.3,246.6c-.4,0-.8,0-1.1-.1-.8-.3-1.4-.9-1.7-1.8-.3-1-.5-2-.6-3h0c-1.9-13.7-2.5-27.6-3-39.5-.3-6.9-.6-14-.9-20.8v-.7c-.5-10.9-1-22.2-1.3-33.4-.1-4-1.2-6.6-3.7-9-4-3.9-7.2-8.8-9.8-15.1-1.4-3.4.5-4.9,1.3-5.4.6-.3,1.2-.5,2-.7h.3c2-.3,3.2.6,4,2.7.9,2.6,1.9,4.9,3.1,7.1l2.2-.6c-.2-26.4.3-53,1.6-78.9.2-4.2.5-8.4.9-13.1v-.4c.2-1.7.3-3.3.4-5,0-.6,0-1.4.3-2.1.3-.9.8-1.6,1.5-2,.4-.2.8-.4,1.3-.4s.5,0,.7,0c1.6,0,2.7,1.1,2.9,2.9.2,2.1.4,4.2.4,6.3,0,1.4,0,2.9,0,4.3,0,1.2,0,2.4,0,3.6,0,1.5,0,2.6.3,3.6.4,1.9.5,3.3-1.5,4.4-.2.1-.4.2-.7.3-.3.2-.6.3-1,.4l-.7.2v.7c-.1.2-.1.5-.1.7-1.4,25.7-2,50.9-1.7,74.9l2.3.2c2.3-15.5,5.3-29.7,9.2-43.3,4.9-16.8,10.7-31,17.9-43.3,5.5-9.4,11.4-16.7,18.1-22.4,2.4-2,4.7-3.7,7.1-5,2.9-1.7,5.7-2.8,8.7-3.6,1.4-.3,2.8-.6,4.1-.7,8.3-1,16,1.7,22.7,8,5.6,5.2,10,11.9,13,19.7,6.3,16.1,7.7,32.9,4.2,50-2,9.9-6.2,19.4-12.4,28.3-6.4,9.1-12.5,15.8-19.3,21.3-4.4,3.5-8.7,6.5-13,8.9-8.4,4.8-16.8,7.8-25.7,9.1-.7.1-1.4.2-2.2.3-11,1.3-20.7-.5-29.5-5.5l-1.5-.9-.2,1.8c-1.9,18.5-1.6,37.9.9,61.2,1.1,9.7,2.1,19.3,3.1,28.4.1,1.1.3,2.4.1,3.7-.1,1-.6,2.1-1.2,2.7-.2.2-.4.4-.7.5-.3.2-.7.3-1,.3ZM101.5,12.2c-3.1.4-6.3,1.3-9.4,2.9-.6.3-1.3.7-1.9,1-5.1,2.9-9.8,7.1-14.8,13.2-7,8.6-12.9,19-18.6,32.7-6.3,15.2-11.1,32.2-14.7,51.8-1,5.3-1.8,10.9-2.5,15.8v.2c-.5,3.3-1,6.7-1.5,10.1-.2,1.5,0,2.2,1.2,2.8.3.2.6.4.9.6.2.1.3.2.4.3,8.1,5.6,17.4,7.7,28.6,6.5.6,0,1.2-.1,1.8-.2,8-1.2,16.1-4,25.6-9h0s0,0,0,0c1.1-.8,2.2-1.6,3.3-2.4l.5-.4c2.8-2,5.8-4,8.5-6.3,11.1-9.1,19.2-19.7,24-31.4,6.3-15.5,8.1-31.1,5.2-46.3-2.4-12.7-7.1-23.2-14.5-32.1-5.9-7.1-13.7-10.5-22.1-9.5Z"/>
    </g>
  </g>
</svg>