<?xml version="1.0" encoding="UTF-8"?>
<svg id="_レイヤー_2" data-name="レイヤー 2" xmlns="http://www.w3.org/2000/svg" width="343.82" height="357.22" viewBox="0 0 343.82 357.22">
  <defs>
    <style>
      .cls-1 {
        fill: #fff;
        stroke: #dbd8e9;
        stroke-miterlimit: 10;
        stroke-width: .5px;
      }
    </style>
  </defs>
  <g id="design">
    <g>
      <path class="cls-1" d="M162.22,21.41c1.5,4.53,2.18,9.79,2.03,15.79-.15,6-1.18,13.39-3.08,22.19-1.28,4.6-2.78,9.22-4.49,13.88-1.71,4.66-4.17,10.49-7.36,17.5-3.19,7.01-7.28,15.21-12.27,24.61-.47.91-1.13,1.86-1.98,2.86-.85,1-1.9,1.67-3.14,2.03-1.23.23-2.35-.07-3.34-.9-.99-.83-1.29-1.83-.89-3.01.25-.56.65-1,1.21-1.32.56-.32,1.16-.57,1.79-.76.81-.27,1.55-.63,2.2-1.06.92-.75,1.61-1.68,2.07-2.79.05-.1.11-.19.16-.29,3.95-7.35,7.7-14.81,11.26-22.37,5.16-10.78,9.27-21.94,12.35-33.47,1.6-6.03,2.42-12.09,2.46-18.2s-1.32-12.04-4.07-17.79c-1.1-2.28-2.52-4.42-4.24-6.4-1.73-1.98-3.75-3.54-6.06-4.66-3.66-1.55-7.45-2.19-11.4-1.91-7.09.49-14.76,4.16-22.99,11.01-8.24,6.85-16.65,15.73-25.25,26.62-8.6,10.9-16.96,22.63-25.08,35.2-8.12,12.57-15.6,24.83-22.43,36.79-6.83,11.96-12.62,22.4-17.35,31.34-4.73,8.94-8,15.22-9.8,18.87-1.49,2.74-3.08,6.24-4.77,10.48-1.69,4.24-2.76,8.68-3.23,13.3-.46,4.62.42,8.91,2.65,12.86,1.84,2.88,4.29,5.13,7.33,6.74,3.04,1.61,6.15,2.91,9.32,3.91,8.93,2.93,18,5.45,27.22,7.55,3.71.89,7.51,1.69,11.42,2.4,5.66,1.02,11.25,2.3,16.77,3.85,5.52,1.55,10.63,3.9,15.31,7.07,4.64,3.3,8.36,7.42,11.16,12.34.92,1.36,2.19,4.23,3.81,8.6.95,2.61,1.9,5.85,2.84,9.7.94,3.85,1.71,8.3,2.3,13.33,1.41-1.74,3.4-4.23,5.97-7.44,4.37-5.6,8.5-10.89,12.4-15.87,15.92-20.29,28.22-35.82,36.9-46.57,8.68-10.76,14.78-17.72,18.3-20.88.82-.68,1.63-.88,2.42-.6.79.28,1.35.8,1.67,1.56.32.76.19,1.55-.39,2.37-2.08,2.1-4.18,4.19-6.31,6.26-4.65,4.46-9.09,9.11-13.32,13.94-10.78,13.13-21.37,26.39-31.75,39.77-3.81,4.87-7.62,9.72-11.43,14.55-1.77,2.46-3.62,4.88-5.54,7.26-2.66,3.2-5.12,6.5-7.38,9.89s-3.92,7.07-4.98,11.03c-1.2,5.46-2.73,10.85-4.6,16.16-1.87,5.31-4.23,10.38-7.06,15.22-.58.82-1.16,1.63-1.74,2.45-1.65,2.46-3.35,4.9-5.1,7.31-.45.98-1.8,2.74-4.06,5.28-2.26,2.54-4.93,5.23-8.01,8.09-3.08,2.85-6.06,5.26-8.93,7.22-2.87,1.96-5.1,2.86-6.7,2.68-1.59-.17-2.06-2.02-1.41-5.54,4.9-8.84,10.23-17.43,15.99-25.77,5.76-8.34,11.64-16.56,17.65-24.66,3.01-4.11,5.99-8.22,8.96-12.32,1.64-2.63,2.6-5.53,2.86-8.71.26-3.19.29-6.27.09-9.26-.3-6.7-1.94-13.06-4.92-19.07-5.06-10.01-12.72-17.08-22.97-21.21-3.25-1.26-6.59-2.29-10.02-3.07-3.44-.78-6.88-1.47-10.34-2.06-1.85-.36-3.72-.72-5.61-1.07-9.68-1.86-19.22-4.24-28.63-7.15-4.49-1.35-8.75-3.04-12.79-5.05-4.03-2.01-7.58-4.88-10.63-8.59-2.71-3.65-3.59-8.53-2.64-14.63s3.01-12.87,6.19-20.3,6.74-14.95,10.7-22.54c.55-1.05,1.12-2.17,1.72-3.36,2.5-5.31,6.93-13.61,13.28-24.9,6.69-11.55,13.24-22.3,19.67-32.28,6.43-9.97,13.98-21.2,22.68-33.69,6.04-8.68,12.66-17.1,19.85-25.26,7.19-8.16,15.29-15.01,24.31-20.56,3.11-1.91,6.44-3.43,10-4.57,3.55-1.14,7.3-1.36,11.24-.66,3.53.82,6.73,2.2,9.6,4.14,2.87,1.94,5.07,3.85,6.58,5.73,2.19,2.38,4.12,6.01,5.81,10.89ZM105.09,300.87c.18-.94.26-1.92.25-2.94,0-.41.02-.8.03-1.17-4.22,4.99-8.19,10.21-11.9,15.67-1.38,1.98-2.77,3.94-4.16,5.89-2.55,3.57-5.03,7.19-7.43,10.85-.77,1.16-1.53,2.31-2.3,3.46-.98,1.42-1.93,2.85-2.85,4.29-1.21,1.89-2.45,3.77-3.75,5.65-1.66,2.3-3.04,4.79-4.14,7.46,6.37-2.6,11.76-6.52,16.19-11.77,2.87-3.18,5.38-6.62,7.52-10.33,2.79-4.99,5.55-9.98,8.26-14.99,1.99-3.82,3.42-7.85,4.28-12.08Z"/>
      <path class="cls-1" d="M204.35,201.31c.78-.83,1.63-1.56,2.57-2.19,1.11-.57,2.21-.72,3.3-.45,1.09.27,2.09.84,3,1.69.83.78,1.59,1.65,2.28,2.62.31.37.59.74.86,1.13.79.99,1.81,1.88,3.05,2.67,1.24.79,2.49.7,3.73-.27.16-.15.33-.27.5-.37.45-.38.87-.78,1.26-1.2.21-.32.46-.62.73-.9,1.48-1.75,2.88-3.52,4.19-5.32,2.67-3.46,5.5-6.76,8.51-9.91.47-.49.95-1.01,1.46-1.56.71-.71,1.5-1.39,2.38-2.05.43-.28.91-.46,1.44-.56.61-.17,1.02.01,1.23.56.04.14.06.27.08.4,0,.12,0,.24-.01.35-.07.12-.14.22-.22.29-.34.6-.71,1.14-1.14,1.62-3.81,3.73-7.34,7.72-10.59,11.95-1.98,2.5-3.98,4.98-6.02,7.44-.7.76-1.45,1.51-2.25,2.25-2.15,1.73-4.24,1.94-6.3.62s-3.79-2.86-5.22-4.64c-.14-.11-.24-.21-.31-.29-.01-.04-.05-.09-.11-.12-.47-.58-1.02-1.08-1.65-1.51-.44-.28-.93-.46-1.48-.53-.55-.07-1.07.04-1.54.33-1.17.69-2.11,1.6-2.8,2.71-1.01,1.61-1.74,3.32-2.19,5.12-.34,1.11-.65,2.24-.93,3.39-.27,1.19-.56,2.37-.89,3.53-.26.68-.61,1.34-1.03,1.97l-.05.09c-.31.5-.79.71-1.42.64-.54-.1-.91-.43-1.12-.97-.14-.32-.21-.57-.22-.78-.07-.44-.08-.81-.02-1.14.06-.32.08-.51.07-.55.17-1.01.74-6.06,1.71-15.16.97-9.09,2-19.21,3.06-30.37,1.07-11.15,1.84-20.33,2.32-27.52.41-7.43.72-15.75.92-24.95.23-8.04.5-15.01.78-20.91.29-5.9.74-9.04,1.34-9.41.29-.03.55-.04.75-.03.21.02.43.07.65.16.31.21.56.46.75.74.18.28.31.56.39.84-.51,17.16-1.31,34.76-2.38,52.8-1.2,20.1-2.67,39.67-4.42,58.72.31-.34.65-.67,1.02-.98Z"/>
      <path class="cls-1" d="M247.16,204.34c-.14-.31-.23-.64-.28-.98-.13-.83-.19-1.62-.15-2.39.41-6.37,1.62-12.58,3.64-18.65.41-1.23,1.05-2.36,1.93-3.37.47-.49,1.04-.84,1.71-1.06.67-.22,1.31-.26,1.91-.13,1.92.67,3.78,1.48,5.58,2.44,1.01.52,2.04,1.01,3.09,1.48,1.02.37,2.03.26,3.03-.33.68-.45,1.31-.93,1.87-1.45.56-.52,1.15-1.04,1.76-1.57.55-.56,1.13-1.11,1.74-1.64.4-.37.85-.65,1.36-.85.49-.24,1-.24,1.53.02.3.17.5.48.61.93.1.45.04.81-.19,1.08-.1.18-.18.33-.25.45-.21.32-.44.61-.66.88-1.99,1.74-4,3.43-6.01,5.08-.67.5-1.34,1-2.01,1.49-.64.44-1.24.89-1.82,1.36-1.5,1.14-2.7,2.53-3.61,4.16-.72,1.38-1.45,2.73-2.19,4.06-.26.53-.51,1.06-.76,1.59-1.42,2.85-3.18,5.46-5.29,7.84-.55.56-1.14,1.09-1.76,1.57-.81.54-1.69.65-2.65.34-.95-.31-1.61-.92-1.97-1.83-.04-.14-.09-.31-.14-.49ZM250.57,201.62c.14.11.28.2.45.25.54.1,1-.06,1.39-.47,1.84-2.25,3.44-4.67,4.78-7.24.07-.12.1-.26.11-.41.07-.12.11-.23.13-.34.16-.5.12-1.03-.11-1.57-.23-.54-.6-.89-1.1-1.06-.49-.11-1-.2-1.52-.25-1.9-.06-3.09.73-3.58,2.4-.85,2.53-1.2,5.12-1.05,7.77.05.19.13.34.21.47.03.09.05.19.08.28.06.03.13.09.2.17ZM257.01,183.69c-.43.28-.88.56-1.36.85-.52.3-.76.73-.7,1.27.15.52.5.85,1.05,1,1.33.38,2.52.12,3.58-.8.4-.37.55-.82.45-1.35-.1-.53-.41-.9-.93-1.11-.29-.12-.63-.17-1.04-.16-.15,0-.33,0-.53,0-.17.1-.35.2-.52.3Z"/>
      <path class="cls-1" d="M295.47,192.93c1.1-1.03,2.22-1.96,3.35-2.79s2.32-1.83,3.56-3c1.72-1.61,2.89-3.74,3.5-6.38.61-2.64.29-5.38-.98-8.21-.39-.65-.92-1.04-1.6-1.18-.67-.14-1.25.04-1.71.53-.11.14-.23.27-.34.4-.62.69-1.15,1.4-1.6,2.13-2.06,3.64-3.8,7.39-5.23,11.25-.92,2.65-1.66,4.7-2.23,6.16-.57,1.46-1.06,2.65-1.45,3.58-.4.93-.78,1.92-1.17,2.96s-.86,2.52-1.44,4.41c-1.3,3.98-2.35,7.83-3.16,11.57-.57,2.8-.92,5.46-1.07,7.96-.14,2.51-.24,5.54-.28,9.11-.04,2.15-.11,4.65-.2,7.53-.06,2.1-.15,4.6-.29,7.51-.13,2.91-.31,6.78-.55,11.63-.22,4.02-.45,8.08-.7,12.16-.31,4.41-.59,8.83-.84,13.27-.29,6.23-.59,12.46-.89,18.69-.14,3.59-.3,7.2-.48,10.8l-.03.16c.08.28.11.69.09,1.23-.02.54-.15,1.12-.38,1.75-.03.06-.12.24-.27.53-.14.29-.32.57-.52.83-.2.26-.41.4-.61.4-.48-.07-.89-.54-1.25-1.43-.36-.89-.66-1.84-.9-2.87-.24-1.02-.4-1.75-.48-2.19-1.74-9.25-2.49-18.44-2.26-27.54.23-9.11,1.23-19.88,3-32.33.32-1.72.61-3.2.86-4.44.23-1.13.46-2.28.69-3.44.23-1.16.48-2.59.75-4.29.8-3.78,1.66-12.54,2.6-26.27.45-9.58.64-18.22.57-25.92-.06-3.74-.04-7.86.04-12.35-.02-1.32.01-2.62.1-3.91.04-1.08.07-2.15.07-3.22.07-1.9.09-3.76.08-5.58.02-2.39.07-4.79.14-7.2.08-3.43.21-6.87.39-10.32.04-1.08.4-2.07,1.05-2.97.34-.4.81-.6,1.39-.59.59.01,1.05.25,1.38.71.52.92.8,1.9.85,2.96.05.54.03,1.08-.07,1.62-.12.64-.21,1.31-.27,1.98-.17,1.72-.46,3.44-.89,5.13-1.13,5.45-1.59,11.02-1.38,16.7.04,1.72.03,3.39,0,5.03-.2,7.98-.28,15.96-.23,23.92-.03.26-.01.54.05.83.06.29.21.5.45.63.41.19.78.11,1.11-.24.33-.35.56-.74.69-1.19.56-1.58,1.14-3.2,1.74-4.84,1.22-3.7,2.56-7.36,4.01-10.98,1.68-4.24,3.72-8.28,6.13-12.12.7-1.11,1.48-2.18,2.36-3.19,1.08-1.38,2.48-1.98,4.2-1.82,1.77.51,2.94,1.79,3.5,3.83.56,2.05.9,3.97,1.01,5.77,0,.2.04.4.09.58-.01.31.05.74.18,1.28.13.55.35.99.65,1.34.3.35.71.37,1.24.06.25-.17.51-.35.76-.52.66-.34,1.28-.75,1.86-1.22,5.17-4.63,10.65-8.82,16.44-12.56,3.4-2.14,6.53-4.59,9.4-7.34.4-.37.88-.54,1.45-.53.56.02,1.05.22,1.47.61.37.4.57.89.61,1.46.04.57-.12,1.04-.48,1.39-.11.14-.23.25-.36.33-.23.27-.49.52-.77.75-8.82,5.02-17.1,10.8-24.82,17.33-1.44,1.17-2.91,2.33-4.41,3.48-3.22,2.4-5.73,5.43-7.53,9.09-.71,1.42-1.48,2.81-2.31,4.17-1.63,2.81-3.79,5.12-6.46,6.96-.35.2-.7.38-1.07.53-.14.04-.26.07-.35.1-.74.26-1.47.18-2.2-.24-.73-.42-1.25-.98-1.54-1.65-.25-.69-.27-1.38-.06-2.08.21-.69.54-1.39,1-2.08,1.08-1.73,2.17-3.11,3.27-4.14ZM276.77,297.12c1.26-10.67,2.17-21.85,2.73-33.54.18-3.81.31-7.58.41-11.32-2.33,10.12-3.52,21.73-3.57,34.85.02,3.45.17,6.78.43,10.01ZM297.98,196.25c-.48.29-.92.62-1.32.99-.24.22-.34.44-.31.66.04.22.19.37.47.44.11.02.22-.03.34-.13.12-.11.22-.2.3-.28.25-.53.49-1.03.71-1.5.09-.23.18-.43.28-.61l.09.05c-.22.11-.41.25-.57.39Z"/>
    </g>
  </g>
</svg>