<?xml version="1.0" encoding="UTF-8"?>
<svg xmlns="http://www.w3.org/2000/svg" version="1.1" viewBox="0 0 348.7 324">
  <defs>
    <style>
      .cls-1 {
        fill: #8da6a5;
      }
    </style>
  </defs>
  <!-- Generator: Adobe Illustrator 28.7.3, SVG Export Plug-In . SVG Version: 1.2.0 Build 164)  -->
  <g>
    <g id="_レイヤー_2">
      <g>
        <path class="cls-1" d="M256.9,121.7c.2.3.2.8-.1,1-3.8,3.3-8.2,5-12.7,7,0,.5,0,1,0,1.4,0,1.4,0,2.7-.4,4-1.4,4.8-3.9,10.7-10,13.5-.4.2-1,.5-1.7.6h0c-1.5.3-3,0-4-.8-1-.8-1.7-2.1-1.8-3.6-.2-2,0-3.8.4-5.2.6-2,1.3-3.9,2-5.7.4-.9.7-1.9,1.1-2.9.1-.3.2-.7.3-1,0-.4.1-.7.3-1.1,0-.1,0-.3.1-.4.2-.6.4-1.4.9-1.9,1.1-1.2,2.5-2,4-2.3.9-.2,1.9-.2,3-.1,1.8.2,3,1.4,4,2.6.3.3.5.7.8,1h0c4.1-1.6,8.3-3.4,12.9-6.4,0,0,.2,0,.2,0,.3,0,.6,0,.8.3h0ZM242,130.6s0,0-.1,0c-1.2.5-2.5.9-3.8,1.2-1.3.3-2.4.3-3.6.2-1.5,2.3-2.5,4.4-3.2,6.6-.4,1.4-.9,3-1,4.7-.1,1.6.2,2.2.5,2.4.2.2.6.3,1.1.1.4,0,.9-.3,1.4-.5,4.1-2.1,6.9-5.8,8.6-11.1.2-.7.2-1.6.2-2.5,0-.2,0-.5,0-.7,0,0,0-.2-.1-.4ZM236.1,129.8c.7,0,1.5-.2,2.2-.3.9-.2,1.8-.5,2.7-.8-.8-1.4-2.2-2.7-4.2-2.3.4.3.6.7.7,1.2,0,.8-.5,1.4-1,2-.1.1-.2.2-.3.3Z"/>
        <path class="cls-1" d="M292.1,116c-5.9,3.2-8.3,4.3-13.3,4.6-.3,0-.5,0-.7.2-.3.2-.4.5-.6.8-2.1,4.4-4.7,8.6-7.7,12.4-2.4,3-5,5.8-8.4,7.5-2.2,1.1-5,1.7-6.9.3-1.8-1.3-2.1-3.9-2-6.1.2-4.8,1.7-9.3,3.4-13.8.3-.9.7-1.8,1.4-2.3.9-.7,2.3-.7,3.4-.2.8.3,1.7.9,1.7,1.8,0,.9-.7,1.5-1.3,2.1-1.8,1.8-2.7,4.4-3.6,6.9-.9,2.6-1.8,5.3-1.4,8,0,.4.2.9.5,1.2.5.5,1.4.5,2.1.3,3.2-.7,5.8-2.9,7.9-5.3,3.9-4.2,6.9-9.1,9.2-14.3-1.4-.4-2.5-1.8-2.4-3.3,0-1.5,1.3-2.8,2.7-3,.8-.1,1.7.1,2.2.8.9,1.2.1,2.8.2,4.3,6.6-.6,7.4-1.9,13.3-4.9.5-.2,1-.5,1.5-.3,0,0,.2,0,.2.1,1,.7-1,2-1.5,2.2ZM276.8,115.9s-.1,0-.3,0c0,0,0,0-.1,0-.4,0-.7.4-.9,1-.1.3-.2.6.3.9.2.2.5.4.7.6.3-.6.3-1.4.4-2.2v-.2c0,0,0-.1,0-.2Z"/>
        <path class="cls-1" d="M314.2,109.2c.3.2.4.5.3.8,0,.2-.1.4-.1.6,0,.3-.1.6-.2.8-2.7,6.6-5.3,10.7-10.5,17.6-1.6,2.1-3.8,4.7-7.2,6-.4.1-.8.3-1.1.3-2.9.6-5.1-.8-5.8-3.8-.5-1.9-.6-3.7-.4-5.2.3-2.3.9-4.6,1.4-6.9.2-.7.3-1.3.5-2,.2-.7.9-3,1.1-3.6.1-.5.3-.9.4-1.4.3-1.2,1.3-2.1,2.6-2.4.8-.2,1.7,0,2.3.4.6.3.9.9,1,1.4,0,.5-.2,1-.6,1.5-3.4,3.1-4.9,9-5.7,13.1-.2,1.2-.2,2.6,0,4,.1,1.1.6,2,1.2,2.4.5.3,1.1.4,1.7.3.5-.1,1-.3,1.5-.7,1.5-1,2.9-2.3,4.5-3.9,3.8-3.9,6.4-8.6,8.8-13.1.9-1.7.5-.9,1.4-2.6.4-.9.9-1.8,1.3-2.7.1-.2.3-.3.4-.5,0,0,.2-.2.4-.3.1,0,.2-.2.4-.2.2,0,.4,0,.5,0h0ZM294.6,106.7c-.3-.9-.2-1.9.4-2.8.6-1.1,1.7-1.9,2.8-2.1.4,0,.8,0,1.2,0,.9.1,1.7.6,2,1.2.2.4.4,1.1,0,2.1v.2c-.6,1.1-1.2,2.5-3.1,2.9,0,0-.2,0-.2,0,0,0-.2,0-.2,0,0,0-.1,0-.2,0-.3,0-.8-.1-1.3-.3-.5-.2-1-.7-1.2-1.2Z"/>
        <path class="cls-1" d="M339.4,104.7l-.4.8c-.3.6-.6,1.1-.9,1.7-3.3,6.5-6.3,10.9-10.8,16.1-2,2.3-4.5,4.8-7.9,6.2-.5.2-1,.3-1.6.5-.5,0-1,.2-1.5.2-1.5.2-2.7-.6-3.7-1.3-3.3-2.3-3.6-5.6-3.4-8.8,0-.4,0-.8,0-1.2,0-.6,0-1.2,0-1.8,0-.3.1-.7.3-1,.2-.4.5-.9.7-1.3.3-.5.6-1,.9-1.6,1.6-2.9,3.5-5.1,5.9-6.5,1-.6,1.9-1,2.7-1.2,0,0,.2,0,.3,0,1.5-.3,3,.2,3.9,1.4.9,1.1,1.1,2.6.5,4-.4,1-1,2-1.9,3-2.1,2.3-4.8,4-8.4,5.2-.1,0-.3,0-.5.1-.4,0-.9.1-1.3.2,0,0-.2,0-.3,0-.5,2.7,0,5,1.4,6.9,1,1.4,2.2,1.9,3.7,1.5.3,0,.5-.1.8-.2,2.1-.8,3.8-2.1,5.2-3.3,3.7-3.2,6.5-7.2,8.7-10.7,1.5-2.3,2-3.2,3.4-5.5.7-1.1,1.3-2.2,2-3.3.2-.3.5-.8,1.3-.9h0c.3,0,.6,0,.7.3.2.2.2.5,0,.8ZM314.1,113.9c2.3-1,4.5-3,5.4-4.6-2.2.7-3.9,2.2-5.4,4.6Z"/>
      </g>
      <path class="cls-1" d="M19.7,305.9c-.2,0-.4,0-.6,0-.5-.2-2.3-1-2.6-5.5,0-.8-.1-1.6-.2-2.5-.2-2.8-.4-5.7-.3-8.6v-.8c.6-13,1.1-26.5,2-39.7,4.2-63.4,10.2-125.5,17.7-184.5,0-.4.1-.8.2-1.2.3-2,.4-2.7,0-3.6-.7-1.3-.4-3.1-.2-4.2v-.2c2-13,3.9-24.6,5.6-35.6.2-1.3.5-2.6.9-3.9.4-1,.9-1.7,1.5-2.1.3-.2.6-.3.8-.3s.6,0,.9.2c1.7.9,1.8,3.6,1.7,5.8-.9,11.7-2.2,23.4-4.2,36-.2,1-.6,2.9-1.4,4.1-.5.7-.6,1.5-.7,2.8v.3c-7.8,59.8-13.5,122.4-17.6,191.5l2,.2c1.4-10,2.8-20.6,4.3-31.2,5.7-40,11.5-72.2,18.4-101.4,6.7-28.7,13-50,20.3-68.8,4.4-11.4,8.3-19.7,12.5-26.7,2.3-3.8,4.8-7.6,8-10.1.6-.4,1.1-.9,1.7-1.2,1.1-.7,2.2-1.2,3.2-1.6.8-.3,1.6-.4,2.3-.4,2.8,0,5.3,2,7.4,5.9,1.5,2.8,2.7,6,3.7,9.4,2.6,9.3,3.7,19.3,4.5,28.7,1.3,14.7,1.6,28.9,1.8,45.6l2,.3c4-14.8,8.2-27.5,12.8-38.8,4.3-10.6,8-18.1,12.1-24.3,2.2-3.3,4.6-6.6,7.5-8.6.2-.1.4-.3.6-.4,1.6-1,3.1-1.5,4.6-1.5,3.9,0,7.3,3.9,9.6,11,2.1,6.5,3.5,13.8,4.2,21.8,1.6,17.3,3.2,35.5,4.4,50.1v.6c1.2,13.8,2.6,28.5,6.1,42.1,1.6,6.1,3.3,10.8,5.4,14.7,1.3,2.4,2.7,4.4,4.1,6,1.5,1.6,2.9,2.4,4.4,2.4s1.7-.3,2.5-.8c.8-.5,1.6-1.3,2.4-2.3,1.8-2.2,3.3-5.1,4.9-9.2,2.7-6.9,4.7-14.6,6.3-23.5,1-5.8,1.8-11.5,2.5-16.9,1.7-12.8,3.4-25.6,5.1-37.9l1.5-11.4c0-.4,0-.8.1-1.3h0c0-.6.1-1.2.2-1.8.3-2.2,1.3-4.2,2.6-5,.4-.2.8-.4,1.2-.4s.3,0,.4,0c.8.2,1.5.9,1.9,2,.4,1.2.5,2.7.1,4.2-2.4,9.8-3.7,20.4-5,30.5-.5,4.1-1.1,8.3-1.6,12.4-2.1,14.4-4.3,28.4-8.1,41.6-1.3,4.3-2.8,8.8-4.9,14.2-1.6,4.2-3.8,7.6-6.4,10.1-.7.7-1.5,1.3-2.2,1.7-1.2.8-2.4,1.2-3.6,1.2-1.8,0-3.7-.9-5.5-2.7-3.5-3.4-6.2-8.4-8.9-16.2-3.4-9.9-5.6-21-6.9-35.2-1-10.4-1.8-21.1-2.6-31.4h0c-.5-5.9-.9-11.9-1.4-17.9-.9-10.7-1.9-21.1-4-30.8-.7-3.3-1.6-6.3-2.6-8.8-1.5-3.9-3.6-5.9-6.1-5.9s-2,.3-3.1,1c-.4.3-.9.6-1.3,1-3,2.6-5.4,6.4-7.2,9.4-6.3,10.8-11,23.4-14.4,33.1-5.1,14.6-9.6,30.6-13.4,47.5-.3,1.3-.5,3-.5,4.8-.5,18.3-1.2,37.9-3.3,57-.8,7.5-1.9,14.7-2.9,20.7-.6,3.4-1.6,6.7-2.5,9.6-.5,1.5-1.3,3-2.4,4-.2.2-.4.4-.7.5-.3.2-.6.3-.9.3-1,0-2-1.3-2.5-3.3-.4-1.6-.9-4-.9-6.5,0-4.1,0-8.9.4-13.6,1.6-20.7,5-40.3,7.9-55.1.8-3.9,1.6-7.9,2.4-11.7v-.5c.8-3.3,1.5-6.6,2.2-9.9.5-2.6.8-5,.8-7.1.4-23.2-.2-42.2-1.7-59.8-.6-6.5-1.5-15-3.6-23-1-3.8-2.1-6.9-3.3-9.4-1.6-3.5-3.7-5.2-6.1-5.2s-2.3.4-3.6,1.1h-.2c-2,1.4-3.9,3.3-5.8,6-2.9,4.2-5.8,9.3-8.9,16.1-5.7,12.4-11,26.9-16.1,44.3-8.6,29.4-15.8,62.2-22,100.2-4.2,25.8-8.2,54.4-12.5,90.1-.8,6.6-1.8,13.3-2.7,19.1-.3,1.9-.8,3.8-1.4,5.6-.5,1.3-1.1,2.2-1.9,2.7-.3.2-.7.3-1.1.3ZM107,160.9c-1.8,10.5-4.4,26.5-5.6,43.4,0,1.1-.1,2.4-.2,3.7l2,.2v-.3c1.1-5.6,2.2-11.4,3-17.2,1.2-8.8,2.1-18.5,2.8-29.6l-2-.2Z"/>
    </g>
  </g>
</svg>