<?xml version="1.0" encoding="UTF-8"?>
<svg id="_レイヤー_2" data-name="レイヤー 2" xmlns="http://www.w3.org/2000/svg" width="159.82" height="354.07" viewBox="0 0 159.82 354.07">
  <defs>
    <style>
      .cls-1 {
        fill: none;
        stroke: #fff;
        stroke-miterlimit: 10;
        stroke-width: 6px;
      }

      .cls-2 {
        fill: #646464;
        stroke-width: 0px;
      }
    </style>
  </defs>
  <g id="bg">
    <g>
      <line class="cls-1" x1="156.82" x2="156.82" y2="261.72"/>
      <line class="cls-1" x1="53.82" x2="53.82" y2="354.07"/>
      <g>
        <path class="cls-2" d="M101.79,20.34c-.08-.68.53-1.3,1.48-1.54.95-.24,2.28-.14,3.15.21.72-.27,1.56-.75,2.2-1.09.49-.24,1.82-.92,3.19-1.68-.04-1.3-.08-2.94-.11-4.72,0-.51,0-1.03-.04-1.5-.91.24-1.71.41-2.24.48-.91.14-1.94.1-2.93-.27-.76-.27-1.48-.89-1.75-1.09-.27-.24-.53-.65-.19-.89.34-.31.72-.21,1.1.03.38.27.8.48,1.63.79.8.27,1.67.24,2.39.1.57-.14,1.14-.34,1.94-.68-.08-1.13-.11-2.05-.15-2.53-.04-.82-.23-1.92-.42-2.7-.19-.75-.8-1.44-1.37-1.74-.57-.31-.42-.72-.19-.96.15-.21.57-.31,1.22-.17.65.14,1.48.65,1.86.96s.72.96.8,1.57c0,.14.04.38.04.68.72.44,1.6.85,2.32,1.16.87.41,1.67.41,2.28.44.61.03.91.21,1.06.75.19.58-.19,1.23-1.1,1.74-.95.51-2.43,1.16-4.1,1.68-.08.03-.15.03-.23.07,0,.85,0,1.64.04,2.19v3.59c1.79-1.03,3.95-2.12,6.38-2.87,2.47-.75,5.05-.51,6.92.27,1.71.75,3.04,2.22,3.12,3.9.08,1.68-.61,3.11-2.2,4.96-1.6,1.88-3.53,2.74-5.89,3.01-2.13.24-3.65-.62-3.95-1.92-.34-1.33-.27-2.74.11-4.1.42-1.37.95-2.46,1.37-2.91.46-.48.95,0,.65.41-.34.41-.65.96-1.03,2.53-.34,1.5.11,3.66,1.6,3.97,1.52.34,3.23-.24,4.71-1.44,1.48-1.2,2.17-2.67,2.28-3.86.08-1.16-.3-2.19-1.25-2.91-.95-.68-2.58-1.03-4.29-.92-1.71.14-3.84.75-5.7,1.71-.91.48-1.86.99-2.81,1.54v2.29c0,.79.08,1.68.19,2.43.15.75-.19,1.4-.49,1.95-.3.55-.76,1.03-1.06,1.2-.3.21-.61.17-.87.17-.3,0-.53-.1-.68-.31-.15-.17-.57-.68-1.14-1.5-.46-.65-1.06-1.54-2.05-2.36-.23.17-.49.31-.72.41-1.06.51-2.01.65-3.12.62-1.1-.07-1.86-.48-1.94-1.13ZM103.27,19.86c.08.14.38.21.76.14.46-.03.8-.14,1.37-.41-1.29-.34-2.28,0-2.13.27ZM108.51,19.86c.72.34,1.33.65,1.86.99.72.41,1.03.58,1.22.51.3-.1.38-.48.38-.92s-.04-1.57-.08-2.8c-.38.24-.76.48-1.1.72-.87.58-1.63,1.09-2.28,1.5ZM113.49,4.68c.04.79.08,1.61.08,2.26,0,.24.04.48.04.72.61-.27,1.14-.58,1.6-.82.42-.24.49-.58-.08-.89-.42-.24-1.03-.72-1.63-1.27ZM132.07,8.64c-.53.38-1.6.41-2.2-.31-.57-.65-.99-1.09-2.01-1.61-.91-.44-1.86-.51-2.55-.31-.68.17-1.18.38-1.56.72-.23.24-.46.34-.68.21-.11-.1-.19-.31,0-.62.27-.41.68-.96,1.79-1.47,1.06-.51,2.43-.48,4.03-.17,1.41.27,2.55.92,3.12,1.68.57.75.65,1.47.08,1.88Z"/>
        <path class="cls-2" d="M111.55,68.67c1.9.79,2.89,1.4,2.89,1.85,0,.21-.34.34-.99.34-.38,0-.68-.03-.91-.03-3.19,1.57-7.18,2.8-12.01,3.62l-.53-.75c4.86-1.27,8.74-2.94,11.55-5.03ZM104.83,52.19v1.3h-2.13v-8.82c.76.27,1.6.62,2.43,1.03h23.25l1.52-1.54c1.52,1.06,2.28,1.74,2.28,2.05,0,.17-.11.27-.34.38l-.91.48v6.26h-2.13v-1.13h-23.97ZM104.83,51.33h6.38v-4.79h-6.38v4.79ZM125.49,54.89l1.48-1.44c1.52.99,2.32,1.64,2.32,1.98,0,.14-.11.24-.3.34l-.95.58v12.38h-2.2v-1.23h-17.93v1.5h-2.13v-15.11c1.06.38,1.82.68,2.28.85l.34.14h17.1ZM125.84,55.74h-17.93v2.87h17.93v-2.87ZM107.9,59.47v3.04h17.93v-3.04h-17.93ZM125.84,63.37h-17.93v3.28h17.93v-3.28ZM113.26,46.55v4.79h6.57v-4.79h-6.57ZM133.36,73.08c0,.68-.38,1.03-1.1,1.03-.27,0-.76-.21-1.44-.58-2.66-1.47-6.5-2.74-11.44-3.8l.46-.75c9,.92,13.53,2.29,13.53,4.1ZM121.88,51.33h6.92v-4.79h-6.92v4.79Z"/>
        <path class="cls-2" d="M102.47,95.95c.23-.44,1.1-.14,1.56.07.46.21,1.14.58,1.75,1.44.61.82.65,2.19.53,3.76-.11,1.61-.11,3.21-.11,5.51.04,2.33.65,3.45,1.1,3.97.46.51,1.33.96,1.98,1.2.65.24,1.63.21,1.98.14.34-.07.42-.34.46-.51,0-.17.08-.58.27-.92.23-.55.68-1.13,1.1-1.5.3-.27.68-.34.8-.24.15.1.19.31-.04.55-.19.27-.46.79-.53,1.44-.04.65.15,1.61.53,2.02.34.41.8.92.68,1.5-.11.55-1.06.68-2.09.62-1.75-.1-3.34-.58-4.71-1.57-1.37-1.03-2.66-2.7-3.04-3.97s-.57-3.11-.61-4.75c-.04-1.68-.08-4.21-.11-5.4,0-1.16-.46-1.81-.87-2.15-.38-.31-.76-.85-.61-1.16ZM124.28,99.65c.04-.27.3-.38.99-.31.72.07,2.09.27,3.12.82,1.63.92,2.43,1.95,2.93,2.94.49,1.03.57,2.56.46,3.35-.11.82-.65,1.16-1.41,1.13-.72,0-1.37-.34-1.56-.92-.23-.58.04-1.71.08-2.94s-.49-2.05-1.44-2.63c-.91-.55-1.98-.82-2.51-.92-.53-.07-.68-.27-.65-.51Z"/>
        <path class="cls-2" d="M129.07,144.39l1.94-2.33c1.06.89,1.94,1.71,2.62,2.5l-.42.68h-14.93c.99,3.59,2.43,6.57,4.37,8.96,2.28-2.19,4.22-4.45,5.93-6.8,1.86,1.13,2.81,1.95,2.81,2.39,0,.27-.3.41-.87.41-.23,0-.53-.03-.95-.1-1.82,1.71-3.91,3.32-6.27,4.86,2.51,2.67,6.12,4.86,10.87,6.63-.76.58-1.41,1.27-1.94,2.05-4.52-2.09-7.9-4.58-10.14-7.45-1.75-2.26-3-4.86-3.84-7.86v16c0,2.05-1.41,3.08-4.18,3.08-.08-.79-.53-1.33-1.44-1.64-.65-.21-1.94-.44-3.8-.72v-.92c2.24.21,4.18.34,5.77.34.87,0,1.33-.38,1.33-1.16v-18.05h-14.89l-.3-.85h15.2v-7.59c2.62.03,3.91.34,3.91.89,0,.27-.53.62-1.6.96v5.74h10.83ZM114.82,155.3c-3.8,2.77-7.41,5.03-10.83,6.8,0,1.03-.19,1.54-.53,1.54-.57,0-1.29-.96-2.24-2.91,4.45-1.61,8.85-3.73,13.26-6.29l.34.85ZM109.99,150.55c.87.89,1.33,1.68,1.33,2.43,0,.89-.49,1.33-1.41,1.33-.68,0-1.06-.31-1.25-.92-.68-2.09-2.17-3.93-4.37-5.44l.49-.62c2.28.92,4.03,2.02,5.21,3.21ZM126.18,139.84c.95.82,1.44,1.61,1.44,2.33,0,.85-.46,1.27-1.37,1.27-.68,0-1.14-.41-1.37-1.23-.34-1.3-1.44-2.56-3.27-3.86l.42-.62c1.79.58,3.19,1.3,4.14,2.12Z"/>
        <path class="cls-2" d="M103.19,204.2c-.19-1.54-.23-3.28.49-5.09.72-1.81,1.71-3.15,3.23-4.58.23-.24.46-.44.72-.65-.34-.79-.65-1.47-.95-1.98-.42-.75-.84-1.23-1.37-1.64-.46-.34-.87-.89-.49-1.27.3-.38.87-.21,1.37.17.38.27.76.62,1.37,1.33.49.58,1.1,1.5,1.6,2.33.87-.55,1.82-.96,2.89-1.3,1.6-.48,3.27-.79,5.36-.92.11-.68.15-1.2.08-1.64-.15-.89-.57-1.64-.95-2.29-.27-.44-.61-.99-.38-1.33.23-.34,1.33-.07,1.79.14.46.21,1.22.68,1.52,1.61.27.85.15,2.09-.19,3.45,1.48,0,2.7.21,4.18.62,1.82.48,3.57,1.37,4.83,2.6,1.22,1.23,2.09,2.36,2.54,4.07.46,1.68.49,3.52-.04,5.03-.42,1.27-1.14,2.77-2.58,4.34-1.06,1.16-2.51,2.15-4.03,2.91-1.25.58-2.81.99-4.45,1.27-1.48.27-2.77.31-3.38.31s-.91-.1-.91-.27.23-.27.65-.34c.49-.07,1.33-.21,2.39-.41,1.63-.27,3.42-.82,4.9-1.71,2.66-1.61,4.1-3.32,4.86-6.36s.04-5.85-1.71-7.73c-1.75-1.85-4.52-2.87-7.67-2.91-.34,1.13-.72,2.26-1.1,3.59-.38,1.3-.8,2.36-1.18,3.28.04.21.04.44.04.65.04.72-.34,1.71-.65,2.26-.27.41-.65.89-1.14,1.06-.34.72-.72,1.4-1.06,1.95-.87,1.5-2.17,2.94-3.38,3.62-1.18.65-2.96.89-4.52-.07s-2.51-2.53-2.66-4.07ZM105.09,203.75c.53,1.37,1.86,2.05,3.31,1.88,1.48-.17,2.7-.92,3.57-2.02.27-.34.61-.85.91-1.4-.38-.24-.84-.48-1.29-.79-1.03-.68-1.98-1.88-2.39-2.84-.38-.92-.61-2.05-1.06-3.39-1.25,1.06-2.2,2.33-2.74,3.45-.8,1.74-.84,3.73-.3,5.1ZM110.49,193.7c-.23.1-.42.21-.65.34.46.79,1.06,1.78,1.44,2.7.46,1.16,1.29,2.33,1.82,2.74.3.27.68.44.91.51.23-.51.46-1.06.68-1.61.8-1.95,1.33-3.42,2.05-5.44.11-.34.23-.68.34-.96-2.55.17-4.71.79-6.61,1.71Z"/>
        <path class="cls-2" d="M109.99,243.79c-.19.44-.76,2.05-1.22,3.15-.46,1.06-1.14,3.25-1.67,4.89-.53,1.61-.27,3.18-.04,3.97.27.82.15,1.88-.49,1.98s-1.22,0-1.82-1.06c-.65-1.06-.91-2.74-1.03-4.45-.11-1.71,0-3.32.19-4.79.15-1.44.61-3.04.99-4.55.38-1.54.65-2.94.68-4.34.04-1.4-.34-2.19-.76-2.74-.42-.51-.57-.92-.27-1.23.3-.34,1.06-.14,1.48.27.42.38.99.99,1.48,2.09.42.89.34,2.19-.04,3.25-.34,1.03-1.03,2.77-1.6,4.72-.57,1.98-.57,4.34-.57,4.96,0,.65.49.55.61.21.27-.75.95-2.53,1.52-3.59.53-1.03.87-1.44,1.71-3.01.23-.44.57-.79.84-.62.19.07.19.44,0,.89ZM130.66,256.88c-.23.41-1.1.44-1.67-.07-.53-.48-1.79-1.4-2.89-2.15-.42-.27-.91-.55-1.41-.82,0,.34-.04.62-.04.82-.11,1.16-1.25,2.8-3.3,3.11-2.32.34-4.22.21-5.85-.51-1.63-.72-2.36-1.81-2.2-2.91.11-.96.8-2.05,2.43-2.56,1.63-.48,3.15-.65,4.94-.48.68.07,1.41.17,2.13.31,0-.89-.04-1.85-.04-2.63-.04-1.27-.08-2.74-.08-4.45,0-.79.04-1.68.04-2.5-1.18.03-2.47.03-3.53-.24-1.22-.27-2.17-.72-2.93-1.37-.76-.68-.8-1.4-.61-1.5.38-.17.84.17,1.41.55.57.34,1.37.62,1.98.72,1.25.24,2.24.38,3.72.31.04-.34.04-.65,0-.92,0-1.37-.08-2.67-.27-3.83-.15-1.13-.3-1.54-.8-1.98-.53-.48-.72-.89-.46-1.3.19-.31.68-.34,1.6-.03.95.34,1.67.85,2.13,2.02.3.82.23,1.98.08,3.11.68.34,1.44.62,2.09.75.84.21,1.82.27,2.24.58.38.31.3,1.27-.68,1.91-.91.58-2.51.89-4.14,1.06-.04.96-.11,1.88-.08,2.43.08,1.23.11,3.35.27,5.27.04.82.04,1.68.04,2.5.53.14,1.06.31,1.56.48,1.63.55,2.85,1.13,3.72,2.05s.84,1.88.61,2.29ZM122.76,252.98c-.19-.07-.42-.14-.65-.21-1.41-.48-3.34-.51-4.64-.34-1.25.14-2.62.75-2.74,1.88s.57,1.78,2.36,2.09c1.82.34,3,.1,3.91-.44,1.18-.72,1.75-1.78,1.75-2.94v-.03ZM124.96,238.21c-.04.24-.08.48-.11.72-.04.38-.08.82-.15,1.33.65-.14,1.18-.27,1.6-.41.42-.1.42-.34.15-.51-.23-.17-.91-.65-1.48-1.13Z"/>
        <path class="cls-2" d="M1.79,20.34c-.08-.68.53-1.3,1.48-1.54.95-.24,2.28-.14,3.15.21.72-.27,1.56-.75,2.2-1.09.49-.24,1.82-.92,3.19-1.68-.04-1.3-.08-2.94-.11-4.72,0-.51,0-1.03-.04-1.5-.91.24-1.71.41-2.24.48-.91.14-1.94.1-2.93-.27-.76-.27-1.48-.89-1.75-1.09-.27-.24-.53-.65-.19-.89.34-.31.72-.21,1.1.03.38.27.8.48,1.63.79.8.27,1.67.24,2.39.1.57-.14,1.14-.34,1.94-.68-.08-1.13-.11-2.05-.15-2.53-.04-.82-.23-1.92-.42-2.7-.19-.75-.8-1.44-1.37-1.74-.57-.31-.42-.72-.19-.96.15-.21.57-.31,1.22-.17.65.14,1.48.65,1.86.96s.72.96.8,1.57c0,.14.04.38.04.68.72.44,1.6.85,2.32,1.16.87.41,1.67.41,2.28.44.61.03.91.21,1.06.75.19.58-.19,1.23-1.1,1.74-.95.51-2.43,1.16-4.1,1.68-.08.03-.15.03-.23.07,0,.85,0,1.64.04,2.19v3.59c1.79-1.03,3.95-2.12,6.38-2.87,2.47-.75,5.05-.51,6.92.27,1.71.75,3.04,2.22,3.12,3.9.08,1.68-.61,3.11-2.2,4.96-1.6,1.88-3.53,2.74-5.89,3.01-2.13.24-3.65-.62-3.95-1.92-.34-1.33-.27-2.74.11-4.1.42-1.37.95-2.46,1.37-2.91.46-.48.95,0,.65.41-.34.41-.65.96-1.03,2.53-.34,1.5.11,3.66,1.6,3.97,1.52.34,3.23-.24,4.71-1.44,1.48-1.2,2.17-2.67,2.28-3.86.08-1.16-.3-2.19-1.25-2.91-.95-.68-2.58-1.03-4.29-.92-1.71.14-3.84.75-5.7,1.71-.91.48-1.86.99-2.81,1.54v2.29c0,.79.08,1.68.19,2.43.15.75-.19,1.4-.49,1.95-.3.55-.76,1.03-1.06,1.2-.3.21-.61.17-.87.17-.3,0-.53-.1-.68-.31-.15-.17-.57-.68-1.14-1.5-.46-.65-1.06-1.54-2.05-2.36-.23.17-.49.31-.72.41-1.06.51-2.01.65-3.12.62-1.1-.07-1.86-.48-1.94-1.13ZM3.27,19.86c.08.14.38.21.76.14.46-.03.8-.14,1.37-.41-1.29-.34-2.28,0-2.13.27ZM8.51,19.86c.72.34,1.33.65,1.86.99.72.41,1.03.58,1.22.51.3-.1.38-.48.38-.92s-.04-1.57-.08-2.8c-.38.24-.76.48-1.1.72-.87.58-1.63,1.09-2.28,1.5ZM13.49,4.68c.04.79.08,1.61.08,2.26,0,.24.04.48.04.72.61-.27,1.14-.58,1.6-.82.42-.24.49-.58-.08-.89-.42-.24-1.03-.72-1.63-1.27ZM32.07,8.64c-.53.38-1.6.41-2.2-.31-.57-.65-.99-1.09-2.01-1.61-.91-.44-1.86-.51-2.55-.31-.68.17-1.18.38-1.56.72-.23.24-.46.34-.68.21-.11-.1-.19-.31,0-.62.27-.41.68-.96,1.79-1.47,1.06-.51,2.43-.48,4.03-.17,1.41.27,2.55.92,3.12,1.68.57.75.65,1.47.08,1.88Z"/>
        <path class="cls-2" d="M13.68,70.82c2.28.65,5.66.96,10.14.96,3.04,0,6.57-.17,10.56-.51-.61.96-.95,1.74-1.1,2.36h-7.79c-5.17,0-9.04-.34-11.63-1.06-2.81-.72-4.9-2.19-6.31-4.38-1.33,1.54-2.93,3.15-4.79,4.89,0,.92-.19,1.37-.53,1.37-.49,0-1.25-.89-2.24-2.63,1.79-.79,3.72-1.95,5.85-3.45v-9.16H.46l-.42-.85h5.51l1.44-1.54c1.44,1.06,2.2,1.74,2.2,2.05,0,.21-.15.34-.38.48l-.8.44v7.08c1.22,1.92,3.12,3.25,5.66,3.97ZM8.4,50.31c0,.89-.46,1.33-1.37,1.33-.57,0-1.03-.38-1.37-1.13-.68-1.71-2.09-3.28-4.22-4.72l.53-.68c4.26,1.61,6.42,3.35,6.42,5.2ZM26.25,69.8h-2.2v-13.99h-7.64v.07c0,5.57-1.63,10.05-4.83,13.4l-.8-.58c2.24-3.25,3.38-7.52,3.38-12.79v-8.75c1.1.44,1.9.82,2.36,1.09,4.79-.82,8.81-1.95,12.12-3.45,1.67,1.06,2.54,1.81,2.54,2.26,0,.21-.23.31-.65.31-.27,0-.68-.07-1.25-.21-3.99.85-8.28,1.54-12.88,2.05v5.74h13.22l1.79-2.19c.84.68,1.63,1.47,2.43,2.36l-.42.68h-7.18v13.99Z"/>
        <path class="cls-2" d="M14.44,102.09c-.72,1.13-1.1,2.39-1.1,2.87,0,.44.76,1.09,1.25,1.71.49.62,1.67,1.85,2.81,3.08,1.1,1.2,2.13,2.5,2.89,3.86.87,1.5,1.37,2.97,1.37,4.14s-.34,1.78-1.03,1.88c-.72.1-1.29-.31-1.48-1.03-.19-.75-.42-1.54-.84-2.8-.38-1.23-1.22-2.6-2.05-4.1-.8-1.47-2.09-3.11-2.7-3.86-.61-.79-1.67-1.78-1.75-2.7-.08-.89.65-2.46,1.41-3.76.76-1.3,2.39-3.42,3.38-4.51.99-1.09,2.51-2.56,2.89-3.08.38-.51.23-1.2.11-1.61s-.15-.79.19-.96c.53-.24,1.1.14,1.71.65.65.51.99,1.23.91,1.95-.04.72-.49,1.4-1.33,2.05-.84.68-2.47,1.74-3.57,2.63-1.1.92-2.36,2.46-3.08,3.59Z"/>
        <path class="cls-2" d="M31.69,150.86c.15,2.09.04,3.49-.53,5.23-.57,1.74-1.9,3.59-4.1,4.79-2.17,1.16-4.14,1.81-6.95,2.29-2.81.51-5.36.27-6.8.03-.42-.03-.65-.21-.61-.41.04-.17.27-.34.61-.27.38.03,1.21.1,2.24.1,1.63-.03,3.42-.21,5.05-.65,1.67-.44,3.46-1.2,5.17-2.26,1.67-1.06,3.19-3.15,3.61-5.37.42-2.19.11-4.27-.53-6.29-.76-2.26-1.94-3.62-3.72-4.68-1.86-1.09-4.67-1.64-7.33-1.4-.34.03-.72.1-1.1.14.08.75.11,1.98.11,2.91.04,1.27-.15,3.11-.61,5.23-.49,2.15-1.37,4.75-2.96,6.67-1.6,1.91-3.57,3.21-5.55,3.21s-3.34-1.03-4.29-2.91c-.91-1.85-1.1-3.45-.57-5.64.49-2.12,1.41-3.8,2.85-5.3,1.44-1.5,3.04-2.84,5.4-3.97,2.47-1.16,5.36-1.71,7.98-1.68,2.58.03,4.94.62,6.73,1.57,1.98,1.06,3.5,2.5,4.41,4,.87,1.4,1.37,2.53,1.52,4.65ZM15.43,142.38c-1.9.44-3.76,1.2-5.32,2.19-2.24,1.44-4.22,3.49-5.05,5.57-.87,2.09-.87,4.48-.3,5.78.57,1.3,2.01,1.57,3.69,1.09,1.67-.48,3.04-1.4,4.29-3.15,1.22-1.71,2.05-3.62,2.43-6.09.34-2.09.34-3.9.27-5.4Z"/>
        <path class="cls-2" d="M32.03,193.87c.65.72.72,1.23.38,1.47-.23.21-.68.14-1.1.03-.8-.17-1.71-.27-3.61-.38-1.41-.07-2.93-.07-4.67-.1-.04.62-.04,1.2-.04,1.74-.04,1.91-.23,3.49-.76,5.27-.57,1.78-1.25,3.18-2.43,4.75-1.22,1.57-2.81,2.84-4.37,3.73-1.56.85-2.74,1.4-4.14,1.81-.57.17-.72-.44-.23-.62s1.14-.51,2.36-1.09c2.09-1.03,3.57-2.19,4.94-4.51,1.33-2.22,1.98-5.23,2.17-7.63.08-1.2.19-2.36.27-3.45-2.36,0-4.07.07-5.85.21-.11,0-.19,0-.3.03v1.06c0,.92.08,2.5.08,3.08.04,1.13.46,2.98-1.14,2.98-1.63-.03-1.33-2.05-1.25-2.94.08-.82.08-2.43.11-3.93-.8.07-1.6.17-2.47.27-1.79.17-3.42.27-4.94.21-1.48-.03-2.28-.55-2.77-.96-.46-.38-.87-1.03-.42-1.44.65-.55,1.9.03,2.89.27,1.03.24,1.9.27,4.25.24,1.29-.03,2.39-.1,3.46-.14v-.62c.04-1.85-.08-3.11-.23-3.8-.19-.68-.65-1.2-1.18-1.47-.53-.27-.76-.68-.49-1.03.34-.38,1.03-.38,1.86-.07.72.27,1.41.72,1.75,1.4.3.68.27,1.54.3,2.94.04.68.08,1.64.11,2.56.15,0,.34-.03.53-.03,1.48-.03,3.8-.14,5.78-.21.04-.58.08-1.13.11-1.64.08-1.81-.04-3.15-.27-4.24-.19-1.09-.65-1.47-1.29-1.85-.46-.31-.84-.72-.53-.99.42-.41,1.18-.17,1.67,0,.95.34,1.75.99,2.47,1.98.61.85.3,2.22.19,3.83-.04.79-.11,1.81-.15,2.84,1.44-.03,2.47-.1,3.46-.24,1.1-.17,1.75-.34,2.89-.34,1.14-.03,1.98.27,2.62.99Z"/>
        <path class="cls-2" d="M28.34,236.7c.49.51.15,1.03-.27,1.44-.42.38-.84.79-.95,1.2-.15.44-.53,2.26-.99,4.27-.34,1.57-.95,4.62-1.18,5.78.3.03.57.14.8.24.91.48,1.1,1.16.84,1.54-.23.38-1.06.44-2.81.41-1.71-.03-5.02-.17-7.33-.14-1.94.03-3.91.1-5.21.17v1.13c-.04.82-.61,1.74-1.33,1.74-.76-.03-.72-.79-.84-2.26-.11-1.5-.3-3.42-.42-5.57-.15-2.19-.42-5.3-.57-6.63-.11-1.3-.68-2.02-1.41-2.36-.72-.38-1.14-.72-.99-1.3.08-.38.46-.55,1.37-.51,1.06.03,1.94.27,2.66.85.61.44,1.03.99,1.1,1.44,1.1-.14,2.92-.31,4.45-.48,2.39-.24,5.66-.62,6.69-.75.99-.1,1.71-.21,2.36-.75.65-.55,1.03-.92,1.94-.68.91.24,1.6.72,2.09,1.23ZM22.19,249.36c.46-.03.91-.07,1.37-.07.34-3.56.65-5.74.76-7.42.08-.89.15-2.02.15-2.46,0-.41-.27-.92-.8-.89s-3.57.21-5.32.34c-1.79.17-3.57.34-4.86.44-.76.07-1.98.21-2.81.31,0,.27,0,.58.04.92.15,1.44.3,4.65.38,6.53.04.92.08,2.12.11,3.18,1.06-.1,3.27-.27,4.75-.38,2.01-.17,4.98-.41,6.23-.51Z"/>
        <path class="cls-2" d="M4.18,284.37c-.99-.44-1.48-.68-1.33-1.06.19-.38.84-.31,1.71-.21.91.1,1.9.34,3.08.75,1.18.44,1.86.79,2.93,1.64,1.03.82,1.63,2.26.57,2.84-.84.44-2.05-.07-3.15-1.2-1.44-1.47-2.47-2.19-3.8-2.77ZM31.23,283.82c-.53.75-1.29,1.92-2.93,4-1.48,1.91-3.08,3.73-5.32,5.68-2.28,1.98-4.64,3.52-7.14,5.03-2.51,1.5-4.83,2.39-6.57,2.8-1.75.38-2.54.1-3.27-.65-.76-.75-.95-2.12-.49-2.46l1.37.27c.42.24,1.14.27,1.98.24,1.44-.1,4.18-.92,6.16-2.09s4.64-3.01,6.57-4.58c1.94-1.57,3.27-2.63,5.36-4.89s3.12-3.45,3.38-3.8c.3-.34.65-.51.87-.41.27.1.34.38.04.85Z"/>
        <path class="cls-2" d="M4.14,332.42c-.57-.51-1.03-1.4-.61-1.85.34-.38,1.06-.1,1.63.1.61.24,1.25.38,2.47.38,1.25-.03,3.69-.68,5.02-1.06,1.33-.38,4.26-1.2,6.84-1.81,2.55-.58,5.47-1.27,6.8-1.44,1.33-.21,3.04-.07,3.76.34.68.41,1.1,1.06.84,1.5-.3.48-.8.44-1.44.38-.68-.1-1.52-.31-2.55-.31-1.03-.03-2.96.21-4.71.44-.08,0-.15.03-.27.03-.57.41-1.44.99-2.17,1.57-1.03.82-1.75,1.54-2.36,2.84-.46.99-.61,2.39-.91,3.86-.27,1.44-.42,3.86-.11,6.02.19,1.3.68,2.15,1.63,2.84.84.62,2.09.85,3.46.75,1.41-.1,2.32,0,2.96.1.68.14,1.41.65,1.75,1.09s-.04,1.03-.95,1.09c-.95.1-2.43.1-4.07,0-1.6-.1-3.19-.44-4.56-1.47-1.1-.79-1.6-1.88-1.9-3.52-.3-1.68-.34-3.52-.08-5.47.27-1.98.65-3.42.95-4.58.3-1.2,1.03-2.33,1.86-3.08.49-.44,1.37-1.13,2.01-1.57-.72.17-1.44.38-2.17.62-1.6.55-4.07,1.5-5.4,1.95-1.37.44-2.89,1.13-4.37,1.23-1.52.14-2.74-.38-3.38-.99ZM26.41,335.01c-.61-.58-1.41-1.13-2.47-1.78-.34-.21-.53-.48-.34-.75.15-.17.49-.14.72-.14.65.03,1.41.21,2.28.48.87.27,2.13.89,2.54,1.54.38.62,0,1.2-.61,1.37-.61.14-1.52-.17-2.13-.72ZM29.75,333.44c-.65-.68-1.37-1.09-2.62-1.57-.34-.14-.53-.48-.38-.72.15-.21.49-.17.72-.17.65-.03,1.44.1,2.32.34s2.13.79,2.58,1.44c.42.62.08,1.23-.53,1.4-.57.17-1.56-.14-2.09-.72Z"/>
      </g>
    </g>
  </g>
</svg>