<svg width="50" height="40" viewBox="0 0 50 40" fill="none" xmlns="http://www.w3.org/2000/svg">
<mask id="mask0_81_11266" style="mask-type:alpha" maskUnits="userSpaceOnUse" x="0" y="0" width="50" height="40">
<rect width="50" height="40" fill="#D9D9D9"/>
</mask>
<g mask="url(#mask0_81_11266)">
<path d="M27.1053 4C23.1811 4 20 7.21649 20 11.1842C20 13.664 21.2426 15.8503 23.1325 17.1414L22.2294 20.0635C22.0114 20.769 22.8622 21.3075 23.3946 20.8009L26.0356 18.2876C26.3845 18.3408 26.7417 18.3685 27.1053 18.3685H39.8947C43.8189 18.3685 47 15.152 47 11.1842C47 7.21649 43.8189 4 39.8947 4H27.1053Z" fill="#FFD8C2"/>
<path d="M42.125 8C45.922 8 49 11.2165 49 15.1842C49 17.664 47.7977 19.8503 45.969 21.1414L46.8428 24.0635C47.0538 24.769 46.2305 25.3075 45.7154 24.8009L41.8912 22.2876C41.5536 22.3408 41.208 22.3685 40.8562 22.3685H32.6062C28.8093 22.3685 27 19.152 27 15.1842C27 11.2165 30.078 8 33.875 8H42.125Z" stroke="#FFB083" stroke-width="2" stroke-miterlimit="10" stroke-linecap="round" stroke-linejoin="round" stroke-dasharray="1 3"/>
<path d="M15.0822 28.9834C15.7698 28.2671 16.2912 27.5972 16.9326 27.0716C18.4369 25.8389 19.9597 25.9086 21.3348 27.2716C22.5576 28.481 23.4482 29.9277 23.8773 31.6163C24.2557 33.0955 23.7527 34.2863 22.4515 35.0678C20.9841 35.947 19.3829 36.1424 17.7078 35.9098C14.3716 35.4446 11.6122 33.8398 9.29111 31.4628C5.99641 28.0856 3.61075 24.1503 2.45714 19.5219C1.78804 16.8192 1.8388 14.1166 2.70632 11.4465C3.19083 9.94868 4.02143 8.68342 5.2904 7.74843C6.71626 6.6925 8.14673 6.74366 9.42954 7.96706C10.7862 9.26953 11.7644 10.8279 12.1428 12.7071C12.3874 13.9305 11.9675 14.9306 10.9662 15.6703C10.1356 16.2843 9.18498 16.5866 8.17903 16.7169C7.86064 16.7588 7.7222 16.8704 7.75912 17.1821C7.86525 18.131 7.86064 19.1125 8.1052 20.0289C8.94503 23.1595 10.6247 25.7737 13.1765 27.7786C13.7902 28.2578 14.4962 28.6113 15.0915 28.9834H15.0822Z" fill="#F97930"/>
</g>
</svg>
