<svg width="55" height="54" viewBox="0 0 55 54" fill="none" xmlns="http://www.w3.org/2000/svg">
<path d="M50.5709 53.0019V47.3019H47.9609V46.4219H54.1609V47.3019H51.5509V53.0019H50.5709Z" fill="#EE7800"/>
<path d="M43.7783 53.1208C41.4083 53.1208 40.2383 51.6208 40.2383 49.7708C40.2383 47.8608 41.6883 46.3008 43.7583 46.3008C45.1883 46.3008 45.8383 46.8408 46.3183 47.2508L45.7883 48.0108C45.1983 47.4908 44.5483 47.1808 43.6983 47.1808C42.1483 47.1808 41.2183 48.3308 41.2183 49.7708C41.2183 51.1808 42.1683 52.2408 43.7783 52.2408C44.8983 52.2408 45.5683 51.6508 46.0383 51.2208L46.5583 51.8908C46.1883 52.3308 45.2983 53.1208 43.7783 53.1208Z" fill="#EE7800"/>
<path d="M35.0806 46.4219H35.8006L38.7406 53.0019H37.7106L36.9206 51.2419H33.9506L33.1706 53.0019H32.1406L35.0806 46.4219ZM34.7706 49.4219L34.2706 50.5219H36.6006L36.1106 49.4219C35.9206 48.9919 35.4606 47.6419 35.4606 47.6419H35.4206C35.4206 47.6419 34.9606 48.9819 34.7706 49.4219Z" fill="#EE7800"/>
<path d="M28.0592 53.0019V47.3019H25.4492V46.4219H31.6492V47.3019H29.0392V53.0019H28.0592Z" fill="#EE7800"/>
<path d="M22.4156 49.9219V46.4219H23.3956V53.0019H22.5156L18.4156 47.9719H18.3956C18.3956 47.9719 18.4956 49.1019 18.4956 49.6419V53.0019H17.5156V46.4219H18.3956L22.4956 51.4519H22.5156C22.5156 51.4519 22.4156 50.3019 22.4156 49.9219Z" fill="#EE7800"/>
<path d="M11.6641 46.3008C13.6241 46.3008 15.1641 47.7608 15.1641 49.6708C15.1641 51.6508 13.7341 53.1208 11.6641 53.1208C9.69406 53.1208 8.16406 51.7508 8.16406 49.6708C8.16406 47.7608 9.70406 46.3008 11.6641 46.3008ZM11.6641 47.1808C10.2541 47.1808 9.18406 48.1808 9.18406 49.6708C9.18406 51.3108 10.2641 52.2408 11.6641 52.2408C13.0641 52.2408 14.1441 51.3108 14.1441 49.6708C14.1441 48.1808 13.0741 47.1808 11.6641 47.1808Z" fill="#EE7800"/>
<path d="M3.68062 53.1208C1.31062 53.1208 0.140625 51.6208 0.140625 49.7708C0.140625 47.8608 1.59062 46.3008 3.66062 46.3008C5.09063 46.3008 5.74063 46.8408 6.22062 47.2508L5.69063 48.0108C5.10063 47.4908 4.45063 47.1808 3.60063 47.1808C2.05063 47.1808 1.12063 48.3308 1.12063 49.7708C1.12063 51.1808 2.07062 52.2408 3.68062 52.2408C4.80063 52.2408 5.47062 51.6508 5.94062 51.2208L6.46063 51.8908C6.09063 52.3308 5.20062 53.1208 3.68062 53.1208Z" fill="#EE7800"/>
<path d="M45.2803 37.3948C44.6003 37.3948 44.0643 37.3388 43.6723 37.2268C43.2803 37.1068 43.0043 36.9028 42.8443 36.6148C42.6843 36.3268 42.6043 35.9308 42.6043 35.4268V32.2468C42.0603 32.3028 41.5563 32.3668 41.0923 32.4388C40.6363 32.5108 40.2563 32.5788 39.9523 32.6428L39.8203 31.5508C40.1483 31.5028 40.5523 31.4548 41.0323 31.4068C41.5123 31.3508 42.0363 31.2948 42.6043 31.2388V28.5868H43.6483V31.1428C44.1203 31.1028 44.5963 31.0668 45.0763 31.0348C45.5563 30.9948 46.0283 30.9588 46.4923 30.9268V28.2148H47.5603V30.8548C48.0963 30.8228 48.5883 30.7988 49.0363 30.7828C49.4923 30.7668 49.8723 30.7588 50.1763 30.7588V31.8748C49.5203 31.8348 48.6483 31.8348 47.5603 31.8748V32.7028C47.5603 33.1028 47.4923 33.4348 47.3563 33.6988C47.2283 33.9548 47.0043 34.1548 46.6843 34.2988C46.3723 34.4348 45.9363 34.5268 45.3763 34.5748C45.3443 34.4148 45.2923 34.2348 45.2203 34.0348C45.1483 33.8348 45.0683 33.6788 44.9803 33.5668C45.5563 33.5508 45.9523 33.4788 46.1683 33.3508C46.3843 33.2148 46.4923 32.9988 46.4923 32.7028V31.9348C46.0283 31.9588 45.5563 31.9908 45.0763 32.0308C44.5963 32.0628 44.1203 32.0988 43.6483 32.1388V35.2948C43.6483 35.5828 43.6963 35.8028 43.7923 35.9548C43.8963 36.0988 44.0683 36.1988 44.3083 36.2548C44.5483 36.3108 44.8843 36.3388 45.3163 36.3388C45.5963 36.3388 45.9283 36.3268 46.3123 36.3028C46.7043 36.2708 47.1003 36.2308 47.5003 36.1828C47.9003 36.1268 48.2563 36.0588 48.5683 35.9788C48.5123 36.1308 48.4683 36.3308 48.4363 36.5788C48.4043 36.8268 48.3923 37.0148 48.4003 37.1428C47.9123 37.2228 47.3803 37.2868 46.8043 37.3348C46.2363 37.3748 45.7283 37.3948 45.2803 37.3948Z" fill="#2C2C2C"/>
<path d="M29.6821 38.1256V33.6976H36.4981V38.1256H29.6821ZM27.9061 32.7976C27.8421 32.6616 27.7421 32.5016 27.6061 32.3176C27.4701 32.1256 27.3501 31.9856 27.2461 31.8976C27.7741 31.6816 28.3021 31.4056 28.8301 31.0696C29.3581 30.7336 29.8621 30.3576 30.3421 29.9416C30.8301 29.5256 31.2701 29.0896 31.6621 28.6336C32.0541 28.1776 32.3701 27.7216 32.6101 27.2656L33.6181 27.4096C33.9621 27.9696 34.4101 28.5256 34.9621 29.0776C35.5221 29.6216 36.1421 30.1176 36.8221 30.5656C37.5021 31.0136 38.1981 31.3776 38.9101 31.6576C38.8621 31.7216 38.7941 31.8216 38.7061 31.9576C38.6261 32.0856 38.5461 32.2176 38.4661 32.3536C38.3861 32.4896 38.3221 32.6016 38.2741 32.6896C37.6101 32.3776 36.9501 32.0016 36.2941 31.5616C35.6461 31.1136 35.0461 30.6216 34.4941 30.0856C33.9421 29.5416 33.4741 28.9776 33.0901 28.3936C32.7621 28.9216 32.3341 29.4496 31.8061 29.9776C31.2861 30.5056 30.7221 30.9936 30.1141 31.4416H36.1141V32.4496H30.0541V31.4896C29.7021 31.7536 29.3421 31.9976 28.9741 32.2216C28.6141 32.4376 28.2581 32.6296 27.9061 32.7976ZM30.8101 37.1296H35.3581V34.6936H30.8101V37.1296Z" fill="#2C2C2C"/>
<path d="M23.9337 38.2344C23.9177 38.0824 23.8857 37.8984 23.8377 37.6824C23.7897 37.4664 23.7417 37.3024 23.6937 37.1904H24.5577C24.7257 37.1904 24.8417 37.1624 24.9057 37.1064C24.9777 37.0424 25.0137 36.9384 25.0137 36.7944V31.6704H21.6177V27.7344H26.0937V37.1424C26.0937 37.5104 25.9937 37.7824 25.7937 37.9584C25.6017 38.1424 25.2857 38.2344 24.8457 38.2344H23.9337ZM16.0977 38.2584V27.7344H20.5617V31.6704H17.1657V38.2584H16.0977ZM18.9057 36.2304V32.7744H23.2137V36.2304H18.9057ZM19.9617 35.3784H22.1577V33.6384H19.9617V35.3784ZM17.1657 30.8784H19.5177V30.0504H17.1657V30.8784ZM22.6617 30.8784H25.0137V30.0504H22.6617V30.8784ZM17.1657 29.3424H19.5177V28.5264H17.1657V29.3424ZM22.6617 29.3424H25.0137V28.5264H22.6617V29.3424Z" fill="#2C2C2C"/>
<path d="M7.34931 37.6809C6.79731 37.7529 6.30131 37.7369 5.86131 37.6329C5.42931 37.5369 5.08531 37.3609 4.82931 37.1049C4.57331 36.8409 4.44531 36.5049 4.44531 36.0969C4.44531 35.5289 4.67331 34.9849 5.12931 34.4649C5.59331 33.9449 6.21731 33.5249 7.00131 33.2049V31.1169C6.56131 31.1569 6.12931 31.1849 5.70531 31.2009C5.28931 31.2169 4.90131 31.2169 4.54131 31.2009L4.46931 30.1209C4.78931 30.1529 5.16931 30.1649 5.60931 30.1569C6.05731 30.1409 6.52131 30.1089 7.00131 30.0609V27.9609H8.03331V29.9409C8.45731 29.8769 8.84931 29.8049 9.20931 29.7249C9.57731 29.6449 9.88531 29.5569 10.1333 29.4609L10.2653 30.4809C9.64131 30.6969 8.89731 30.8649 8.03331 30.9849V32.8689C8.66531 32.7169 9.34131 32.6369 10.0613 32.6289C10.7893 32.6289 11.4133 32.7369 11.9333 32.9529C12.4533 33.1689 12.8533 33.4649 13.1333 33.8409C13.4213 34.2089 13.5653 34.6289 13.5653 35.1009C13.5653 35.8369 13.3333 36.4089 12.8693 36.8169C12.4133 37.2169 11.8173 37.4129 11.0813 37.4049C9.86531 37.3889 9.07331 36.7809 8.70531 35.5809C8.83331 35.5409 9.00531 35.4769 9.22131 35.3889C9.44531 35.2929 9.60931 35.2049 9.71331 35.1249C9.82531 35.5169 9.98931 35.8129 10.2053 36.0129C10.4213 36.2049 10.7133 36.3009 11.0813 36.3009C11.4813 36.3089 11.8013 36.2009 12.0413 35.9769C12.2893 35.7529 12.4133 35.4569 12.4133 35.0889C12.4133 34.6409 12.2013 34.2809 11.7773 34.0089C11.3613 33.7289 10.7893 33.5889 10.0613 33.5889C9.69331 33.5889 9.33731 33.6169 8.99331 33.6729C8.65731 33.7209 8.33731 33.7889 8.03331 33.8769V36.9609C8.03331 37.1929 7.98131 37.3609 7.87731 37.4649C7.77331 37.5769 7.59731 37.6489 7.34931 37.6809ZM13.4933 32.1849C13.3013 31.9929 13.0453 31.7849 12.7253 31.5609C12.4133 31.3369 12.0853 31.1249 11.7413 30.9249C11.3973 30.7249 11.0853 30.5729 10.8053 30.4689L11.4053 29.6169C11.6693 29.7289 11.9733 29.8809 12.3173 30.0729C12.6613 30.2649 12.9973 30.4689 13.3253 30.6849C13.6613 30.9009 13.9333 31.1049 14.1413 31.2969C14.0853 31.3529 14.0093 31.4449 13.9133 31.5729C13.8253 31.6929 13.7373 31.8129 13.6493 31.9329C13.5693 32.0529 13.5173 32.1369 13.4933 32.1849ZM6.64131 36.7089C6.76931 36.7009 6.86131 36.6849 6.91731 36.6609C6.97331 36.6289 7.00131 36.5609 7.00131 36.4569V34.2849C6.53731 34.5169 6.17331 34.7889 5.90931 35.1009C5.64531 35.4129 5.51331 35.7289 5.51331 36.0489C5.51331 36.2809 5.61731 36.4529 5.82531 36.5649C6.04131 36.6689 6.31331 36.7169 6.64131 36.7089Z" fill="#2C2C2C"/>
<path d="M39.2809 1H15.0664V17.1092H39.2809V1Z" fill="#FFD8C2" stroke="#FFD8C2" stroke-width="2" stroke-miterlimit="10" stroke-linejoin="round"/>
<path d="M30.793 8.24219L39.2866 17.1073" stroke="#FFB083" stroke-width="2" stroke-miterlimit="10" stroke-linecap="round" stroke-linejoin="round" stroke-dasharray="1 3"/>
<path d="M23.5105 8.24219L15 17.1073" stroke="#FFB083" stroke-width="2" stroke-miterlimit="10" stroke-linecap="round" stroke-linejoin="round" stroke-dasharray="1 3"/>
<path d="M15.0664 1L25.2278 9.65917C26.3491 10.6147 27.9982 10.6147 29.1194 9.65917L39.2809 1" stroke="#F97930" stroke-width="2" stroke-miterlimit="10" stroke-linecap="round" stroke-linejoin="round"/>
</svg>
