<svg width="700" height="65" viewBox="0 0 700 65" fill="none" xmlns="http://www.w3.org/2000/svg">
<path d="M700 32.4228C700 38.1375 700 44.4609 697.604 50.1276C695.213 55.7358 690.624 60.1958 684.854 62.5171C679.023 64.8456 672.514 64.8456 666.635 64.8456H33.3649C27.4842 64.8456 20.977 64.8456 15.1456 62.5171C9.37445 60.194 4.78493 55.7341 2.39612 50.1276C-2.22524e-07 44.4609 0 38.1375 0 32.4228C0 26.7081 -2.22524e-07 20.3847 2.39612 14.718C4.78493 9.10976 9.37445 4.64983 15.1456 2.32846C20.977 0 27.4842 0 33.3649 0H666.635C672.516 0 679.023 0 684.854 2.32846C690.626 4.6516 695.215 9.11154 697.604 14.718C700 20.3847 700 26.7099 700 32.4228Z" fill="white"/>
</svg>
