<svg width="132" height="132" viewBox="0 0 132 132" fill="none" xmlns="http://www.w3.org/2000/svg">
<path d="M132 66.0008C132 77.6332 132 90.5062 127.262 102.042C122.534 113.456 113.456 122.535 102.042 127.262C90.5067 132 77.6322 132 66.0016 132C54.3694 132 41.4965 132 29.9613 127.262C18.5475 122.534 9.46786 113.456 4.74121 102.042C0 90.5062 0 77.6332 0 66.0008C0 54.3684 0 41.4954 4.73797 29.9601C9.46624 18.5445 18.5443 9.46635 29.9597 4.73803C41.4949 0 54.3678 0 66 0C77.6322 0 90.5051 0 102.04 4.73803C113.454 9.46635 122.534 18.5445 127.26 29.9585C131.998 41.4938 131.998 54.3684 131.998 65.9992L132 66.0008Z" fill="white"/>
</svg>
