<svg width="52" height="52" viewBox="0 0 52 52" fill="none" xmlns="http://www.w3.org/2000/svg">
<path d="M52 26.0003C52 30.5828 52 35.654 50.1335 40.1982C48.2709 44.6946 44.6947 48.2715 40.1983 50.1335C35.6542 52 30.5824 52 26.0006 52C21.4182 52 16.3471 52 11.8029 50.1335C7.30659 48.2708 3.72976 44.6946 1.86775 40.1982C0 35.654 0 30.5828 0 26.0003C0 21.4179 0 16.3467 1.86647 11.8025C3.72912 7.3054 7.30531 3.72917 11.8023 1.8665C16.3465 0 21.4176 0 26 0C30.5824 0 35.6535 0 40.1977 1.8665C44.6941 3.72917 48.2709 7.3054 50.1329 11.8018C51.9994 16.346 51.9994 21.4179 51.9994 25.9997L52 26.0003Z" fill="white"/>
</svg>
