<svg width="60" height="67" viewBox="0 0 60 67" fill="none" xmlns="http://www.w3.org/2000/svg">
<path d="M55.9281 65.9997V59.7297H53.0571V58.7617H59.8771V59.7297H57.0061V65.9997H55.9281Z" fill="#EE7800"/>
<path d="M48.4575 66.1319C45.8505 66.1319 44.5635 64.4819 44.5635 62.4469C44.5635 60.3459 46.1585 58.6299 48.4355 58.6299C50.0085 58.6299 50.7235 59.2239 51.2515 59.6749L50.6685 60.5109C50.0195 59.9389 49.3045 59.5979 48.3695 59.5979C46.6645 59.5979 45.6415 60.8629 45.6415 62.4469C45.6415 63.9979 46.6865 65.1639 48.4575 65.1639C49.6895 65.1639 50.4265 64.5149 50.9435 64.0419L51.5155 64.7789C51.1085 65.2629 50.1295 66.1319 48.4575 66.1319Z" fill="#EE7800"/>
<path d="M38.8912 58.7617H39.6832L42.9172 65.9997H41.7842L40.9152 64.0637H37.6482L36.7902 65.9997H35.6572L38.8912 58.7617ZM38.5502 62.0617L38.0002 63.2717H40.5632L40.0242 62.0617C39.8152 61.5887 39.3092 60.1037 39.3092 60.1037H39.2652C39.2652 60.1037 38.7592 61.5777 38.5502 62.0617Z" fill="#EE7800"/>
<path d="M31.1654 65.9997V59.7297H28.2944V58.7617H35.1144V59.7297H32.2434V65.9997H31.1654Z" fill="#EE7800"/>
<path d="M24.9579 62.6117V58.7617H26.0359V65.9997H25.0679L20.5579 60.4667H20.5359C20.5359 60.4667 20.6459 61.7097 20.6459 62.3037V65.9997H19.5679V58.7617H20.5359L25.0459 64.2947H25.0679C25.0679 64.2947 24.9579 63.0297 24.9579 62.6117Z" fill="#EE7800"/>
<path d="M13.1298 58.6299C15.2858 58.6299 16.9798 60.2359 16.9798 62.3369C16.9798 64.5149 15.4068 66.1319 13.1298 66.1319C10.9628 66.1319 9.27979 64.6249 9.27979 62.3369C9.27979 60.2359 10.9738 58.6299 13.1298 58.6299ZM13.1298 59.5979C11.5788 59.5979 10.4018 60.6979 10.4018 62.3369C10.4018 64.1409 11.5898 65.1639 13.1298 65.1639C14.6698 65.1639 15.8578 64.1409 15.8578 62.3369C15.8578 60.6979 14.6808 59.5979 13.1298 59.5979Z" fill="#EE7800"/>
<path d="M4.35005 66.1319C1.74305 66.1319 0.456055 64.4819 0.456055 62.4469C0.456055 60.3459 2.05105 58.6299 4.32805 58.6299C5.90105 58.6299 6.61606 59.2239 7.14405 59.6749L6.56105 60.5109C5.91205 59.9389 5.19705 59.5979 4.26205 59.5979C2.55705 59.5979 1.53405 60.8629 1.53405 62.4469C1.53405 63.9979 2.57905 65.1639 4.35005 65.1639C5.58205 65.1639 6.31905 64.5149 6.83605 64.0419L7.40806 64.7789C7.00106 65.2629 6.02205 66.1319 4.35005 66.1319Z" fill="#EE7800"/>
<path d="M52.74 49.9853C51.89 49.9853 51.22 49.9153 50.73 49.7753C50.24 49.6253 49.895 49.3703 49.695 49.0103C49.495 48.6503 49.395 48.1553 49.395 47.5253V43.5503C48.715 43.6203 48.085 43.7003 47.505 43.7903C46.935 43.8803 46.46 43.9653 46.08 44.0453L45.915 42.6803C46.325 42.6203 46.83 42.5603 47.43 42.5003C48.03 42.4303 48.685 42.3603 49.395 42.2903V38.9753H50.7V42.1703C51.29 42.1203 51.885 42.0753 52.485 42.0353C53.085 41.9853 53.675 41.9403 54.255 41.9003V38.5103H55.59V41.8103C56.26 41.7703 56.875 41.7403 57.435 41.7203C58.005 41.7003 58.48 41.6903 58.86 41.6903V43.0853C58.04 43.0353 56.95 43.0353 55.59 43.0853V44.1203C55.59 44.6203 55.505 45.0353 55.335 45.3653C55.175 45.6853 54.895 45.9353 54.495 46.1153C54.105 46.2853 53.56 46.4003 52.86 46.4603C52.82 46.2603 52.755 46.0353 52.665 45.7853C52.575 45.5353 52.475 45.3403 52.365 45.2003C53.085 45.1803 53.58 45.0903 53.85 44.9303C54.12 44.7603 54.255 44.4903 54.255 44.1203V43.1603C53.675 43.1903 53.085 43.2303 52.485 43.2803C51.885 43.3203 51.29 43.3653 50.7 43.4153V47.3603C50.7 47.7203 50.76 47.9953 50.88 48.1853C51.01 48.3653 51.225 48.4903 51.525 48.5603C51.825 48.6303 52.245 48.6653 52.785 48.6653C53.135 48.6653 53.55 48.6503 54.03 48.6203C54.52 48.5803 55.015 48.5303 55.515 48.4703C56.015 48.4003 56.46 48.3153 56.85 48.2153C56.78 48.4053 56.725 48.6553 56.685 48.9653C56.645 49.2753 56.63 49.5103 56.64 49.6703C56.03 49.7703 55.365 49.8503 54.645 49.9103C53.935 49.9603 53.3 49.9853 52.74 49.9853Z" fill="#2C2C2C"/>
<path d="M33.2403 50.9002V45.3652H41.7603V50.9002H33.2403ZM31.0203 44.2402C30.9403 44.0702 30.8153 43.8702 30.6453 43.6402C30.4753 43.4002 30.3253 43.2252 30.1953 43.1152C30.8553 42.8452 31.5153 42.5002 32.1753 42.0802C32.8353 41.6602 33.4653 41.1902 34.0653 40.6702C34.6753 40.1502 35.2253 39.6052 35.7153 39.0352C36.2053 38.4652 36.6003 37.8952 36.9003 37.3252L38.1603 37.5052C38.5903 38.2052 39.1503 38.9002 39.8403 39.5902C40.5403 40.2702 41.3153 40.8902 42.1653 41.4502C43.0153 42.0102 43.8853 42.4652 44.7753 42.8152C44.7153 42.8952 44.6303 43.0202 44.5203 43.1902C44.4203 43.3502 44.3203 43.5152 44.2203 43.6852C44.1203 43.8552 44.0403 43.9952 43.9803 44.1052C43.1503 43.7152 42.3253 43.2452 41.5053 42.6952C40.6953 42.1352 39.9453 41.5202 39.2553 40.8502C38.5653 40.1702 37.9803 39.4652 37.5003 38.7352C37.0903 39.3952 36.5553 40.0552 35.8953 40.7152C35.2453 41.3752 34.5403 41.9852 33.7803 42.5452H41.2803V43.8052H33.7053V42.6052C33.2653 42.9352 32.8153 43.2402 32.3553 43.5202C31.9053 43.7902 31.4603 44.0302 31.0203 44.2402ZM34.6503 49.6552H40.3353V46.6102H34.6503V49.6552Z" fill="#2C2C2C"/>
<path d="M26.0553 51.0352C26.0353 50.8452 25.9953 50.6152 25.9353 50.3452C25.8753 50.0752 25.8153 49.8702 25.7553 49.7302H26.8353C27.0453 49.7302 27.1903 49.6952 27.2703 49.6252C27.3603 49.5452 27.4053 49.4152 27.4053 49.2352V42.8302H23.1603V37.9102H28.7553V49.6702C28.7553 50.1302 28.6303 50.4702 28.3803 50.6902C28.1403 50.9202 27.7453 51.0352 27.1953 51.0352H26.0553ZM16.2603 51.0652V37.9102H21.8403V42.8302H17.5953V51.0652H16.2603ZM19.7703 48.5302V44.2102H25.1553V48.5302H19.7703ZM21.0903 47.4652H23.8353V45.2902H21.0903V47.4652ZM17.5953 41.8402H20.5353V40.8052H17.5953V41.8402ZM24.4653 41.8402H27.4053V40.8052H24.4653V41.8402ZM17.5953 39.9202H20.5353V38.9002H17.5953V39.9202ZM24.4653 39.9202H27.4053V38.9002H24.4653V39.9202Z" fill="#2C2C2C"/>
<path d="M5.32531 50.3453C4.63531 50.4353 4.01531 50.4153 3.46531 50.2853C2.92531 50.1653 2.49531 49.9453 2.17531 49.6253C1.85531 49.2953 1.69531 48.8753 1.69531 48.3653C1.69531 47.6553 1.98031 46.9753 2.55031 46.3253C3.13031 45.6753 3.91031 45.1503 4.89031 44.7503V42.1403C4.34031 42.1903 3.80031 42.2253 3.27031 42.2453C2.75031 42.2653 2.26531 42.2653 1.81531 42.2453L1.72531 40.8953C2.12531 40.9353 2.60031 40.9503 3.15031 40.9403C3.71031 40.9203 4.29031 40.8803 4.89031 40.8203V38.1953H6.18031V40.6703C6.71031 40.5903 7.20031 40.5003 7.65031 40.4003C8.11031 40.3003 8.49531 40.1903 8.80531 40.0703L8.97031 41.3453C8.19031 41.6153 7.26031 41.8253 6.18031 41.9753V44.3303C6.97031 44.1403 7.81531 44.0403 8.71531 44.0303C9.62531 44.0303 10.4053 44.1653 11.0553 44.4353C11.7053 44.7053 12.2053 45.0753 12.5553 45.5453C12.9153 46.0053 13.0953 46.5303 13.0953 47.1203C13.0953 48.0403 12.8053 48.7553 12.2253 49.2653C11.6553 49.7653 10.9103 50.0103 9.99031 50.0003C8.47031 49.9803 7.48031 49.2203 7.02031 47.7203C7.18031 47.6703 7.39531 47.5903 7.66531 47.4803C7.94531 47.3603 8.15031 47.2503 8.28031 47.1503C8.42031 47.6403 8.62531 48.0103 8.89531 48.2603C9.16531 48.5003 9.53031 48.6203 9.99031 48.6203C10.4903 48.6303 10.8903 48.4953 11.1903 48.2153C11.5003 47.9353 11.6553 47.5653 11.6553 47.1053C11.6553 46.5453 11.3903 46.0953 10.8603 45.7553C10.3403 45.4053 9.62531 45.2303 8.71531 45.2303C8.25531 45.2303 7.81031 45.2653 7.38031 45.3353C6.96031 45.3953 6.56031 45.4803 6.18031 45.5903V49.4453C6.18031 49.7353 6.11531 49.9453 5.98531 50.0753C5.85531 50.2153 5.63531 50.3053 5.32531 50.3453ZM13.0053 43.4753C12.7653 43.2353 12.4453 42.9753 12.0453 42.6953C11.6553 42.4153 11.2453 42.1503 10.8153 41.9003C10.3853 41.6503 9.99531 41.4603 9.64531 41.3303L10.3953 40.2653C10.7253 40.4053 11.1053 40.5953 11.5353 40.8353C11.9653 41.0753 12.3853 41.3303 12.7953 41.6003C13.2153 41.8703 13.5553 42.1253 13.8153 42.3653C13.7453 42.4353 13.6503 42.5503 13.5303 42.7103C13.4203 42.8603 13.3103 43.0103 13.2003 43.1603C13.1003 43.3103 13.0353 43.4153 13.0053 43.4753ZM4.44031 49.1303C4.60031 49.1203 4.71531 49.1003 4.78531 49.0703C4.85531 49.0303 4.89031 48.9453 4.89031 48.8153V46.1003C4.31031 46.3903 3.85531 46.7303 3.52531 47.1203C3.19531 47.5103 3.03031 47.9053 3.03031 48.3053C3.03031 48.5953 3.16031 48.8103 3.42031 48.9503C3.69031 49.0803 4.03031 49.1403 4.44031 49.1303Z" fill="#2C2C2C"/>
<path d="M47.2721 1H12.0986V24.3999H47.2721V1Z" fill="#FFD8C2" stroke="#FFD8C2" stroke-width="2" stroke-miterlimit="10" stroke-linejoin="round"/>
<path d="M34.9365 11.5225L47.2742 24.3998" stroke="#FFB083" stroke-width="2" stroke-miterlimit="10" stroke-linecap="round" stroke-linejoin="round" stroke-dasharray="1 3"/>
<path d="M24.3622 11.5225L12 24.3998" stroke="#FFB083" stroke-width="2" stroke-miterlimit="10" stroke-linecap="round" stroke-linejoin="round" stroke-dasharray="1 3"/>
<path d="M12.0986 1L27.7395 14.3286C28.8608 15.2841 30.5099 15.2841 31.6312 14.3286L47.2721 1" stroke="#F97930" stroke-width="2" stroke-miterlimit="10" stroke-linecap="round" stroke-linejoin="round"/>
</svg>
