<svg width="268" height="260" viewBox="0 0 268 260" fill="none" xmlns="http://www.w3.org/2000/svg">
<mask id="mask0_48_11505" style="mask-type:alpha" maskUnits="userSpaceOnUse" x="4" y="0" width="260" height="260">
<rect x="4" width="260" height="260" rx="90" fill="#D9D9D9"/>
</mask>
<g mask="url(#mask0_48_11505)">
<path d="M350.947 123.081C350.947 147.152 350.947 173.794 341.127 197.666C331.33 221.288 312.513 240.075 288.858 249.862C264.954 259.669 238.274 259.669 214.171 259.669H69.0229C44.9189 259.669 18.2396 259.669 -5.66503 249.862C-29.3196 240.079 -48.1323 221.288 -57.9333 197.666C-67.7539 173.794 -67.7539 147.152 -67.7539 123.081C-67.7539 99.0099 -67.7539 72.3673 -57.9333 48.4956C-48.1362 24.8697 -29.3235 6.08289 -5.66503 -3.70076C18.2396 -13.5078 44.9189 -13.5078 69.0229 -13.5078H214.171C238.274 -13.5078 264.954 -13.5078 288.858 -3.70076C312.513 6.08289 331.326 24.8736 341.127 48.4956C350.947 72.3673 350.947 99.0099 350.947 123.081Z" fill="white"/>
</g>
</svg>
