<svg width="496" height="324" viewBox="0 0 496 324" fill="none" xmlns="http://www.w3.org/2000/svg">
<path d="M496 162C496 190.549 496 222.148 484.366 250.461C472.761 278.478 450.47 300.76 422.449 312.368C394.131 324 362.526 324 333.972 324H162.028C133.474 324 101.869 324 73.5514 312.368C45.5299 300.765 23.2441 278.478 11.6336 250.461C0 222.148 0 190.549 0 162C0 133.451 0 101.852 11.6336 73.5387C23.2394 45.5174 45.5252 23.2354 73.5514 11.6316C101.869 0 133.474 0 162.028 0H333.972C362.526 0 394.131 0 422.449 11.6316C450.47 23.2354 472.756 45.522 484.366 73.5387C496 101.852 496 133.451 496 162Z" fill="white"/>
</svg>
