<svg width="237" height="237" viewBox="0 0 237 237" fill="none" xmlns="http://www.w3.org/2000/svg">
<mask id="mask0_4_8823" style="mask-type:alpha" maskUnits="userSpaceOnUse" x="0" y="0" width="237" height="237">
<rect width="237" height="237" rx="82.0385" fill="#D9D9D9"/>
</mask>
<g mask="url(#mask0_4_8823)">
<path d="M307 118.5C307 139.383 307 162.497 298.486 183.208C289.992 203.701 273.679 220 253.171 228.492C232.446 237 209.316 237 188.419 237H62.5809C41.6836 237 18.5535 237 -2.17102 228.492C-22.6788 220.004 -38.9887 203.701 -47.4859 183.208C-56 162.497 -56 139.383 -56 118.5C-56 97.6169 -56 74.5026 -47.4859 53.7922C-38.9921 33.2951 -22.6821 16.9963 -2.17102 8.5083C18.5535 0 41.6836 0 62.5809 0H188.419C209.316 0 232.446 0 253.171 8.5083C273.679 16.9963 289.989 33.2985 298.486 53.7922C307 74.5026 307 97.6169 307 118.5Z" fill="#C4C4C4"/>
</g>
</svg>
