<svg width="350" height="228" viewBox="0 0 350 228" fill="none" xmlns="http://www.w3.org/2000/svg">
<path d="M350 114C350 134.09 350 156.327 341.791 176.251C333.601 195.966 317.872 211.646 298.099 219.815C278.116 228 255.815 228 235.666 228H114.334C94.1853 228 71.8836 228 51.9012 219.815C32.1279 211.649 16.4021 195.966 8.2092 176.251C0 156.327 0 134.09 0 114C0 93.9099 0 71.6734 8.2092 51.7495C16.3988 32.0307 32.1247 16.3509 51.9012 8.1852C71.8836 0 94.1853 0 114.334 0H235.666C255.815 0 278.116 0 298.099 8.1852C317.872 16.3509 333.598 32.034 341.791 51.7495C350 71.6734 350 93.9099 350 114Z" fill="#C4C4C4"/>
</svg>
