<?xml version="1.0" encoding="UTF-8"?>
<svg xmlns="http://www.w3.org/2000/svg" version="1.1" viewBox="0 0 37.6 37.4">
  <defs>
    <style>
      .cls-1 {
        fill: #ffaf8a;
      }

      .cls-2 {
        fill: #824e2d;
      }

      .cls-3 {
        mix-blend-mode: multiply;
        opacity: .4;
      }

      .cls-4 {
        fill: #eb8e62;
      }

      .cls-5 {
        isolation: isolate;
      }

      .cls-6 {
        fill: #ff9a6a;
      }
    </style>
  </defs>
  <!-- Generator: Adobe Illustrator 28.7.3, SVG Export Plug-In . SVG Version: 1.2.0 Build 164)  -->
  <g>
    <g id="_圖層_1" data-name="圖層_1">
      <g class="cls-5">
        <g id="_圖層_1-2" data-name="_圖層_1">
          <g>
            <path class="cls-6" d="M35.7,23.9c-3.2,9.9-15,14.2-21.6,11.2C7.4,32.2-2.1,24.3,2,12.1h0C4.6,4.6,14.6-.6,23.7,2c4.2,1.2,7.8,3.9,10.1,7.4,2.7,4,3.7,9.2,1.9,14.5Z"/>
            <path class="cls-2" d="M15.6,14.6c-1,1.3-.7,3.5.9,4.2.7.3,1.6.3,2.3,0,.7-.3,1.5-1,1.3-1.8,0-.3-.4-.3-.6-.1-.4.4-.5.8-1.1,1.1-.5.3-1.1.3-1.6.1-1.1-.5-1.3-2-.7-2.9.3-.4-.4-.9-.6-.5h.1Z"/>
            <g class="cls-3">
              <path class="cls-4" d="M35.7,23.9c-3.2,9.9-15,14.2-21.6,11.2C7.4,32.2-2.1,24.3,2,12.1c-.7,6.6,3.7,13.4,10,15.7,6.3,2.3,13.8.1,18.1-5,3-3.7,4.3-8.6,3.7-13.3,2.7,4,3.7,9.2,1.9,14.5h0Z"/>
            </g>
            <path class="cls-2" d="M22.8,16.5c.1-1.1,1-2.2,2.3-2.2s1.4,1.1,1.2,2.1c-.3,1.1-1.3,2-2.2,2s-1.4-.7-1.3-1.8h0Z"/>
            <path class="cls-2" d="M12.9,11.4c.1-1.1,1-2.2,2.3-2.2s1.4,1.1,1.2,2.1c-.3,1.1-1.3,2-2.2,2s-1.4-.7-1.3-1.8h0Z"/>
            <path class="cls-1" d="M16.7,2.6c-1.9,0-3.7.3-5.5,1.1-1.2.5-1.4,2.2-.8,3.2.7,1.1,2.1,1.5,3.2.8,1-.5,2-1,3.1-1,2.7-.1,2.7-4.2,0-4.2h0Z"/>
            <path class="cls-1" d="M21.3,6.6c.3,0,.5.1.8.2.5.1.9,0,1.4-.2.4-.2.7-.6.8-1,.1-.4,0-1-.2-1.4s-.6-.7-1-.8c-.3,0-.5-.2-.8-.2-.4,0-1,0-1.4.2s-.7.6-.8,1.1c-.1.5,0,1,.2,1.4s.6.7,1.1.8h-.1Z"/>
          </g>
        </g>
      </g>
    </g>
  </g>
</svg>