<?xml version="1.0" encoding="UTF-8"?>
<svg xmlns="http://www.w3.org/2000/svg" version="1.1" viewBox="0 0 339 22">
  <defs>
    <style>
      .cls-1 {
        fill: #00693e;
      }

      .cls-2 {
        fill: #f97930;
      }
    </style>
  </defs>
  <!-- Generator: Adobe Illustrator 28.7.3, SVG Export Plug-In . SVG Version: 1.2.0 Build 164)  -->
  <g>
    <g id="_圖層_1" data-name="圖層_1">
      <path class="cls-2" d="M2.9,11.5h2.6c0-.3-.2-.5-.3-.8-.1-.3-.3-.6-.4-.8l1.3-.4H1.4v-1.9h7.1v-1.4H3.2v-1.9h5.2v-1.6h2.3v1.6h5.4v1.9h-5.4v1.4h7.2v1.9h-4.6l1.6.4c-.2.3-.4.6-.6.9-.2.3-.4.5-.6.8h2.8v1.9h-5.9v1.5h6.8v1.9h-6.8v2.8h-2.3v-2.8H1.8v-1.9h6.6v-1.5H2.9v-1.9ZM6.9,9.5c.2.3.4.6.5.9.2.3.3.6.3.8l-1.1.3h4.9c.2-.3.4-.7.5-1,.2-.4.3-.7.4-1h-5.7Z"/>
      <path class="cls-2" d="M27,5.8h2.5c-.2-.4-.4-.8-.6-1.3-.3-.5-.5-.9-.7-1.3l1.7-.8c.3.4.6.9.8,1.4.3.5.5.9.6,1.3l-1.4.7h2.5c0,0,1.2.7,1.2.7-.2.7-.5,1.3-.8,1.9-.3.6-.7,1.2-1.1,1.8.2.2.5.4.9.7.3.3.7.6.9.8v-.6h9.8v8.3h-2.1v-.7h-5.7v.7h-2v-6.8l-.9,1.2c-.2-.2-.4-.5-.6-.8-.3-.3-.5-.6-.8-.9v7.4h-2.1v-6.1c-.6.6-1.2,1.1-1.9,1.5,0-.2-.2-.4-.3-.7-.1-.3-.3-.5-.4-.8-.1-.3-.3-.5-.4-.6.9-.5,1.8-1.3,2.6-2.2.8-.9,1.5-1.9,2.1-2.9h-4v-2ZM33.6,3.2h9.9v1.8h-9.9v-1.8ZM34.6,5.8h8.1v4.6h-8.1v-4.6ZM37.5,13h-1.8v1.2h1.8v-1.2ZM37.5,15.9h-1.8v1.2h1.8v-1.2ZM36.5,7.5v1.3h4.1v-1.3h-4.1ZM39.5,13v1.2h1.9v-1.2h-1.9ZM39.5,15.9v1.2h1.9v-1.2h-1.9Z"/>
      <path d="M62.5,2.5l2.1.5c-.2.8-.5,1.6-.7,2.3h5.2v.6c0,.2,0,.3,0,.4,0,2.1-.1,3.8-.2,5.2,0,1.4-.1,2.6-.2,3.6,0,.9-.2,1.7-.3,2.2-.1.5-.3.9-.5,1.2-.2.3-.5.6-.8.7-.3.1-.6.2-1,.3-.3,0-.8,0-1.3,0-.5,0-1.1,0-1.6,0,0-.3,0-.7-.2-1.1-.1-.4-.3-.8-.5-1.1.6,0,1.1,0,1.6,0,.5,0,.9,0,1.1,0s.3,0,.4,0c.1,0,.2-.1.3-.2.2-.2.3-.7.5-1.4.1-.7.2-1.8.3-3.1,0-1.4.1-3.2.2-5.3h-3.9c-.2.5-.5,1.1-.8,1.6-.3.5-.6.9-.8,1.3-.1-.1-.4-.3-.6-.5-.3-.2-.5-.4-.8-.5v8.6h-4.9v1.4h-2V5.4h2.1c.1-.5.2-1,.3-1.5.1-.5.2-1,.2-1.5l2.4.3c-.1.5-.3.9-.5,1.4-.2.5-.3.9-.5,1.3h2.8v3c.5-.8,1-1.7,1.4-2.8.4-1.1.8-2.1,1-3.2ZM55.1,7.3v3h2.9v-3h-2.9ZM55.1,15.8h2.9v-3.6h-2.9v3.6ZM61.6,10.6l1.7-1c.3.4.6.9,1,1.4s.7,1,1,1.5c.3.5.6.9.7,1.3l-1.9,1.1c-.2-.4-.4-.8-.7-1.3-.3-.5-.6-1-.9-1.5-.3-.5-.6-1-.9-1.4Z"/>
      <path d="M78.1,9.7h17v2.4h-17v-2.4Z"/>
      <path d="M104.2,9.2h6.6c0-.2,0-.5,0-.7,0-.2,0-.5,0-.7v-1.8h-6v-2.3h14.6v2.3h-6.3v1.9c0,.2,0,.4,0,.7,0,.2,0,.5,0,.7h7v2.3h-6.4c.6,1.5,1.6,2.7,2.8,3.8s2.7,1.8,4.5,2.3c-.3.2-.5.6-.8,1-.3.4-.5.8-.7,1.1-1.7-.5-3.2-1.3-4.3-2.4s-2.1-2.3-2.9-3.8c-.3.8-.8,1.6-1.4,2.4s-1.4,1.5-2.3,2.2c-.9.7-2.1,1.3-3.5,1.8,0-.2-.2-.4-.4-.6-.2-.2-.3-.5-.5-.7-.2-.2-.4-.4-.5-.6,1.4-.5,2.6-1.1,3.5-1.7.9-.7,1.6-1.4,2.2-2.1.5-.8.9-1.5,1.2-2.3h-6.2v-2.3Z"/>
      <path d="M144.5,6.4l1.9.7c-.4.7-.9,1.5-1.4,2.2v10.3h-2.1v-7.9c-.5.5-1,1-1.4,1.3,0-.2-.2-.4-.3-.6-.1-.3-.3-.5-.4-.8-.2-.3-.3-.5-.4-.6.8-.6,1.5-1.3,2.3-2.1.7-.8,1.4-1.7,1.8-2.6ZM144.2,2.4l1.9.8c-.4.5-.8,1.1-1.3,1.6-.5.5-1,1.1-1.5,1.6-.5.5-1,.9-1.6,1.3-.1-.2-.3-.5-.5-.8-.2-.3-.4-.6-.6-.8.4-.3.9-.7,1.3-1.1s.9-.8,1.3-1.3c.4-.5.7-.9,1-1.3ZM147.6,11.1l2.1.2c0,.5,0,.9-.1,1.3,0,.4-.1.9-.2,1.3.2.6.5,1.2.8,1.6.3.4.6.8,1,1.1v-6.6h.7c-.2-.2-.4-.3-.6-.5-.2-.2-.4-.3-.6-.4.9-.7,1.6-1.6,2.1-2.8.5-1.1.8-2.4,1-3.9l2.1.3c-.2,1.1-.4,2.1-.7,3.1.5.5,1.1,1,1.6,1.5s1,1,1.3,1.4l-1.5,1.5c-.2-.3-.5-.7-.9-1.2-.4-.4-.8-.9-1.2-1.3-.4.9-1,1.6-1.6,2.3h.4v2.6h3.6v1.8h-3.6v3c.2,0,.4,0,.7,0,.2,0,.5,0,.7,0h1.5c.3,0,.7,0,1,0,.3,0,.5,0,.7,0-.1.2-.3.5-.4,1-.1.4-.2.7-.2,1h-2.8c-.8,0-1.6,0-2.3-.2s-1.3-.5-1.9-.9c-.6-.4-1.1-1-1.5-1.8-.2.6-.5,1.2-.8,1.7-.3.5-.7,1-1.1,1.4-.1-.1-.3-.3-.5-.5-.2-.2-.4-.4-.6-.5s-.4-.3-.6-.4c.9-.7,1.5-1.7,1.8-2.9.4-1.2.6-2.6.7-4.1ZM148.9,2.4l2.1.3c-.2,1-.4,1.8-.7,2.7.3.2.7.5,1,.7.3.2.6.5.8.6l-1,1.7c-.2-.2-.4-.4-.6-.6-.3-.2-.5-.5-.8-.7-.3.6-.6,1.2-1,1.7-.4.5-.8,1-1.2,1.4-.1-.1-.3-.3-.4-.5-.2-.2-.4-.4-.6-.6-.2-.2-.4-.3-.5-.4.8-.7,1.5-1.6,2-2.8s.9-2.4,1.1-3.7Z"/>
      <path class="cls-1" d="M171.1,11.2c0-.2-.2-.4-.4-.8-.2-.3-.3-.6-.5-.8.2,0,.4-.2.6-.4.2-.2.4-.5.6-.8.1-.2.3-.6.6-1.1.3-.6.5-1.2.8-1.9h-2v-1.8h2.7l.6-.2,1.2.8c-.3.8-.7,1.7-1,2.5-.4.8-.8,1.6-1.1,2.3h1s1.1.2,1.1.2c-.2,2.7-.7,4.9-1.4,6.6.7.7,1.5,1.1,2.4,1.3.9.2,1.9.3,2.9.3h2.1c.4,0,.9,0,1.2,0s.7,0,1,0c-.1.2-.3.5-.4.9-.1.4-.2.7-.3,1h-3.7c-1.2,0-2.3-.1-3.4-.4s-1.9-.7-2.7-1.4c-.5.9-1.2,1.6-1.9,2.1-.1-.2-.4-.4-.6-.7-.3-.3-.5-.5-.7-.6v1.2h-1.9v-9.2c-.3.5-.6.9-.8,1.2,0-.2-.1-.4-.2-.7-.1-.3-.2-.6-.4-.9-.1-.3-.3-.6-.4-.7.6-.8,1.2-1.9,1.7-3.1.5-1.2.9-2.4,1.2-3.7l2,.5c-.3,1.2-.7,2.3-1.2,3.5v11.7c.8-.6,1.4-1.3,2-2.3-.3-.5-.5-1-.8-1.6s-.5-1.2-.7-2l1.5-.5c.2.8.5,1.5.8,2.1.3-1,.5-2.1.7-3.4h-1.6c-.2,0-.3.2-.4.3-.1.1-.2.2-.2.3ZM175.8,3.8h2v-1.2h1.8v1.2h2.9v2.4h1.1v1.6h-1.1v2.5h-2.9v.9h3v1.6h-3v.9h3.5v1.7h-3.5v1.7h-1.8v-1.7h-2.5v-1.7h2.5v-.9h-2.1v-1.6h2.1v-.9h-2v-1.5h2v-1h-2.7v-1.6h2.7v-.9h-2v-1.5ZM179.5,6.2h1.3v-.9h-1.3v.9ZM179.5,7.8v1h1.3v-1h-1.3Z"/>
      <path class="cls-1" d="M203.2,16.8l1.1-1.4h0s-.8-1-.8-1c.4-.2.9-.4,1.5-.7.6-.3,1.1-.6,1.5-.8h-3.6v4.6c0,.5,0,.9-.2,1.2-.1.3-.4.5-.8.6-.4.1-.8.2-1.4.2-.5,0-1.2,0-2,0,0-.3-.1-.6-.3-.9-.1-.3-.3-.6-.4-.9.3,0,.6,0,.9,0,.3,0,.6,0,.9,0s.4,0,.5,0c.3,0,.4-.1.4-.4v-4.6h-3.6c.5.2.9.5,1.4.8s.9.5,1.2.7l-1.2,1.3,1.2-.5.4,1.6c-.8.4-1.6.7-2.4,1.1-.8.4-1.5.7-2.2,1l-.8-1.8c.5-.2,1-.4,1.7-.6s1.3-.5,2-.8c-.2-.2-.5-.3-.8-.5-.3-.2-.7-.4-1-.6-.4-.2-.7-.4-1-.6l1-1.1h-.2v-1.4h4.3v-.9h-4.9v-1.5h4.9v-.8h-4.1v-1.4h4.1v-1.1h-5.2v3.4c0,.7,0,1.6,0,2.5,0,.9-.1,1.8-.3,2.8-.1.9-.3,1.9-.6,2.7-.3.9-.6,1.7-1,2.4-.1-.1-.3-.3-.5-.4-.2-.2-.4-.3-.7-.5s-.4-.3-.6-.3c.4-.7.7-1.4.9-2.2.2-.8.4-1.6.5-2.4.1-.8.2-1.6.2-2.4,0-.8,0-1.5,0-2.2V3.9h7l-.5-1.1,2.2-.5c.3.5.6,1.1.9,1.6h6v1.9h-6v1.1h4.5v2.1h1.6v1.9h-1.6v2.1h-.3l1.1,1.2c-.5.3-1.1.6-1.7.8s-1.2.5-1.7.7c.5.2,1,.4,1.5.6s1,.4,1.5.6c.5.2.8.4,1.2.6l-1.1,1.6c-.3-.2-.8-.4-1.3-.7s-1.1-.5-1.7-.8c-.6-.3-1.1-.5-1.6-.7ZM205.4,9.1v-.8h-2.5v.8h2.5ZM205.4,10.7h-2.5v.9h2.5v-.9Z"/>
      <path d="M227.8,2.5l2.1.5c-.2.8-.5,1.6-.7,2.3h5.2v.6c0,.2,0,.3,0,.4,0,2.1-.1,3.8-.2,5.2,0,1.4-.1,2.6-.2,3.6,0,.9-.2,1.7-.3,2.2-.1.5-.3.9-.5,1.2-.2.3-.5.6-.8.7s-.6.2-1,.3c-.3,0-.8,0-1.3,0-.5,0-1.1,0-1.6,0,0-.3,0-.7-.2-1.1-.1-.4-.3-.8-.5-1.1.6,0,1.1,0,1.6,0,.5,0,.9,0,1.1,0s.3,0,.4,0c.1,0,.2-.1.3-.2.2-.2.3-.7.5-1.4.1-.7.2-1.8.3-3.1,0-1.4.2-3.2.2-5.3h-3.9c-.2.5-.5,1.1-.8,1.6-.3.5-.6.9-.8,1.3-.1-.1-.4-.3-.6-.5-.3-.2-.5-.4-.8-.5v8.6h-4.9v1.4h-2V5.4h2.1c.1-.5.2-1,.3-1.5.1-.5.2-1,.2-1.5l2.4.3c-.1.5-.3.9-.5,1.4-.2.5-.3.9-.5,1.3h2.8v3c.5-.8,1-1.7,1.4-2.8.4-1.1.8-2.1,1-3.2ZM220.4,7.3v3h2.9v-3h-2.9ZM220.4,15.8h2.9v-3.6h-2.9v3.6ZM226.9,10.6l1.7-1c.3.4.6.9,1,1.4.3.5.7,1,1,1.5.3.5.6.9.7,1.3l-1.9,1.1c-.2-.4-.4-.8-.7-1.3-.3-.5-.6-1-.9-1.5-.3-.5-.6-1-.9-1.4Z"/>
      <path d="M243.5,13.6h7.2v-2.1h-5.3V3.2h13.1v8.3h-5.5v2.1h7.4v2.1h-7.4v3.9h-2.3v-3.9h-7.2v-2.1ZM247.5,5.1v1.3h8.7v-1.3h-8.7ZM247.5,8.2v1.4h8.7v-1.4h-8.7Z"/>
      <path d="M271.5,4.7l1.1.3v-2.5h1.8v.7h2.9v1.3h-2.9v.6h1.8c0,0,1.2.5,1.2.5-.5.9-1.1,1.6-1.9,2.3-.8.6-1.7,1.2-2.7,1.6-1,.4-2,.8-3.1,1,0-.2-.2-.4-.4-.7-.2-.3-.4-.5-.5-.6,1.1-.2,2.2-.6,3.1-1-.2-.1-.4-.2-.6-.4s-.5-.3-.7-.4c-.3.2-.5.3-.8.5-.1-.1-.3-.3-.6-.5s-.5-.4-.7-.5c.6-.3,1.1-.6,1.6-.9s.9-.8,1.3-1.2ZM279.6,6.9c-.3-.2-.6-.3-.9-.5-.3-.2-.6-.3-.9-.4l1.2-1.2c.3.1.7.3,1.1.5s.8.4,1.1.6c.2-.2.4-.4.7-.6.2-.2.4-.4.5-.7h-4.5v-1.5h5.9c0,0,1.2.4,1.2.4-.2.6-.5,1.2-.9,1.8-.4.5-.8,1-1.2,1.4.5.3,1,.6,1.4.9s.8.6,1.1.8l-1.3,1.4c-.3-.3-.7-.6-1.2-.9-.5-.3-1-.7-1.5-1-.3.2-.6.3-.9.5-.4.2-.7.3-1.1.5.9.5,1.9,1,3.1,1.4,1.2.4,2.3.7,3.6.9-.2.2-.4.5-.6.8-.2.3-.3.6-.5.8-.8-.2-1.6-.4-2.3-.7v3.4l.4-.4,1.5,1c-.4.3-.8.6-1.2.8s-.8.5-1.2.7c1.1.2,2.2.4,3.5.4-.2.2-.4.4-.6.7s-.3.6-.5.8c-.8,0-1.5-.2-2.3-.3s-1.5-.3-2.3-.6-1.4-.6-2.1-1c0,.2,0,.4,0,.6s0,.4,0,.5c-1.1.1-2,.2-2.7.3-.7,0-1.2.2-1.6.2-.4,0-.7.1-.9.2s-.3.1-.4.2c0-.2-.1-.5-.3-.8s-.3-.6-.4-.7c.1,0,.3-.2.4-.4.1-.2.2-.4.2-.8v-4.9c-.8.3-1.7.6-2.6.8,0-.2-.2-.5-.4-.8-.2-.3-.3-.5-.5-.7,1-.2,2-.5,2.9-.9,1-.4,1.8-.8,2.6-1.2.8-.4,1.5-.9,2-1.4h1.8l.3.2-.5-.7c.3,0,.6-.2.9-.3.3-.1.6-.2.8-.4ZM272,6.3l-.2.2c.3.1.6.3.9.5s.6.3.8.5c.5-.3,1-.7,1.3-1.1h-2.8ZM275,11.5v-.5c-.7.4-1.4.7-2.2,1h9.3c-.8-.3-1.6-.7-2.4-1v.6h-4.8ZM274.5,13.1v.5h6.2v-.5h-6.2ZM274.5,14.6v.6h6.2v-.6h-6.2ZM274.5,17.7l3.1-.3c-.4-.3-.7-.6-1-1h-2.1v1.3ZM277.4,9.4c-.4.3-.9.7-1.4,1h2.8c-.5-.3-1-.6-1.4-1ZM281.8,16.3h-3.1c.2.2.5.4.8.5.3.2.6.3,1,.4.1,0,.3-.2.6-.4.2-.2.5-.3.8-.5Z"/>
      <path d="M295.4,3.2h7.1v6.5h-4.9v10h-2.1V3.2ZM300.5,5.6v-.9h-2.9v.9h2.9ZM300.5,7.1h-2.9v1h2.9v-1ZM298.4,13.7h1.9v-1.4h-1.6v-1.7h8.9v1.7h-1.7v1.4h2v1.8h-2v3.8h-1.9v-3.8h-1.7c0,.4-.2.9-.3,1.4-.2.5-.4,1-.7,1.5-.3.5-.7.9-1.3,1.3-.2-.2-.4-.4-.7-.7-.3-.3-.5-.4-.8-.6.6-.4,1-.8,1.3-1.4.3-.5.5-1,.5-1.5h-1.8v-1.8ZM303.9,12.3h-1.7v1.4h1.7v-1.4ZM309.9,3.2h1v13.9c0,.6,0,1-.2,1.3-.1.3-.3.6-.7.8-.3.2-.8.3-1.2.3-.5,0-1.1,0-1.8,0,0-.3-.1-.7-.2-1.1s-.3-.8-.4-1.1c.4,0,.8,0,1.2,0s.7,0,.8,0c.2,0,.4-.1.4-.4v-7.4h-5.1V3.2h6.2ZM308.8,5.6v-.9h-3v.9h3ZM308.8,7.1h-3v1.1h3v-1.1Z"/>
      <path d="M320.5,12.5c.2-.6.3-1.3.5-2,.2-.7.3-1.5.5-2.3h-1.2v-2h1.6c0-.6.2-1.2.2-1.8,0-.6.1-1.2.2-1.7h2.1c0,.7-.1,1.2-.2,1.8,0,.6-.2,1.2-.3,1.7h1.7s1.3.1,1.3.1c0,1.6-.2,3.1-.4,4.5-.2,1.3-.5,2.5-.9,3.6.3.3.6.7.9,1,.3.3.5.6.7.9l-1.3,1.8c-.2-.2-.3-.5-.6-.8-.2-.3-.4-.5-.7-.8-.8,1.4-1.8,2.5-3.1,3.3-.1-.3-.3-.6-.6-.9-.3-.3-.5-.6-.7-.8.6-.3,1.1-.8,1.6-1.3.5-.5.9-1.1,1.3-1.9-.4-.4-.8-.8-1.3-1.2s-.9-.8-1.3-1.1ZM323.5,8.1c-.2,1.3-.5,2.5-.8,3.6l1.1,1c.4-1.3.7-2.8.9-4.6h-1.2ZM327.5,10.9c0-.1,0-.3-.2-.6,0-.3-.2-.5-.3-.8,0-.3-.2-.5-.3-.7.2,0,.4-.2.6-.4.2-.2.4-.5.6-.8.1-.2.4-.6.7-1.1s.6-1.2,1-1.9.6-1.5.9-2.2l2.3.6c-.4.9-.8,1.9-1.3,2.8s-1,1.8-1.5,2.5l4.4-.3c-.5-.8-1-1.5-1.4-2.2l1.7-.9c.4.5.8,1.1,1.2,1.7.4.6.8,1.2,1.1,1.8.3.6.6,1.2.7,1.7l-1.9,1c-.1-.4-.3-.8-.5-1.2-1.2,0-2.3.2-3.1.3-.8,0-1.5.1-2.1.2-.5,0-1,.1-1.3.2-.3,0-.6,0-.8.1s-.4,0-.5.1ZM327.8,11.9h8.6v7.7h-2.1v-.7h-4.5v.7h-2v-7.7ZM329.8,17h4.5v-3.1h-4.5v3.1Z"/>
    </g>
  </g>
</svg>