<?xml version="1.0" encoding="UTF-8"?>
<svg xmlns="http://www.w3.org/2000/svg" version="1.1" viewBox="0 0 33 40">
  <defs>
    <style>
      .cls-1 {
        fill: #ffaf8a;
      }

      .cls-2 {
        fill: #824e2d;
      }

      .cls-3 {
        mix-blend-mode: multiply;
        opacity: .4;
      }

      .cls-4 {
        fill: #eb8e62;
      }

      .cls-5 {
        isolation: isolate;
      }

      .cls-6 {
        fill: #ff9a6a;
      }
    </style>
  </defs>
  <!-- Generator: Adobe Illustrator 28.7.3, SVG Export Plug-In . SVG Version: 1.2.0 Build 164)  -->
  <g class="cls-5">
    <g id="_圖層_1" data-name="圖層_1">
      <g>
        <path class="cls-6" d="M31.3,26.6c-2.8,8.6-13.1,12.4-18.9,9.8C6.6,33.8-1.8,26.9,1.8,16.2c0,0,0,0,0-.1,2.2-6.4,11-11,18.9-8.6,3.7,1.1,6.8,3.4,8.8,6.5,2.3,3.5,3.2,8,1.7,12.7Z"/>
        <path class="cls-2" d="M13.7,18.4c-.9,1.2-.6,3,.8,3.7.6.3,1.4.2,2,0,.6-.3,1.3-.9,1.2-1.6,0-.2-.3-.3-.5-.1-.4.3-.5.7-.9,1-.4.2-.9.3-1.4.1-1-.4-1.2-1.7-.6-2.5.2-.3-.3-.7-.6-.4h0Z"/>
        <g class="cls-3">
          <path class="cls-4" d="M31.3,26.6c-2.8,8.6-13.1,12.4-18.9,9.8C6.6,33.8-1.8,26.9,1.8,16.2c-.6,5.8,3.2,11.7,8.7,13.7,5.5,2,12.1.1,15.8-4.4,2.6-3.2,3.7-7.5,3.2-11.6,2.3,3.5,3.2,8,1.7,12.7Z"/>
        </g>
        <path class="cls-2" d="M20,20c0-.9.9-2,2-2s1.2.9,1,1.9c-.2.9-1.2,1.8-1.9,1.7-.7,0-1.2-.7-1.1-1.6Z"/>
        <path class="cls-2" d="M11.3,15.6c0-.9.9-2,2-2s1.2.9,1,1.9c-.2.9-1.2,1.8-1.9,1.7-.7,0-1.2-.7-1.1-1.6Z"/>
        <path class="cls-1" d="M14.6,7.9c-1.7,0-3.2.3-4.8,1-1,.4-1.2,1.9-.7,2.8.6,1,1.8,1.3,2.8.7.8-.5,1.7-.8,2.7-.9,2.3-.1,2.4-3.6,0-3.6h0Z"/>
        <path class="cls-1" d="M18.7,11.4c.2,0,.5.1.7.2.4,0,.8,0,1.2-.2.3-.2.6-.6.7-.9,0-.4,0-.8-.2-1.2-.2-.3-.5-.6-.9-.7-.2,0-.5-.1-.7-.2-.4-.1-.9,0-1.2.2-.3.2-.6.6-.7.9,0,.4,0,.8.2,1.2.2.3.5.6.9.7h0Z"/>
      </g>
    </g>
  </g>
</svg>