<svg width="27" height="20" viewBox="0 0 27 20" fill="none" xmlns="http://www.w3.org/2000/svg">
<path d="M0.399468 4.95342C0.399468 2.07724 2.47671 0 5.43278 0C8.54863 0 10.6259 2.31692 10.6259 5.43278C10.6259 10.3862 8.22906 15.6592 2.47671 19.3343L0 16.7777C2.39681 14.5407 4.71373 11.5846 5.43278 9.10789V8.94811L1.43809 7.98938C0.798938 7.19044 0.399468 6.07193 0.399468 4.95342ZM15.8989 4.95342C15.8989 2.07724 17.9761 0 20.9322 0C24.048 0 26.1253 2.31692 26.1253 5.43278C26.1253 10.3862 23.7284 15.6592 17.9761 19.3343L15.4994 16.7777C17.8962 14.5407 20.2131 11.5846 20.9322 9.10789V8.94811L16.9375 7.98938C16.2983 7.19044 15.8989 6.07193 15.8989 4.95342Z" fill="#7AAE99"/>
</svg>
