<svg width="27" height="20" viewBox="0 0 27 20" fill="none" xmlns="http://www.w3.org/2000/svg">
<path d="M25.7258 14.3809C25.7258 17.2571 23.6486 19.3343 20.6925 19.3343C17.5766 19.3343 15.4994 17.0174 15.4994 13.9015C15.4994 8.94811 17.8962 3.67511 23.6486 0L26.1253 2.5566C23.7284 4.79363 21.4115 7.7497 20.6925 10.2264V10.3862L24.6872 11.3449C25.3263 12.1439 25.7258 13.2624 25.7258 14.3809ZM10.2264 14.3809C10.2264 17.2571 8.14916 19.3343 5.1931 19.3343C2.07724 19.3343 0 17.0174 0 13.9015C0 8.94811 2.39681 3.67511 8.14916 0L10.6259 2.5566C8.22906 4.79363 5.91214 7.7497 5.1931 10.2264V10.3862L9.18778 11.3449C9.82693 12.1439 10.2264 13.2624 10.2264 14.3809Z" fill="#7AAE99"/>
</svg>
