<svg width="89" height="58" viewBox="0 0 89 58" fill="none" xmlns="http://www.w3.org/2000/svg">
<path d="M72.0596 8.06137C72.0599 8.06137 72.06 8.06101 72.0598 8.06083L63.4658 0.864874C63.0603 0.525383 62.4606 0.56025 62.0972 0.944444L55.7442 7.66151C55.3905 8.03542 54.8109 8.07985 54.4044 7.76421L45.2643 0.666968C44.8842 0.371852 44.3478 0.38926 43.9877 0.7084L36.0635 7.73073C35.684 8.06707 35.1128 8.06606 34.7344 7.72839L26.9257 0.759256C26.5411 0.415989 25.9586 0.421366 25.5803 0.771675L18.1725 7.63286C17.7639 8.01133 17.1248 7.98302 16.7513 7.5699L10.5548 0.717073C10.1932 0.317183 9.57966 0.275922 9.16778 0.623792L0.390371 8.03706C0.176461 8.21773 0.0475733 8.48243 0.0378883 8.76226C-0.91255 36.2231 16.077 58 44.4083 58C76.23 58 90.5525 36.1331 88.8671 8.66351C88.8492 8.37116 88.7017 8.09946 88.4665 7.92496L79.2356 1.07794C78.8131 0.764536 78.22 0.832084 77.8788 1.23248L72.0594 8.06086C72.0592 8.06106 72.0594 8.06137 72.0596 8.06137Z" fill="white"/>
</svg>
