<svg width="89" height="57" viewBox="0 0 89 57" fill="none" xmlns="http://www.w3.org/2000/svg">
<path d="M44.4637 0C24.388 0 3.58074 21.7965 0.294742 53.0069C0.233083 53.5897 0.179963 54.1704 0.135013 54.7488C0.0678156 55.6136 1.06721 56.1125 1.73409 55.558L9.13978 49.3995C9.54966 49.0586 10.1549 49.0992 10.5155 49.4918L16.7401 56.2665C17.1127 56.6721 17.7431 56.7 18.1501 56.329L25.5919 49.5455C25.9684 49.2023 26.5427 49.197 26.9255 49.5332L34.7689 56.4224C35.1454 56.7531 35.7085 56.7541 36.0861 56.4247L44.0447 49.4836C44.4029 49.1712 44.9315 49.1541 45.3092 49.4427L54.4889 56.4578C54.893 56.7667 55.4646 56.7229 55.8171 56.3562L62.1985 49.716C62.5607 49.3391 63.1521 49.3048 63.5555 49.6372L71.427 56.1237C71.8458 56.4689 72.4636 56.4169 72.8189 56.0066L78.0197 50.0007C78.3602 49.6075 78.9452 49.541 79.3653 49.8476L87.266 55.6152C87.9524 56.1163 88.9044 55.5875 88.821 54.7418C88.7642 54.1661 88.7004 53.5883 88.6297 53.0083C84.6182 20.146 64.1767 0 44.4637 0Z" fill="white"/>
</svg>
