<?xml version="1.0" encoding="UTF-8"?>
<svg xmlns="http://www.w3.org/2000/svg" version="1.1" viewBox="0 0 130 61">
  <defs>
    <style>
      .cls-1 {
        fill: #fff;
      }
    </style>
  </defs>
  <!-- Generator: Adobe Illustrator 28.7.3, SVG Export Plug-In . SVG Version: 1.2.0 Build 164)  -->
  <g>
    <g id="_圖層_1" data-name="圖層_1">
      <g>
        <path class="cls-1" d="M18.3,19.1c-.5.9-.9,1.8-1.4,2.6-1.2,2.1-2.3,4.2-3.5,6.3-.3.5-.5.4-.7,0-1.7-2.8-3.4-5.7-5.1-8.5,0-.1-.2-.2-.3-.4,0,.3,0,.5,0,.7,0,2.5,0,5,0,7.5,0,.9,0,.9-.9,1-1,0-2.1,0-3.1,0-.4,0-.6,0-.5-.6.3-4.1.6-8.3.9-12.4.1-2,.3-4,.4-6.1,0-.3.2-.8.3-.8.5,0,1-.3,1.4.3.2.3.4.6.6.9,2.1,3.5,4.2,7,6.3,10.6.2.3.3.6.5,1,.2-.4.3-.6.4-.9,2-4,4.4-7.8,7-11.4.1-.1.2-.3.4-.4.4-.2.7-.3,1.1-.4,0,.4.3.7.3,1.1.2,3.9.5,7.8.7,11.7.1,2.3.2,4.5.3,6.8,0,.4-.1.5-.5.5-1.1,0-2.2,0-3.2,0-.5,0-.6-.2-.6-.7,0-2.7-.1-5.3-.2-8,0-.2,0-.3,0-.5h-.2Z"/>
        <path class="cls-1" d="M108.5,18.2c-.2-6.2,5.4-9.8,9.9-9.9,4.8,0,9.4,4.8,9.4,10,0,5.4-4.6,10.4-9.7,10.2-5.1-.1-9.6-4.5-9.5-10.4ZM123.3,18.5c0-3.1-2.5-5.6-5.4-5.5-3.1,0-5.5,2.6-5.4,5.6,0,2.9,2.7,5.6,5.4,5.6,2.9,0,5.4-2.7,5.3-5.6Z"/>
        <path class="cls-1" d="M53.6,28.4c-1.3,0-2.6,0-3.8,0-.1,0-.4-.3-.4-.5,0-6.1,0-12.3,0-18.4,0-.6.2-.8.8-.8,2.3,0,4.6,0,6.9,0,2.4,0,4.4,1.2,5.8,3.3,1.2,1.9,1.5,3.9.4,6-.6,1.1-1.2,2.2-2.3,2.7-.4.2-.4.4-.2.8,1.3,1.9,2.6,3.9,3.8,5.8.2.3.3.5.5.9-.3,0-.5,0-.7,0-1.3,0-2.6,0-3.8,0-.2,0-.5-.2-.6-.4-.7-1.1-1.4-2.2-2-3.2-.5-.7-.9-1.4-1.4-2.2-.2-.4-.4-.5-.8-.4-.5,0-1,.1-1.5.1-.5,0-.6.1-.6.7,0,1.8,0,3.5,0,5.4ZM53.7,13.1c0,0,0,0,0,0,0,1.5-.1,3.1-.2,4.6,0,.1.2.3.3.3,1.3,0,2.6.1,4,0,1.3-.1,1.9-1,1.9-2.4,0-1.2-.9-2.4-2-2.5-1.3,0-2.6,0-4,0Z"/>
        <path class="cls-1" d="M106.3,8.6c-2,2.3-3.9,4.5-5.8,6.7-.6.7-1.2,1.6-1.7,2.4,0,.2,0,.6.2.8,1.1,1.4,2.3,2.8,3.5,4.1,1.4,1.6,2.7,3.1,4.1,4.7.2.2.3.4.5.7-.7,0-1.2.1-1.7.1-1.1,0-2.3,0-3.4,0-.2,0-.5-.1-.6-.3-1.4-1.7-2.8-3.5-4.3-5.3-.5-.6-1-1.2-1.5-1.8-.8,1.2-1.4,2.3-1.2,3.8,0,1,0,2,0,3,0,.2-.3.6-.4.6-1.3,0-2.5,0-3.8,0,0-2.8,0-5.6,0-8.4,0-3.5,0-7,0-10.5,0-.6.1-.9.8-.9.9,0,1.8,0,2.7,0,.6,0,.8.1.7.7,0,2.4-.1,4.9-.2,7.3,0,0,0,.2.1.4.3-.4.4-.8.7-1,2-2.4,4-4.8,6-7.2.1-.1.3-.3.5-.3,1.5,0,2.9,0,4.4,0,.1,0,.2,0,.3,0Z"/>
        <path class="cls-1" d="M84.7,8.5c0,1.5,0,3,0,4.5,0,2.5,0,5,0,7.6,0,4-3.3,7.7-7.2,8-2.5.1-4.7-.5-6.4-2.4-1.4-1.5-1.9-3.4-1.9-5.4,0-3.7,0-7.4,0-11.2,0-1,0-1,1-1,.8,0,1.6,0,2.4,0,.5,0,.7.2.7.7,0,.3,0,.6,0,.9,0,3.4,0,6.7,0,10.1,0,2.8,2.5,4.6,5,3.6,1.5-.6,2-2,2.1-3.6,0-1.4,0-2.7,0-4.1,0-2.4,0-4.7,0-7.1,0-.2.2-.6.4-.6,1.2,0,2.5,0,3.9,0Z"/>
        <path class="cls-1" d="M45.9,28.4c-.8,0-1.4,0-2,0-.4,0-.8,0-1.1,0-1.7,0-1.3.4-2-1.4-.9-2.3-.8-2.3-3.2-2.2-1.4,0-2.8,0-4.2,0-.2,0-.5.2-.7.4-.5.9-.8,1.8-1.3,2.7-.1.2-.3.5-.5.5-1.3,0-2.6,0-4.1,0,3.1-7.2,6.1-14.2,9.2-21.2,3.7,6.8,6.5,14.1,9.9,21.2ZM38,20.8c-.6-1.5-1.2-2.9-1.8-4.3-.8,1.1-1.7,3.5-1.6,4.3h3.4Z"/>
        <path class="cls-1" d="M18.5,41c0-.2,0-.4,0-.6,0-2.1,0-4.1,0-6.2,0-.6.1-.8.7-.7.7,0,1.5,0,2.2,0,1.2,0,2.1.9,2.3,2.2,0,.2-.1.5-.2.7-.3.4-.4.8,0,1.2.6.4.7,1,.5,1.7-.3.9-1.4,1.7-2.3,1.7-1,0-2,0-3.1,0ZM21.2,37.9c-.8,0-1,.1-1,.8,0,.5.2.7.7.7,1,0,1.4-.2,1.4-.8,0-.8-.6-.7-1-.7ZM20.2,35.9c.1.1.3.4.5.5.6.1,1.1-.2,1.1-.7,0-.5-.4-.5-.7-.5-.4,0-.8-.1-.9.7Z"/>
        <path class="cls-1" d="M121.3,36.5c1.5,0,3.1,0,4.6,0,0,0,.2,0,.3,0,.8,0,1.3.7,1.3,1.3,0,.7-.8,1.4-1.5,1.4-2.3,0-4.6,0-6.9,0-.9,0-1.8,0-2.8,0-1.1,0-1.6-1-1.2-2,.2-.4.5-.6.9-.6,1.7,0,3.5,0,5.2,0,0,0,0,0,0,0Z"/>
        <path class="cls-1" d="M8.5,39.3c-1.5,0-3,0-4.4,0-1.1,0-1.8-.5-1.8-1.3,0-.7.7-1.3,1.7-1.3,3.1,0,6.2,0,9.3,0,.7,0,1.4.7,1.4,1.3,0,.7-.7,1.4-1.4,1.4-1.6,0-3.2,0-4.8,0,0,0,0,0,0,0Z"/>
        <path class="cls-1" d="M101.4,41c-1.8,0-3.4-1.8-3.4-3.7,0-2.1,1.6-3.9,3.4-3.9,1.9,0,3.4,1.7,3.4,3.7,0,1.9-1.7,3.8-3.4,3.8ZM99.7,37.2c0,1.1.8,2,1.7,2,.9,0,1.6-1,1.6-2.1,0-.9-.9-1.8-1.7-1.8-.9,0-1.6.8-1.6,1.9Z"/>
        <path class="cls-1" d="M25.7,37.3c0-1,0-2.1,0-3.1,0-.4.1-.6.6-.6.8,0,1.6,0,2.4,0,1.6,0,2.8,1.9,2.2,3.5-.1.3-.4.6-.7.7-.5.2-.5.5-.2.9.3.4.6.8.8,1.2.2.4.6.8.1,1.2-.4.3-1.3,0-1.6-.5-.3-.5-.6-1.1-.9-1.5-.2-.2-.5-.3-.8-.5,0,.3-.2.5-.3.8,0,.2,0,.5,0,.7,0,1,0,1-1,1-.4,0-.6-.2-.6-.6,0-1.1,0-2.2,0-3.2,0,0,0,0-.1,0ZM28.3,37c.9,0,1-.1,1-1,0-.7-.2-.9-1.1-.9-.7,0-.8.2-.8,1,0,.8,0,.8,1,.8Z"/>
        <path class="cls-1" d="M48.6,41.1c-.5,0-.9,0-1.4,0-.1,0-.3-.3-.3-.5,0-2.2,0-4.3,0-6.5,0-.8.7-.6,1.1-.7.6,0,.4.5.4.8,0,.6,0,1.1-.1,1.7,0,0,.1,0,.2.1.7-.7,1.4-1.4,2.1-2.1.6-.6,1.2-.6,2.1-.3-.9,1.1-1.8,2.1-2.6,3.1.7,1.1,1.5,2.2,2.2,3.3.1.2.2.5.3.7-.2,0-.4.2-.7.2-.7.1-1.1-.1-1.5-.8-.3-.5-.7-.9-1.1-1.3-.1-.2-.3-.2-.7-.5v2.7Z"/>
        <path class="cls-1" d="M94.5,38.1c-.7,0-1.4,0-2,0-.1,0-.3.3-.3.5,0,.6,0,1.1,0,1.7,0,.2-.2.7-.3.7-.4,0-1,.2-1.2-.4-.1-.3-.1-.6-.1-.9,0-1.8,0-3.6,0-5.4,0-.4,0-.7.6-.6.4,0,1-.2.9.7,0,.1,0,.3,0,.4,0,.5,0,1.4.2,1.5.7.2,1.5.1,2.3.1,0,0,.2-.3.2-.5,0-.4,0-.9,0-1.3,0-.9,0-.9.9-.9.7,0,.6.5.6.9,0,1.4,0,2.8,0,4.2,0,.4,0,.7,0,1.1,0,1.1,0,1-1,1-.4,0-.6-.2-.6-.6,0-.3,0-.7,0-1,0-.3,0-.7,0-1.1Z"/>
        <path class="cls-1" d="M108.1,40.9c-1.3.1-1.5,0-1.6-1.3,0-2,0-4,0-6.1,1.3,0,2.5-.2,3.8.3,1.1.4,1.8,1.7,1.6,2.8-.2,1.3-1.2,2.2-2.5,2.3q-1.3,0-1.3,1.5c0,.2,0,.4,0,.6ZM108.7,35.2c-.4,0-.6.1-.6.7,0,.5,0,1.1.6,1.2.8,0,1.3-.2,1.3-.9,0-.6-.4-.9-1.3-1Z"/>
        <path class="cls-1" d="M34.6,39.2c.8,0,1.5,0,2.2,0,.6,0,.8.3.8.9,0,.6-.2.9-.8.9-1.1,0-2.1,0-3.2.2-.6,0-.7-.3-.7-.7,0-1.2,0-2.4,0-3.6,0-1,0-2.1,0-3.2,1.5,0,2.9,0,4.4,0,.1,0,.4.5.4.8,0,.4,0,.8-.6.8-.7,0-1.3,0-2,0-.5,0-.6.3-.6.7,0,.4.1.7.6.7.3,0,.7,0,1,0,1.1,0,1.1.1.9,1.4-.4,0-.9,0-1.4,0-1.1,0-1.2.3-1,1.4Z"/>
        <path class="cls-1" d="M85.7,41.2c-.4-.1-1-.3-1.6-.6-.5-.2-.8-.6-.4-1.2.4-.5.8-.6,1.3-.3.2.1.4.3.6.4.4.1.8,0,.9-.5.2-.5-.1-.7-.5-.8-.9-.3-1.7-.7-2.3-1.5-.5-.7-.4-1.6.1-2.2,1-1.1,2.6-1.3,3.9-.4.3.2.7.4.4.9-.3.6-.9.7-1.4.5-.3-.2-.7-.3-1-.4-.2,0-.5.2-.5.4,0,.1.2.5.3.6.7.4,1.4.7,2.1,1.1.9.6,1.1,1.5.6,2.4-.5,1-1.2,1.6-2.6,1.6Z"/>
        <path class="cls-1" d="M69.2,41.3c-.6-.3-1.3-.5-1.9-.8-.2,0-.4-.5-.4-.7,0-.2.3-.5.5-.7.5-.3,1-.2,1.4.2.2.1.5.2.6.1.2-.2.4-.5.5-.8,0,0-.3-.3-.4-.3-1.2-.1-1.9-1-2.4-1.9-.2-.4-.1-1.1.1-1.5.8-1.6,2.6-1.9,3.9-.8.3.2.8.4.4.9-.3.4-.7.6-1.2.4-.3-.1-.6-.3-.9-.3-.2,0-.4.2-.6.3,0,.2.1.5.3.6.2.2.6.3.8.4.9.3,1.8.7,1.9,1.7.2,1.1-.6,1.8-1.4,2.4-.4.3-.9.4-1.4.6Z"/>
        <path class="cls-1" d="M64.2,53.9c-1.2-.1-1.9-1-2.5-2-.5-.9-.3-1.7.3-2.5,1.5-2,2.9-2,4.4,0,.5.7.8,1.4.3,2.2-.6,1-1.1,2.1-2.5,2.2Z"/>
        <path class="cls-1" d="M45.3,40.3c0,.6-.4.7-.8.8-.4.1-.7,0-.8-.4-.2-1.1-.9-1.3-1.8-1.3-.7,0-1.1,0-1.1.9,0,.7-1.1,1.1-1.6.7-.1,0-.2-.4,0-.6.4-1.1.8-2.2,1.2-3.3.4-.9.8-1.8,1.2-2.7.2-.3.5-.6.7-.9.2.3.6.5.7.8.7,1.7,1.4,3.5,2.1,5.2,0,.2.1.5.2.7ZM42.3,36.3h-.2c-.2.4-.4.7-.6,1.1,0,.2,0,.6,0,.6.3,0,.6,0,.9,0,.1,0,.3-.3.2-.5,0-.4-.2-.8-.4-1.2Z"/>
        <path class="cls-1" d="M60.1,41c-.8,0-.8,0-.7-.9.3-1.8,1.2-3.3,1.9-5,.2-.4.2-.8.4-1.1.1-.2.4-.6.6-.6.3,0,.6.3.8.5.5.9.9,1.9,1.2,2.8.4,1.1.8,2.2,1.1,3.2,0,.3,0,.8,0,.8-.6.3-1.2,0-1.4-.4-.4-1-1.6-1.6-2.5-1-.2.1-.4.5-.5.9-.2.6-.2.7-.8.6ZM62.4,36.1c-.5.7-1.1,1.1-.8,1.8.1.3.8.2,1.2.3,0,0,.1-.1.2-.2-.2-.6-.4-1.1-.6-1.9Z"/>
        <path class="cls-1" d="M55.7,41.2c-.5,0-.9-.1-1.3-.2-.2,0-.3-.3-.3-.5,0-2.1,0-4.2.2-6.3,0-.2.3-.4.5-.4,1.2,0,2.3,0,3.5,0,.5,0,.6.2.6.7,0,.4,0,.9-.6.9-.6,0-1.3,0-1.9,0-.5,0-.6.3-.6.7,0,.4,0,.8.6.8.3,0,.7,0,1,0,.7,0,1.1.6.8,1.3,0,.2-.3.3-.5.4-.4,0-.8,0-1.2,0-.5,0-.8.2-.8.8,0,.7,0,1.3,0,2.1Z"/>
        <path class="cls-1" d="M75.1,35.4h-2c0-.6.2-1.1.3-1.6,0-.1.3-.3.4-.3,1.3,0,2.7,0,4,.1.2,0,.5.1.5.3.1.4.1.9.1,1.3,0,0-.4.1-.6.1-1.1,0-1.1,0-1.1,1.1,0,1.3,0,2.5,0,3.8,0,.4,0,.8-.6.7-.4,0-1.1.2-1.1-.7,0-1.5,0-3.1,0-4.8Z"/>
        <path class="cls-1" d="M80.4,50.8c0,1.1-1.1,2.2-2,2.2-1.2,0-2.4-1.2-2.4-2.3,0-1.1,1.1-2.2,2.1-2.2,1.2,0,2.3,1.2,2.3,2.3Z"/>
        <path class="cls-1" d="M48,48.6c1.1,0,2.2,1,2.2,1.9,0,1.1-1.2,2.5-2.2,2.5-1,0-2-1.1-2-2.2,0-1.2,1-2.3,2.1-2.2Z"/>
        <path class="cls-1" d="M90,52.7c-.9,0-1.8-.9-1.8-1.8,0-.9.9-1.7,1.7-1.7.8,0,1.5.8,1.6,1.7,0,.8-.8,1.8-1.5,1.8Z"/>
        <path class="cls-1" d="M39.5,50.8c0,.8-1,1.8-1.7,1.8-.7,0-1.5-.9-1.5-1.6,0-.8.9-1.8,1.7-1.8.7,0,1.6.9,1.6,1.7Z"/>
      </g>
    </g>
  </g>
</svg>