<?xml version="1.0" encoding="UTF-8"?>
<svg xmlns="http://www.w3.org/2000/svg" version="1.1" viewBox="0 0 54 54">
  <defs>
    <style>
      .cls-1 {
        fill: none;
        stroke: #fff;
        stroke-linecap: round;
        stroke-linejoin: round;
        stroke-width: 2px;
      }

      .cls-2 {
        fill: #fff;
      }

      .cls-3 {
        fill: #f97930;
      }
    </style>
  </defs>
  <!-- Generator: Adobe Illustrator 28.7.3, SVG Export Plug-In . SVG Version: 1.2.0 Build 164)  -->
  <g>
    <g id="_圖層_1" data-name="圖層_1">
      <path class="cls-3" d="M54,27c0,4.8,0,10-1.9,14.7-1.9,4.7-5.6,8.4-10.3,10.3-4.7,1.9-10,1.9-14.7,1.9s-10,0-14.7-1.9c-4.7-1.9-8.4-5.6-10.3-10.3-1.9-4.7-1.9-10-1.9-14.7s0-10,1.9-14.7C3.9,7.6,7.6,3.9,12.3,1.9c4.7-1.9,10-1.9,14.7-1.9s10,0,14.7,1.9c4.7,1.9,8.4,5.6,10.3,10.3,1.9,4.7,1.9,10,1.9,14.7Z"/>
      <path class="cls-1" d="M29,21l5,5.5-5,5.5"/>
      <path class="cls-2" d="M19,25.5c-.6,0-1,.4-1,1s.4,1,1,1v-2ZM34,25.5h-15v2h15v-2Z"/>
    </g>
  </g>
</svg>