<svg width="1076" height="379" viewBox="0 0 1076 379" fill="none" xmlns="http://www.w3.org/2000/svg">
<mask id="mask0_28_11159" style="mask-type:alpha" maskUnits="userSpaceOnUse" x="0" y="0" width="1076" height="379">
<path d="M1076 189.389C1076 222.768 1076 259.711 1061.84 292.812C1047.71 325.57 1020.58 351.621 986.458 365.185C951.979 378.779 913.501 378.779 878.733 378.779H197.267C162.499 378.779 124.021 378.779 89.5419 365.185C55.4218 351.621 28.2879 325.57 14.1595 292.812C0 259.711 0 222.768 0 189.389C0 156.01 0 119.068 14.1595 85.9663C28.2879 53.2087 55.4218 27.1583 89.5419 13.5941C124.021 0 162.499 0 197.267 0H878.733C913.501 0 951.979 0 986.458 13.5941C1020.58 27.1583 1047.71 53.2087 1061.84 85.9663C1076 119.068 1076 156.01 1076 189.389Z" fill="#F7931E"/>
</mask>
<g mask="url(#mask0_28_11159)">
<rect y="-121" width="1076" height="663" fill="#F7931E"/>
<rect y="-121" width="1076" height="663" fill="#C4C4C4"/>
</g>
</svg>
