<svg width="48" height="32" viewBox="0 0 48 32" fill="none" xmlns="http://www.w3.org/2000/svg">
<path d="M25.1053 0C21.1811 0 18 3.21649 18 7.18423C18 9.66401 19.2426 11.8503 21.1325 13.1414L20.2294 16.0635C20.0114 16.769 20.8622 17.3075 21.3946 16.8009L24.0356 14.2876C24.3845 14.3408 24.7417 14.3685 25.1053 14.3685H37.8947C41.8189 14.3685 45 11.152 45 7.18423C45 3.21649 41.8189 0 37.8947 0H25.1053Z" fill="#FFD8C2"/>
<path d="M40.125 4C43.922 4 47 7.21649 47 11.1842C47 13.664 45.7977 15.8503 43.969 17.1414L44.8428 20.0635C45.0538 20.769 44.2305 21.3075 43.7154 20.8009L39.8912 18.2876C39.5536 18.3408 39.208 18.3685 38.8562 18.3685H30.6062C26.8093 18.3685 25 15.152 25 11.1842C25 7.21649 28.078 4 31.875 4H40.125Z" stroke="#FFB083" stroke-width="2" stroke-miterlimit="10" stroke-linecap="round" stroke-linejoin="round" stroke-dasharray="1 3"/>
<path d="M13.0822 24.9834C13.7698 24.2671 14.2912 23.5972 14.9326 23.0716C16.4369 21.8389 17.9597 21.9086 19.3348 23.2716C20.5576 24.481 21.4482 25.9277 21.8773 27.6163C22.2557 29.0955 21.7527 30.2863 20.4515 31.0678C18.9841 31.947 17.3829 32.1424 15.7078 31.9098C12.3716 31.4446 9.61217 29.8398 7.29111 27.4628C3.99641 24.0856 1.61075 20.1503 0.457138 15.5219C-0.211955 12.8192 -0.161196 10.1166 0.706317 7.44653C1.19083 5.94868 2.02143 4.68342 3.2904 3.74843C4.71626 2.6925 6.14673 2.74366 7.42954 3.96706C8.78619 5.26953 9.76445 6.82785 10.1428 8.70714C10.3874 9.93053 9.96748 10.9306 8.96615 11.6703C8.13555 12.2843 7.18498 12.5866 6.17903 12.7169C5.86064 12.7588 5.7222 12.8704 5.75912 13.1821C5.86525 14.131 5.86064 15.1125 6.1052 16.0289C6.94503 19.1595 8.62468 21.7737 11.1765 23.7786C11.7902 24.2578 12.4962 24.6113 13.0915 24.9834H13.0822Z" fill="#F97930"/>
</svg>
