<svg width="312" height="173" viewBox="0 0 312 173" fill="none" xmlns="http://www.w3.org/2000/svg">
<path d="M312 86.5C312 103.937 312 110.791 304.682 128.084C297.382 145.196 283.36 158.805 265.734 165.896C247.921 173 228.041 173 210.079 173H101.921C83.9595 173 64.0791 173 46.2662 165.896C28.6398 158.808 14.6213 145.196 7.31791 128.084C0 110.791 0 103.937 0 86.5C0 69.0629 0 62.2088 7.31791 44.9159C14.6184 27.801 28.6368 14.1917 46.2662 7.10433C64.0791 -5.93474e-07 83.9595 0 101.921 0H210.079C228.041 0 247.921 -5.93474e-07 265.734 7.10433C283.36 14.1917 297.379 27.8038 304.682 44.9159C312 62.2088 312 69.0629 312 86.5Z" fill="white"/>
</svg>
