<svg width="911" height="527" viewBox="0 0 911 527" fill="none" xmlns="http://www.w3.org/2000/svg">
<path d="M911 264.101C911 303.075 911 387.977 892.353 426.625C873.752 464.869 838.023 495.285 793.114 511.123C747.724 527 697.068 527 651.295 527H259.705C213.932 527 163.276 527 117.887 511.123C72.9706 495.285 37.2482 464.863 18.6468 426.625C0 387.977 0 303.075 0 264.101C0 219.118 0 139.023 18.6468 100.375C37.2482 62.1312 72.9706 31.7152 117.887 15.8769C163.276 0 213.932 0 259.705 0H651.295C697.068 0 747.724 0 793.114 15.8769C838.03 31.7152 873.752 62.1367 892.353 100.375C911 139.023 911 219.118 911 264.101Z" fill="#F8F1C8"/>
</svg>
