<svg width="325" height="283" viewBox="0 0 325 283" fill="none" xmlns="http://www.w3.org/2000/svg">
<mask id="mask0_320_4456" style="mask-type:alpha" maskUnits="userSpaceOnUse" x="0" y="0" width="325" height="283">
<path d="M325 141.823C325 162.752 325 208.345 318.348 229.098C311.712 249.635 298.965 265.969 282.944 274.474C266.751 283 248.68 283 232.35 283H92.6499C76.3204 283 58.249 283 42.0561 274.474C26.0323 265.969 13.2883 249.632 6.65226 229.098C0 208.345 0 162.752 0 141.823C0 117.667 0 74.6554 6.65226 53.9016C13.2883 33.3646 26.0323 17.0311 42.0561 8.52594C58.249 0 76.3204 0 92.6499 0H232.35C248.68 0 266.751 0 282.944 8.52594C298.968 17.0311 311.712 33.3675 318.348 53.9016C325 74.6554 325 117.667 325 141.823Z" fill="#F7931E"/>
</mask>
<g mask="url(#mask0_320_4456)">
<rect x="-43" y="-95.2988" width="461.513" height="410.665" rx="10" fill="#C4C4C4"/>
</g>
</svg>
