<svg width="617" height="404" viewBox="0 0 617 404" fill="none" xmlns="http://www.w3.org/2000/svg">
<path d="M617 202C617 237.598 617 277 602.528 312.304C588.091 347.238 560.363 375.022 525.506 389.496C490.279 404 450.965 404 415.445 404H201.555C166.035 404 126.72 404 91.4944 389.496C56.6369 375.027 28.9145 347.238 14.4716 312.304C0 277 0 237.598 0 202C0 166.402 0 127 14.4716 91.6965C28.9087 56.7562 56.6312 28.9726 91.4944 14.5036C126.72 0 166.035 0 201.555 0H415.445C450.965 0 490.279 0 525.506 14.5036C560.363 28.9726 588.085 56.762 602.528 91.6965C617 127 617 166.402 617 202Z" fill="#F7931E"/>
<path d="M617 202C617 237.598 617 277 602.528 312.304C588.091 347.238 560.363 375.022 525.506 389.496C490.279 404 450.965 404 415.445 404H201.555C166.035 404 126.72 404 91.4944 389.496C56.6369 375.027 28.9145 347.238 14.4716 312.304C0 277 0 237.598 0 202C0 166.402 0 127 14.4716 91.6965C28.9087 56.7562 56.6312 28.9726 91.4944 14.5036C126.72 0 166.035 0 201.555 0H415.445C450.965 0 490.279 0 525.506 14.5036C560.363 28.9726 588.085 56.762 602.528 91.6965C617 127 617 166.402 617 202Z" fill="#C4C4C4"/>
</svg>
