<svg width="54" height="54" viewBox="0 0 54 54" fill="none" xmlns="http://www.w3.org/2000/svg">
<path d="M54 27C54 31.7574 54 37.0224 52.0614 41.742C50.1282 46.413 46.413 50.1228 41.742 52.0614C37.0224 54 31.7574 54 27 54C22.2426 54 16.9776 54 12.258 52.0614C7.587 50.1282 3.8772 46.413 1.9386 41.742C0 37.0224 0 31.7574 0 27C0 22.2426 0 16.9776 1.9386 12.258C3.8718 7.587 7.587 3.8718 12.258 1.9386C16.9776 0 22.2426 0 27 0C31.7574 0 37.0224 0 41.742 1.9386C46.413 3.8718 50.1228 7.587 52.0614 12.258C54 16.9776 54 22.2426 54 27Z" fill="#2C2C2C"/>
<path d="M26.7086 31.91C25.7186 31.91 25.0886 31.31 25.0886 30.08C25.0886 26.57 30.0986 25.85 30.0986 22.58C30.0986 21.38 29.3186 19.91 27.0986 19.91C26.0786 19.91 25.4186 20.15 24.8186 20.36C24.3986 20.51 24.0386 20.66 23.5586 20.66C22.7486 20.66 22.0586 20.06 22.0586 19.22C22.0586 18.62 22.4186 18.11 23.0186 17.69C24.0686 17 25.8086 16.61 27.5486 16.61C31.2086 16.61 33.7586 18.62 33.7586 21.8C33.7586 23.81 32.7986 25.28 31.2986 26.6L30.3386 27.44C29.2886 28.37 28.6586 29.27 28.4786 30.23C28.1786 31.4 27.8186 31.91 26.7086 31.91ZM24.9386 36.29C24.9386 35.06 25.6886 34.43 26.7986 34.43C27.8786 34.43 28.6286 35.03 28.6286 36.29C28.6286 37.61 27.9086 38.15 26.7986 38.15C25.6886 38.15 24.9386 37.58 24.9386 36.29Z" fill="white"/>
</svg>
