<svg width="129" height="76" viewBox="0 0 129 76" fill="none" xmlns="http://www.w3.org/2000/svg">
<path d="M129 38C129 44.6977 129 52.1088 126.251 58.7503C123.509 65.3232 118.243 70.5503 111.625 73.271C104.935 76 97.4675 76 90.7231 76H38.2769C31.5304 76 24.0653 76 17.3754 73.271C10.7546 70.5483 5.48938 65.3211 2.74888 58.7503C-2.06986e-07 52.1088 0 44.6977 0 38C0 31.3023 -2.06986e-07 23.8912 2.74888 17.2497C5.48938 10.6768 10.7546 5.44967 17.3754 2.72899C24.0653 0 31.5304 0 38.2769 0H90.7231C97.4696 0 104.935 0 111.625 2.72899C118.245 5.45175 123.511 10.6789 126.251 17.2497C129 23.8912 129 31.3044 129 38Z" fill="white"/>
</svg>
