<svg width="425" height="243" viewBox="0 0 425 243" fill="none" xmlns="http://www.w3.org/2000/svg">
<path d="M425 121.5C425 145.993 425 155.62 415.032 179.91C405.087 203.946 385.988 223.062 361.977 233.021C337.713 243 310.632 243 286.166 243H138.834C114.368 243 87.2872 243 63.0229 233.021C39.0125 223.066 19.9168 203.946 9.96831 179.91C0 155.62 0 145.993 0 121.5C0 97.0074 0 87.38 9.96831 63.0899C19.9128 39.05 39.0085 19.934 63.0229 9.97891C87.2872 -8.33607e-07 114.368 0 138.834 0H286.166C310.632 0 337.713 -8.33607e-07 361.977 9.97891C385.988 19.934 405.083 39.054 415.032 63.0899C425 87.38 425 97.0074 425 121.5Z" fill="white"/>
</svg>
