<?xml version="1.0" encoding="UTF-8"?>
<svg xmlns="http://www.w3.org/2000/svg" xmlns:xlink="http://www.w3.org/1999/xlink" version="1.1" viewBox="0 0 55 54">
  <defs>
    <style>
      .cls-1 {
        mask: url(#mask);
      }

      .cls-2 {
        filter: url(#luminosity-noclip);
      }

      .cls-3 {
        fill: #e6e6e6;
      }

      .cls-4 {
        fill: #fae5dc;
      }

      .cls-5 {
        fill: #f0b2a1;
      }

      .cls-6 {
        fill: #f0d8ce;
      }

      .cls-7 {
        fill: #bcc8e8;
      }

      .cls-8 {
        fill: #2e2e2e;
      }

      .cls-9 {
        fill: #ed866d;
      }

      .cls-10 {
        fill: #785946;
      }

      .cls-11 {
        fill: #ee7800;
      }

      .cls-12 {
        clip-path: url(#clippath);
      }
    </style>
    <clipPath id="clippath">
      <circle class="cls-11" cx="27.5" cy="27" r="26.9"/>
    </clipPath>
    <filter id="luminosity-noclip" x="12.5" y="22.6" width="27.2" height="7.9" color-interpolation-filters="sRGB" filterUnits="userSpaceOnUse">
      <feFlood flood-color="#fff" result="bg"/>
      <feBlend in="SourceGraphic" in2="bg"/>
    </filter>
    <mask id="mask" x="12.5" y="22.6" width="27.2" height="7.9" maskUnits="userSpaceOnUse">
      <g class="cls-2">
        <image width="28" height="9" transform="translate(12 22)" xlink:href="top_faq_respondent-1.png"/>
      </g>
    </mask>
  </defs>
  <!-- Generator: Adobe Illustrator 28.7.3, SVG Export Plug-In . SVG Version: 1.2.0 Build 164)  -->
  <g>
    <g id="_圖層_1" data-name="圖層_1">
      <g>
        <circle class="cls-11" cx="27.5" cy="27" r="26.9"/>
        <g class="cls-12">
          <path class="cls-10" d="M48.7,55.1c0-1.1-.2-2.2-.4-3.2-.6-2.3-1.8-4.5-2.5-6.8-2.8-9.4,1.7-20.3-3.1-28.8,0,0-4.1-6.7-14.3-6.7s-17.6,4.6-18.6,7.8c-2.4,8.1-2.2,16.8-3.3,25.2-.5,4.1-1,8.6.2,12.5h42Z"/>
          <path class="cls-8" d="M45.3,44.3c.5,1.5,1.1,3.1,1.6,4.6.5,1.5.9,3.1,1.1,4.7,0,.5,0,1,0,1.5h.5c0-.3,0-.5,0-.8,0-1.6-.5-3.2-.9-4.7-.5-1.6-1.1-3.1-1.6-4.6-.5-1.5-1-3.1-1.2-4.8-.2-1.6-.1-3.2.3-4.7,0-.2.1-.4.2-.6,0-.1,0-.3-.2-.3-.1,0-.3,0-.3.2-.6,1.5-.8,3.1-.6,4.7.1,1.6.5,3.2,1,4.8Z"/>
          <path class="cls-8" d="M7,55.1h.5c-.3-1.6-.6-3.2-.7-4.8-.1-1.7-.1-3.4,0-5.2,0-1.7.2-3.5.4-5.2.2-1.7.4-3.4.7-5.1,0-.2,0-.4.1-.6,0-.1,0-.3-.2-.3-.1,0-.3,0-.3.2-.3,1.7-.5,3.5-.7,5.3-.2,1.8-.4,3.5-.4,5.3,0,1.8,0,3.5,0,5.3.1,1.8.3,3.5.7,5.2Z"/>
          <path class="cls-8" d="M10.8,38.9c-.1,0-.3,0-.3.2-.4,2.7-.5,5.4-.5,8,0,.8,0,1.5,0,2.3,0,.3.5.3.5,0-.1-2.6,0-5.3.2-7.9,0-.7.2-1.5.3-2.2,0-.1,0-.3-.2-.3Z"/>
          <path class="cls-8" d="M45.4,54.1c0,.3.1.7.1,1h.5c-.1-1.4-.5-2.9-.9-4.3-.7-2.4-1.8-4.7-2.4-7.2-.4-1.3-.6-2.7-.7-4.1,0-.3-.5-.3-.5,0,0,2.5.9,4.9,1.7,7.3.9,2.4,1.8,4.7,2.2,7.2Z"/>
          <path class="cls-8" d="M41.1,44.4c-.3-1.1-.5-2.2-.6-3.3,0-.3-.5-.3-.5,0,0,1.2.2,2.4.6,3.5,0,.3.6.2.5-.1Z"/>
          <path class="cls-4" d="M23.1,44.1c-1.3.5-2.1,2-1.9,3.3.1,1.4,1.1,2.6,2.2,3.3,1.2.7,2.6.9,4,.8,1.3,0,2.5-.4,3.6-1.1s1.8-1.8,2-3.1-.4-2.6-1.5-3.2h-8.3Z"/>
          <path class="cls-3" d="M43.6,55.1c-.3-1.2-.6-2.3-1.1-3.4-2-4.4-6.2-7.4-11.1-7.6,0,0,4,6.2-4.6,6.3-7,.1-3.8-6.4-3.8-6.4-4.2.8-8.4,3.1-10.4,6.9-.6,1.1-1,2.5-1.3,4.1h32.2Z"/>
          <path class="cls-8" d="M31.8,46.9c-.4,1.6-1.7,2.8-3.2,3.3-.8.3-1.6.3-2.4.1-.8-.2-1.5-.6-2.1-1.1-.7-.6-1.2-1.4-1.5-2.2,0-.3-.6-.2-.5.1.5,1.7,1.9,3.1,3.6,3.6,1.7.5,3.6,0,4.9-1.2.7-.7,1.3-1.5,1.5-2.5,0-.3-.4-.4-.5-.1Z"/>
          <path class="cls-8" d="M32.7,44.7c2.5.4,5,1.3,6.9,3,.9.8,1.6,1.7,2.1,2.7.6,1.2.9,2.6,1.1,3.9,0,.3,0,.5.1.8h.5c0-.1,0-.3,0-.4-.2-1.4-.5-2.8-1.1-4.1-1-2.3-3-4-5.2-5.1-1.4-.6-2.8-1.1-4.3-1.3-.1,0-.3,0-.3.2,0,.1,0,.3.2.3Z"/>
          <path class="cls-8" d="M11.7,55.1c0,0,0-.1,0-.2.1-1.3.5-2.5,1-3.6,1.1-2.2,3-4,5.2-5.2,1.3-.7,2.7-1.3,4.1-1.7.3,0,.2-.6-.1-.5-2.6.8-5,1.9-7,3.7-1.9,1.7-3.2,4-3.6,6.5,0,.3,0,.6-.1.9h.5Z"/>
          <path class="cls-7" d="M21.2,55.1c-.4-1.6-.7-3.3-.7-4.9-.1-2,.3-4.4,1.6-6-3.7,1-7.5,3.4-9.3,6.7-.6,1.1-1,2.5-1.3,4.1h9.7Z"/>
          <path class="cls-7" d="M33.5,55.1h10.1c-.3-1.2-.6-2.3-1.1-3.4-2-4.3-6.4-7.3-11.1-7.6.8,1,1.9,2.3,2.2,3.6.6,2.4.4,5-.2,7.4Z"/>
          <path class="cls-8" d="M31.8,46.9c-.4,1.6-1.7,2.8-3.2,3.3-.8.3-1.6.3-2.4.1-.8-.2-1.5-.6-2.1-1.1-.7-.6-1.2-1.4-1.5-2.2,0-.3-.6-.2-.5.1.5,1.7,1.9,3.1,3.6,3.6,1.7.5,3.6,0,4.9-1.2.7-.7,1.3-1.5,1.5-2.5,0-.3-.4-.4-.5-.1Z"/>
          <path class="cls-8" d="M32.7,44.7c2.5.4,5,1.3,6.9,3,.9.8,1.6,1.7,2.1,2.7.6,1.2.9,2.6,1.1,3.9,0,.3,0,.5.1.8h.5c0-.1,0-.3,0-.4-.2-1.4-.5-2.8-1.1-4.1-1-2.3-3-4-5.2-5.1-1.4-.6-2.8-1.1-4.3-1.3-.1,0-.3,0-.3.2,0,.1,0,.3.2.3Z"/>
          <path class="cls-8" d="M11.7,55.1c0,0,0-.1,0-.2.1-1.3.5-2.5,1-3.6,1.1-2.2,3-4,5.2-5.2,1.2-.6,2.7-1.2,4-1.6.1-.2,0-.3.2-.5,0,0-.1,0-.2,0-2.6.8-5,1.9-7,3.7-1.9,1.7-3.2,4-3.6,6.5,0,.3,0,.6-.1.9h.5Z"/>
          <path class="cls-8" d="M20.4,45.3c0,0-.3-.1-.4,0-1.8,2.2-2.8,4.9-2.9,7.8,0,.7,0,1.4.1,2.1h.5c-.4-2.6.1-5.3,1.3-7.6.4-.7.8-1.3,1.2-1.8,0-.1.1-.3,0-.4Z"/>
          <rect class="cls-4" x="23.1" y="38.6" width="8.1" height="8.5"/>
          <path class="cls-4" d="M42,25.1c0,9.3-3.4,16.9-15.3,16.9s-15.3-7.6-15.3-16.9,0-7.6,2.1-10.4c3-4.2,7.8-6.9,13.3-6.9s9.8,2.5,12.8,6.3c2.3,2.9,2.5,7,2.5,11Z"/>
          <path class="cls-10" d="M45.2,26.6c0-1.6,0-5.3-1.1-9-1-3.3-2.9-6.3-5.8-8.2-.1,0-.3-.2-.5-.2-.3-1.5-1.5-2.8-3-3.5-2.1-1-4.5-1.6-6.8-1.7-4-.2-8.1,1.1-11.2,3.7-3.8,2.3-6.5,6.6-7.7,10.8-1,3.8-1.1,7.8-.9,11.8,0,.9.8,1.8,1.8,1.8.9,0,1.8-.8,1.8-1.8,0-1.6-.1-3.2,0-4.8,0-.8,0-1.5.2-2.3,0,0,.2,0,.2,0,3.5.7,7,.2,10.2-1.2.3.8,1.2,1.5,2.1,1.2,1.4-.5,2.6-1.2,3.7-2.1,0,0,0,0,0,0,.5.8,1.5,1.1,2.4.6,2.7-1.3,4.9-3.8,6-6.7,0,0,0,0,0,0,2.5,1.6,3.4,1.9,4.1,4.7.4,1.4,1.5,8.5,1.7,10.9,0,.9,2.8.9,2.8,0s0-2.7,0-4.3Z"/>
          <g>
            <g>
              <path class="cls-4" d="M13,34.4c-3.2.5-5.7-2.8-5.9-5.3,0-1.2,1.2-1.8,2.6-1.8,2.9-.2,5.2,2.2,4.6,4.1-.2,1.2-.5,2.9-1.3,3.1Z"/>
              <path class="cls-6" d="M12.1,31.9c0,.2-.6.7-1.1.4-.7-.6.2-1.5-.3-2.1-.5-.2-1.2-.6-.8-.9.8-.5,2.1.9,2.5-.2.2-.4.3-.9.2-1.4.4.2.7.5,1,.9,0,1.2-.8,2.3-1.5,3.3Z"/>
            </g>
            <g>
              <path class="cls-4" d="M40.5,34.4c3.2.5,5.7-2.8,5.9-5.3,0-1.2-1.2-2-2.7-2-2.9-.2-5.1,2.4-4.5,4.3.2,1.2.5,2.9,1.3,3.1Z"/>
              <path class="cls-6" d="M41.4,31.9c0,.2.6.7,1.1.4.7-.6-.2-1.5.3-2.1.5-.2,1.2-.6.8-.9-.8-.5-2.1.9-2.5-.2-.2-.4-.3-.9-.2-1.4-.4.2-.7.5-1,.9,0,1.2.8,2.3,1.5,3.3Z"/>
            </g>
          </g>
          <g>
            <g>
              <g class="cls-1">
                <image width="28" height="9" transform="translate(12 22)" xlink:href="top_faq_respondent-2.png"/>
              </g>
              <g>
                <path class="cls-8" d="M32.8,25.3c0,.9.5,1.5,1.1,1.5.6,0,1.2-.5,1.2-1.4,0-.9-.5-1.5-1.1-1.5-.6,0-1.2.5-1.2,1.4Z"/>
                <path class="cls-8" d="M21.3,24.9c0,.9-.6,1.4-1.2,1.4-.6,0-1.1-.6-1.1-1.5,0-.9.6-1.4,1.2-1.4s1.1.6,1.1,1.5Z"/>
                <path class="cls-8" d="M35.8,23c-.1,0-.3-.1-.5-.4,0,0,0,0,0,0,0,0,0,0,0,0,0,0-.1-.1-.2-.2-.2-.1-.3-.2-.5-.3-.2-.1-.4-.2-.6-.2,0,0-.2,0-.3,0,0,0,0,0-.1,0,0,0,0,0-.1,0-.3,0-.5,0-.6-.2,0,0,0-.1,0-.2,0,0,0,0,0,0,0,0,0,0,.1,0,0,0,.2,0,.3-.1,0,0,.1,0,.2,0,0,0,.1,0,.2,0,.1,0,.3,0,.4,0,.3,0,.6.1.9.3.3.2.5.4.7.6,0,.1.2.2.2.3,0,0,0,.1,0,.2,0,0,0,.1,0,.2,0,0,0,.2,0,.3,0,0,0,0,0,.1,0,0,0,0,0,.1,0,.1,0,.2-.1.2Z"/>
                <path class="cls-8" d="M21.5,21.8c0,.1-.3.1-.6.2,0,0,0,0-.1,0,0,0,0,0-.1,0,0,0-.2,0-.3,0-.2,0-.4,0-.6.1-.2,0-.4.1-.6.2,0,0-.2,0-.3.1,0,0,0,0-.1,0,0,0,0,0-.1,0-.3.1-.5.2-.6.1,0,0,0-.1,0-.2,0,0,0-.1,0-.2,0,0,0-.2.1-.2,0,0,0,0,0-.1,0,0,0,0,.1-.1,0,0,.2-.2.3-.2.2-.1.5-.3.8-.4.3,0,.6,0,.9,0,.1,0,.3,0,.4,0,0,0,.1,0,.2,0,0,0,0,0,.1,0,0,0,.2,0,.2.1,0,0,.1,0,.2.1,0,0,0,.2,0,.2Z"/>
              </g>
            </g>
            <g>
              <circle class="cls-5" cx="18.2" cy="30.3" r="3.6"/>
              <g>
                <path class="cls-9" d="M17.2,29.1c-.2.4-.4.8-.6,1.2,0,0,0,.1,0,.2,0,0,0,.1,0,.1,0,0,.3,0,.3,0,.2-.4.4-.8.6-1.2,0,0,0-.1,0-.2,0,0,0-.1,0-.1,0,0-.3,0-.3,0h0Z"/>
                <path class="cls-9" d="M19,28.5l-1,2.5c0,.1,0,.2.1.3.1,0,.2,0,.3-.1.3-.8.7-1.7,1-2.5,0-.1,0-.2-.1-.3-.1,0-.2,0-.3.1h0Z"/>
              </g>
            </g>
            <g>
              <circle class="cls-5" cx="34.9" cy="30.7" r="3.6"/>
              <g>
                <path class="cls-9" d="M34.2,29.3c-.2.6-.5,1.3-.7,1.9,0,.1,0,.2.1.3.1,0,.2,0,.3-.1.2-.6.5-1.3.7-1.9,0-.1,0-.2-.1-.3-.1,0-.2,0-.3.1h0Z"/>
                <path class="cls-9" d="M35.9,29.6c-.2.4-.3.8-.5,1.3,0,.1,0,.3.1.3.1,0,.2,0,.3-.1.2-.4.3-.8.5-1.3,0-.1,0-.3-.1-.3-.1,0-.2,0-.3.1h0Z"/>
              </g>
            </g>
            <path class="cls-8" d="M23,30.9c1.8.5,3.8.5,5.6.4.6,0,1.1-.1,1.7-.2.1,0,.2-.2.2-.3,0-.1-.2-.2-.3-.2-1.8.3-3.7.4-5.5.2-.5,0-1-.2-1.5-.3-.3,0-.5.4-.1.5h0Z"/>
            <path class="cls-8" d="M25.7,27.2s0,0,0,.1c.1.4.5.7.9.7.4,0,.9-.4.9-.8,0-.1,0-.2-.1-.2,0,0-.2,0-.2.1,0,0,0,0,0,.1,0,.2-.3.3-.5.3s-.3,0-.4-.2c0-.1,0-.2-.2-.3,0,0-.2,0-.3,0,0,0,0,.1,0,.2Z"/>
          </g>
          <path class="cls-8" d="M37.3,7.6c-1.1-1.1-2.5-1.9-3.9-2.5-1.3-.5-2.7-.9-4.1-1.1-1.4-.2-2.8-.2-4.2,0-1.4.2-2.8.5-4.1,1-1.3.5-2.6,1.2-3.7,2.1-.1.1-.3.2-.4.3-.1,0,0,.3,0,.3.1.1.2,0,.3,0,1.1-.9,2.3-1.6,3.5-2.1,1.3-.5,2.6-.9,3.9-1.1,1.4-.2,2.7-.2,4.1-.1,1.4.1,2.7.4,4,.9.6.2,1.3.5,1.9.9.7.4,1.4.8,1.9,1.3.1.1.3.3.4.4.2.2.6-.1.3-.3Z"/>
          <path class="cls-8" d="M15.2,8.8c0-.1-.2-.2-.3,0-2,1.5-3.4,3.5-4.5,5.7-1.2,2.5-1.7,5.2-2.1,7.9-.2,1.6-.4,3.3-.5,4.9,0,.1,0,.2.2.2-.6.3-1.1.8-1.3,1.4-.3.9,0,1.9.5,2.7.4.7,1,1.3,1.7,1.9.7.6,1.6,1,2.5,1.2.3,0,.4-.4.1-.5-1.5-.3-2.7-1.4-3.6-2.6-.5-.6-.9-1.5-.8-2.3,0-.7.5-1.1,1.1-1.4.9-.4,2-.3,3,0,0,0,.1,0,.2,0,0,0,0,0,0,0,.1,0,.2-.1.2-.2,0-.8.2-1.6.3-2.4,0-.1-.1-.2-.2-.2s-.2.1-.2.2c0,.7-.2,1.5-.2,2.2-1-.2-2-.3-2.9,0,0,0-.1,0-.2,0,0,0,0,0,0-.1.2-2.8.5-5.7,1.1-8.4.6-2.4,1.5-4.7,2.9-6.8.8-1.1,1.7-2.1,2.7-2.9.1,0,.2-.2,0-.3Z"/>
          <path class="cls-8" d="M37.1,14.6c-.1,0-.3,0-.3,0-.6,1.4-1.3,2.9-2.3,4.1-.9,1.1-2.1,2-3.4,2.4-.9.2-1.8.2-2.6,0,0,0,0,0,0,0,.4-.5.7-.9,1-1.4.5-.8.9-1.6,1.2-2.5,0-.1,0-.3-.2-.3-.1,0-.3,0-.3.2-.5,1.4-1.3,2.8-2.3,3.9-.9,1-2,1.9-3.4,1.8-.6,0-1.2-.2-1.6-.6.8-.4,1.5-.9,2.1-1.5,0-.1.1-.2,0-.3,0,0-.3-.1-.3,0-1,1.2-2.6,1.8-4.1,2.1-.8.2-1.7.3-2.5.5-1,.2-1.9.3-2.9.3-1.1,0-2.2,0-3.2-.4-.3,0-.4.4-.1.5,1.9.6,4,.5,5.9.2.9-.1,1.8-.3,2.7-.5.7-.1,1.3-.3,2-.6,1,1,2.6,1.1,3.8.5.8-.3,1.4-.9,2-1.5,0,0,0,.2.2.2,1.6.4,3.3,0,4.7-.8,1.3-.9,2.3-2.1,3-3.4.5-.8.9-1.7,1.3-2.5,0-.1,0-.3,0-.3Z"/>
          <path class="cls-8" d="M41.6,21.9c0-.8-.2-1.6-.5-2.4-.3-.7-.6-1.3-1.1-1.8-.5-.6-1.1-1.1-1.8-1.6-.3-.2-.5.3-.2.4,1.1.7,2,1.7,2.5,3,.3.7.4,1.4.5,2.2,0,.8.1,1.7.2,2.5,0,1,.1,2,.2,2.9,0,.1.1.2.2.2s.3-.1.2-.2c-.1-1.8-.3-3.5-.4-5.3Z"/>
          <path class="cls-8" d="M34.6,13.8c-.1,0-.3,0-.3.2-.2,1.4-.6,2.7-1.3,3.9-.2.3.3.5.4.2.7-1.2,1.2-2.6,1.4-4,0-.1,0-.3-.2-.3Z"/>
          <path class="cls-8" d="M45.2,20.7c-.4-1.8-.9-3.6-1.6-5.2-.6-1.5-1.5-2.9-2.6-4.2-.6-.7-1.3-1.2-2.1-1.7-.3-.2-.5.3-.2.4,1.3.8,2.4,2,3.2,3.3.9,1.4,1.6,3,2.1,4.6.3,1,.5,1.9.7,2.9,0,.3.5.2.5-.1Z"/>
          <path class="cls-8" d="M46.5,28.7c-.1-.5-.4-.9-.8-1.2,0,0,0,0-.1,0,0,0,0,0,0,0,.2-1.8,0-3.6-.3-5.3,0-.3-.5-.2-.5.1.4,1.6.5,3.3.4,4.9-.7-.4-1.6-.5-2.4-.3-.3,0-.2.5.1.5.8-.2,1.6,0,2.3.4.3.2.6.5.8.9.2.4.1.9,0,1.3-.2.9-.7,1.7-1.2,2.4-.2.4-.5.7-.8,1-.3.2-.6.4-.9.6-.8.3-1.7.4-2.5.1-.3,0-.4.4-.1.5.8.3,1.7.3,2.6,0,.4-.1.8-.3,1.2-.6.4-.3.7-.7,1-1.1.6-.8,1.1-1.7,1.4-2.6.1-.5.2-1,0-1.6Z"/>
          <path class="cls-8" d="M23.4,42.4c0-.3-.2-.5-.4-.7-.2-.2-.5-.3-.7-.4-.5-.2-1.1-.3-1.6-.5-2.1-.7-4.1-1.7-5.6-3.4-.7-.9-1.3-1.9-1.6-3,0-.3-.6-.2-.5.1.6,2,2,3.7,3.7,4.9,1,.7,2,1.2,3.1,1.6.5.2,1.1.4,1.6.5.3,0,.5.1.8.2.2,0,.4.2.6.3.2.2.2.5.3.7,0,.3,0,.6,0,.9,0,.7,0,1.4,0,2.2,0,.3.5.3.5,0,0-.6,0-1.3,0-1.9,0-.5,0-1.2-.1-1.7Z"/>
          <path class="cls-8" d="M39.8,35.5c-.1,0-.3,0-.3,0-1.1,1.6-2.3,3.2-4,4.2-.4.2-.8.4-1.3.6-.4.1-.9.2-1.3.4-.9.3-1.7.7-2,1.6-.4,1.1.1,2.3-.2,3.4,0,.3.4.4.5.1.2-.5.2-1,.1-1.5,0-.5,0-1,0-1.5,0-.4.3-.8.6-1.1.3-.3.7-.4,1.1-.5.4-.1.9-.2,1.3-.4.5-.1.9-.3,1.3-.6.9-.5,1.6-1.1,2.3-1.9.8-.8,1.4-1.7,2.1-2.7,0-.1,0-.3,0-.3Z"/>
          <path class="cls-8" d="M33.7,50.5c0,.9-.1,1.8-.2,2.7,0,.6-.2,1.2-.3,1.9h.5c0-.5.1-1,.2-1.5.2-1.9.4-3.7.1-5.6-.2-1-.5-2-1.1-2.9-.2-.3-.6,0-.4.2,1,1.5,1.2,3.3,1.1,5.1Z"/>
          <path class="cls-8" d="M35.9,49.7c.6,1.4,1.1,2.8,1.5,4.3.1.4.2.7.3,1.1h.5c-.3-1.1-.6-2.1-.9-3.2-.5-1.5-1.1-2.9-1.7-4.3-.4-.8-.8-1.5-1.2-2.3-.2-.3-.6,0-.4.2.7,1.3,1.4,2.7,2,4.1Z"/>
          <path class="cls-8" d="M22,45c.2-.3-.3-.6-.5-.3-1.5,2.4-1.8,5.3-1.3,8,.1.8.4,1.6.6,2.4.1.3.6.2.5-.1-.9-2.6-1.2-5.4-.3-8,.2-.7.5-1.3.9-1.9Z"/>
        </g>
      </g>
    </g>
  </g>
</svg>